<?xml version="1.0" encoding="utf-8"?>
<!-- Generator: Fusion 360, Shaper Origin Export Add-In, Version 1.5.0  -->
<svg enable-background="new 0 0 35 1.46" height="1.46cm" shaper:fusionaddin="version:1.5.0" version="1.1" viewBox="0 0 35 1.46" width="35cm" x="0cm" xml:space="preserve" xmlns="http://www.w3.org/2000/svg" xmlns:shaper="http://www.shapertools.com/namespaces/shaper" xmlns:xlink="http://www.w3.org/1999/xlink" y="0cm"><path d="M0.8,1.46 L-2.709,1.46 -2.709,0.76 -3.109,0.76 -3.109,1.46 -5.774,1.46 -5.774,0.76 -6.174,0.76 -6.174,1.46 -8.839,1.46 -8.839,0.76 -9.239,0.76 -9.239,1.46 -11.904,1.46 -11.904,0.76 -12.304,0.76 -12.304,1.46 -14.969,1.46 -14.969,0.76 -15.369,0.76 -15.369,1.46 -18.034,1.46 -18.034,0.76 -18.434,0.76 -18.434,1.46 -21.099,1.46 -21.099,0.76 -21.499,0.76 -21.499,1.46 -24.164,1.46 -24.164,0.76 -24.564,0.76 -24.564,1.46 -27.229,1.46 -27.229,0.76 -27.629,0.76 -27.629,1.46 -30.294,1.46 -30.294,0.76 -30.694,0.76 -30.694,1.46 -34.2,1.46 -34.2,0.8 -33.4,0.8 -33.4,0 -32.5772727,0 -32.5772727,0.1 -31.4772727,0.1 -31.4772727,0 -29.5115727,0 -29.5115727,0.1 -28.4115727,0.1 -28.4115727,0 -26.4458727,0 -26.4458727,0.1 -25.3458727,0.1 -25.3458727,0 -23.3801727,0 -23.3801727,0.1 -22.2801727,0.1 -22.2801727,0 -20.3144727,0 -20.3144727,0.1 -19.2144727,0.1 -19.2144727,0 -17.815,0 A0.25,0.25 180 0,0 -17.315,0 L-17.2487727,0 -17.2487727,0.1 -16.1487727,0.1 -16.1487727,0 -16.085,-0 A0.25,0.25 180 0,0 -15.585,-0 L-14.1830727,0 -14.1830727,0.1 -13.0830727,0.1 -13.0830727,0 -11.1173727,0 -11.1173727,0.1 -10.0173727,0.1 -10.0173727,0 -8.0516727,0 -8.0516727,0.1 -6.9516727,0.1 -6.9516727,0 -4.9859727,0 -4.9859727,0.1 -3.8859727,0.1 -3.8859727,0 0,0 0,0.8 0.8,0.8 0.8,1.46z" fill="rgb(0,0,0)" shaper:cutDepth="0.004" shaper:pathType="exterior" transform="matrix(1,0,0,-1,34.2,1.46)" vector-effect="non-scaling-stroke" /></svg>