<?xml version="1.0" encoding="utf-8"?>
<!-- Generator: Fusion 360, Shaper Origin Export Add-In, Version 1.5.0  -->
<svg enable-background="new 0 0 35 1.46" height="1.46cm" shaper:fusionaddin="version:1.5.0" version="1.1" viewBox="0 0 35 1.46" width="35cm" x="0cm" xml:space="preserve" xmlns="http://www.w3.org/2000/svg" xmlns:shaper="http://www.shapertools.com/namespaces/shaper" xmlns:xlink="http://www.w3.org/1999/xlink" y="0cm"><path d="M2.2,0.66 L0,0.66 0,0 35,0 35,0.66 32.8,0.66 32.8,1.46 31.0333067,1.46 31.0333067,0.7 30.6333067,0.7 30.6333067,1.46 27.6999767,1.46 27.6999767,0.7 27.2999767,0.7 27.2999767,1.46 24.3666467,1.46 24.3666467,0.7 23.9666467,0.7 23.9666467,1.46 21.0333167,1.46 21.0333167,0.7 20.6333167,0.7 20.6333167,1.46 17.6999867,1.46 17.6999867,0.7 17.2999867,0.7 17.2999867,1.46 14.3666567,1.46 14.3666567,0.7 13.9666567,0.7 13.9666567,1.46 11.0333267,1.46 11.0333267,0.7 10.6333267,0.7 10.6333267,1.46 7.6999967,1.46 7.6999967,0.7 7.2999967,0.7 7.2999967,1.46 4.3666667,1.46 4.3666667,0.7 3.9666667,0.7 3.9666667,1.46 2.2,1.46 2.2,0.66z" fill="rgb(0,0,0)" shaper:cutDepth="0.004" shaper:pathType="exterior" transform="matrix(1,0,0,-1,-0,1.46)" vector-effect="non-scaling-stroke" /></svg>