<?xml version="1.0" encoding="UTF-8" standalone="no"?>
<!-- Created with Inkscape (http://www.inkscape.org/) -->

<svg
   width="210mm"
   height="297mm"
   viewBox="0 0 210 297"
   version="1.1"
   id="svg944"
   inkscape:version="1.1.1 (3bf5ae0d25, 2021-09-20)"
   sodipodi:docname="All_Spacers.svg"
   xmlns:inkscape="http://www.inkscape.org/namespaces/inkscape"
   xmlns:sodipodi="http://sodipodi.sourceforge.net/DTD/sodipodi-0.dtd"
   xmlns="http://www.w3.org/2000/svg"
   xmlns:svg="http://www.w3.org/2000/svg">
  <sodipodi:namedview
     id="namedview946"
     pagecolor="#ffffff"
     bordercolor="#666666"
     borderopacity="1.0"
     inkscape:pageshadow="2"
     inkscape:pageopacity="0.0"
     inkscape:pagecheckerboard="0"
     inkscape:document-units="mm"
     showgrid="false"
     inkscape:zoom="0.73228114"
     inkscape:cx="396.70556"
     inkscape:cy="-53.258233"
     inkscape:window-width="1920"
     inkscape:window-height="1002"
     inkscape:window-x="-8"
     inkscape:window-y="-8"
     inkscape:window-maximized="1"
     inkscape:current-layer="layer1" />
  <defs
     id="defs941" />
  <g
     inkscape:label="Ebene 1"
     inkscape:groupmode="layer"
     id="layer1">
    <g
       id="Layer_2"
       data-name="Layer 2"
       style="fill:none;stroke:#000000;stroke-opacity:1"
       transform="matrix(0.3524029,0,0,0.3524029,1.6824948,2.2010577)">
      <g
         id="Layer_1-2"
         data-name="Layer 1"
         style="fill:none;stroke:#000000;stroke-opacity:1">
        <path
           class="cls-1"
           d="M 62.86,23.18 H 0.5 V 41.89 H 992.63 V 23.18 H 930.26 V 0.5 H 880.18 V 22 H 868.85 V 0.5 H 785.7 V 22 H 774.36 V 0.5 H 691.21 V 22 H 679.87 V 0.5 H 596.72 V 22 H 585.38 V 0.5 H 502.23 V 22 H 490.89 V 0.5 H 407.74 V 22 H 396.41 V 0.5 H 313.26 V 22 H 301.92 V 0.5 H 218.77 V 22 H 207.43 V 0.5 H 124.28 V 22 H 112.94 V 0.5 H 62.86 Z"
           id="path6"
           style="fill:none;stroke:#000000;stroke-opacity:1" />
        <path
           class="cls-1"
           d="M 62.86,75.18 H 0.5 V 93.89 H 992.63 V 75.18 H 930.26 V 52.5 H 880.18 V 74 H 868.85 V 52.5 H 785.7 V 74 H 774.36 V 52.5 H 691.21 V 74 H 679.87 V 52.5 H 596.72 V 74 H 585.38 V 52.5 H 502.23 V 74 H 490.89 V 52.5 H 407.74 V 74 H 396.41 V 52.5 H 313.26 V 74 H 301.92 V 52.5 H 218.77 V 74 H 207.43 V 52.5 H 124.28 V 74 H 112.94 V 52.5 H 62.86 Z"
           id="path8"
           style="fill:none;stroke:#000000;stroke-opacity:1" />
        <path
           class="cls-1"
           d="M 62.86,127.18 H 0.5 v 18.71 H 992.63 V 127.18 H 930.26 V 104.5 H 880.18 V 126 H 868.85 V 104.5 H 785.7 V 126 H 774.36 V 104.5 H 691.21 V 126 H 679.87 V 104.5 H 596.72 V 126 H 585.38 V 104.5 H 502.23 V 126 H 490.89 V 104.5 H 407.74 V 126 H 396.41 V 104.5 H 313.26 V 126 H 301.92 V 104.5 H 218.77 V 126 H 207.43 V 104.5 H 124.28 V 126 H 112.94 V 104.5 H 62.86 Z"
           id="path10"
           style="fill:none;stroke:#000000;stroke-opacity:1" />
        <path
           class="cls-1"
           d="M 62.86,177.18 H 0.5 v 18.71 H 992.63 V 177.18 H 930.26 V 154.5 H 880.18 V 176 H 868.85 V 154.5 H 785.7 V 176 H 774.36 V 154.5 H 691.21 V 176 H 679.87 V 154.5 H 596.72 V 176 H 585.38 V 154.5 H 502.23 V 176 H 490.89 V 154.5 H 407.74 V 176 H 396.41 V 154.5 H 313.26 V 176 H 301.92 V 154.5 H 218.77 V 176 H 207.43 V 154.5 H 124.28 V 176 H 112.94 V 154.5 H 62.86 Z"
           id="path12"
           style="fill:none;stroke:#000000;stroke-opacity:1" />
        <path
           class="cls-1"
           d="M 62.86,227.18 H 0.5 v 18.71 H 992.63 V 227.18 H 930.26 V 204.5 H 880.18 V 226 H 868.85 V 204.5 H 785.7 V 226 H 774.36 V 204.5 H 691.21 V 226 H 679.87 V 204.5 H 596.72 V 226 H 585.38 V 204.5 H 502.23 V 226 H 490.89 V 204.5 H 407.74 V 226 H 396.41 V 204.5 H 313.26 V 226 H 301.92 V 204.5 H 218.77 V 226 H 207.43 V 204.5 H 124.28 V 226 H 112.94 V 204.5 H 62.86 Z"
           id="path14"
           style="fill:none;stroke:#000000;stroke-opacity:1" />
        <path
           class="cls-1"
           d="M 62.86,277.18 H 0.5 v 18.71 H 992.63 V 277.18 H 930.26 V 254.5 H 880.18 V 276 H 868.85 V 254.5 H 785.7 V 276 H 774.36 V 254.5 H 691.21 V 276 H 679.87 V 254.5 H 596.72 V 276 H 585.38 V 254.5 H 502.23 V 276 H 490.89 V 254.5 H 407.74 V 276 H 396.41 V 254.5 H 313.26 V 276 H 301.92 V 254.5 H 218.77 V 276 H 207.43 V 254.5 H 124.28 V 276 H 112.94 V 254.5 H 62.86 Z"
           id="path16"
           style="fill:none;stroke:#000000;stroke-opacity:1" />
        <path
           class="cls-1"
           d="M 62.86,327.18 H 0.5 v 18.71 H 992.63 V 327.18 H 930.26 V 304.5 H 880.18 V 326 H 868.85 V 304.5 H 785.7 V 326 H 774.36 V 304.5 H 691.21 V 326 H 679.87 V 304.5 H 596.72 V 326 H 585.38 V 304.5 H 502.23 V 326 H 490.89 V 304.5 H 407.74 V 326 H 396.41 V 304.5 H 313.26 V 326 H 301.92 V 304.5 H 218.77 V 326 H 207.43 V 304.5 H 124.28 V 326 H 112.94 V 304.5 H 62.86 Z"
           id="path18"
           style="fill:none;stroke:#000000;stroke-opacity:1" />
        <path
           class="cls-1"
           d="M 62.86,377.18 H 0.5 v 18.71 H 992.63 V 377.18 H 930.26 V 354.5 H 880.18 V 376 H 868.85 V 354.5 H 785.7 V 376 H 774.36 V 354.5 H 691.21 V 376 H 679.87 V 354.5 H 596.72 V 376 H 585.38 V 354.5 H 502.23 V 376 H 490.89 V 354.5 H 407.74 V 376 H 396.41 V 354.5 H 313.26 V 376 H 301.92 V 354.5 H 218.77 V 376 H 207.43 V 354.5 H 124.28 V 376 H 112.94 V 354.5 H 62.86 Z"
           id="path20"
           style="fill:none;stroke:#000000;stroke-opacity:1" />
        <path
           class="cls-1"
           d="M 62.86,427.18 H 0.5 v 18.71 H 992.63 V 427.18 H 930.26 V 404.5 H 880.18 V 426 H 868.85 V 404.5 H 785.7 V 426 H 774.36 V 404.5 H 691.21 V 426 H 679.87 V 404.5 H 596.72 V 426 H 585.38 V 404.5 H 502.23 V 426 H 490.89 V 404.5 H 407.74 V 426 H 396.41 V 404.5 H 313.26 V 426 H 301.92 V 404.5 H 218.77 V 426 H 207.43 V 404.5 H 124.28 V 426 H 112.94 V 404.5 H 62.86 Z"
           id="path22"
           style="fill:none;stroke:#000000;stroke-opacity:1" />
        <path
           class="cls-1"
           d="M 62.86,477.18 H 0.5 v 18.71 H 992.63 V 477.18 H 930.26 V 454.5 H 880.18 V 476 H 868.85 V 454.5 H 785.7 V 476 H 774.36 V 454.5 H 691.21 V 476 H 679.87 V 454.5 H 596.72 V 476 H 585.38 V 454.5 H 502.23 V 476 H 490.89 V 454.5 H 407.74 V 476 H 396.41 V 454.5 H 313.26 V 476 H 301.92 V 454.5 H 218.77 V 476 H 207.43 V 454.5 H 124.28 V 476 H 112.94 V 454.5 H 62.86 Z"
           id="path24"
           style="fill:none;stroke:#000000;stroke-opacity:1" />
        <path
           class="cls-2"
           d="m 992.63,504.5 h -99.47 v 19.84 H 881.82 V 504.5 h -75.54 v 19.84 H 794.94 V 504.5 h -75.55 v 19.84 H 708.06 V 504.5 h -75.55 v 19.84 H 621.17 V 504.5 h -75.54 v 19.84 H 534.29 V 504.5 h -75.54 v 19.84 H 447.41 V 504.5 h -75.54 v 19.84 H 360.53 V 504.5 H 285 v 19.84 H 273.65 V 504.5 H 198.1 v 19.84 H 186.76 V 504.5 h -75.54 v 19.84 H 99.88 V 504.5 H 0.5 v 18.71 h 22.68 v 22.68 H 46.5 v -2.84 h 31.18 v 2.84 h 55.72 v -2.84 h 31.18 v 2.84 h 55.72 v -2.84 h 31.18 v 2.84 h 55.72 v -2.84 h 31.18 v 2.84 h 55.73 v -2.84 h 31.18 v 2.84 H 465 a 7.09,7.09 0 1 1 14.17,0 H 481 v -2.84 h 31.18 v 2.84 H 514 a 7.09,7.09 0 0 1 14.17,0 h 39.74 v -2.84 h 31.18 v 2.84 h 55.72 v -2.84 H 686 v 2.84 h 55.72 v -2.84 h 31.18 v 2.84 h 55.72 v -2.84 h 31.18 v 2.84 H 970 v -22.68 h 22.68 z"
           id="path26"
           style="fill:none;stroke:#000000;stroke-opacity:1" />
        <path
           class="cls-2"
           d="m 992.63,554.5 h -99.47 v 19.84 H 881.82 V 554.5 h -75.54 v 19.84 H 794.94 V 554.5 h -75.55 v 19.84 H 708.06 V 554.5 h -75.55 v 19.84 H 621.17 V 554.5 h -75.54 v 19.84 H 534.29 V 554.5 h -75.54 v 19.84 H 447.41 V 554.5 h -75.54 v 19.84 H 360.53 V 554.5 H 285 v 19.84 H 273.65 V 554.5 H 198.1 v 19.84 H 186.76 V 554.5 h -75.54 v 19.84 H 99.88 V 554.5 H 0.5 v 18.71 h 22.68 v 22.68 H 46.5 v -2.84 h 31.18 v 2.84 h 55.72 v -2.84 h 31.18 v 2.84 h 55.72 v -2.84 h 31.18 v 2.84 h 55.72 v -2.84 h 31.18 v 2.84 h 55.73 v -2.84 h 31.18 v 2.84 H 465 a 7.09,7.09 0 1 1 14.17,0 H 481 v -2.84 h 31.18 v 2.84 H 514 a 7.09,7.09 0 0 1 14.17,0 h 39.74 v -2.84 h 31.18 v 2.84 h 55.72 v -2.84 H 686 v 2.84 h 55.72 v -2.84 h 31.18 v 2.84 h 55.72 v -2.84 h 31.18 v 2.84 H 970 v -22.68 h 22.68 z"
           id="path28"
           style="fill:none;stroke:#000000;stroke-opacity:1" />
        <path
           class="cls-2"
           d="m 992.63,604.5 h -99.47 v 19.84 H 881.82 V 604.5 h -75.54 v 19.84 H 794.94 V 604.5 h -75.55 v 19.84 H 708.06 V 604.5 h -75.55 v 19.84 H 621.17 V 604.5 h -75.54 v 19.84 H 534.29 V 604.5 h -75.54 v 19.84 H 447.41 V 604.5 h -75.54 v 19.84 H 360.53 V 604.5 H 285 v 19.84 H 273.65 V 604.5 H 198.1 v 19.84 H 186.76 V 604.5 h -75.54 v 19.84 H 99.88 V 604.5 H 0.5 v 18.71 h 22.68 v 22.68 H 46.5 v -2.84 h 31.18 v 2.84 h 55.72 v -2.84 h 31.18 v 2.84 h 55.72 v -2.84 h 31.18 v 2.84 h 55.72 v -2.84 h 31.18 v 2.84 h 55.73 v -2.84 h 31.18 v 2.84 H 465 a 7.09,7.09 0 1 1 14.17,0 H 481 v -2.84 h 31.18 v 2.84 H 514 a 7.09,7.09 0 0 1 14.17,0 h 39.74 v -2.84 h 31.18 v 2.84 h 55.72 v -2.84 H 686 v 2.84 h 55.72 v -2.84 h 31.18 v 2.84 h 55.72 v -2.84 h 31.18 v 2.84 H 970 v -22.68 h 22.68 z"
           id="path30"
           style="fill:none;stroke:#000000;stroke-opacity:1" />
        <path
           class="cls-2"
           d="m 992.63,654.5 h -99.47 v 19.84 H 881.82 V 654.5 h -75.54 v 19.84 H 794.94 V 654.5 h -75.55 v 19.84 H 708.06 V 654.5 h -75.55 v 19.84 H 621.17 V 654.5 h -75.54 v 19.84 H 534.29 V 654.5 h -75.54 v 19.84 H 447.41 V 654.5 h -75.54 v 19.84 H 360.53 V 654.5 H 285 v 19.84 H 273.65 V 654.5 H 198.1 v 19.84 H 186.76 V 654.5 h -75.54 v 19.84 H 99.88 V 654.5 H 0.5 v 18.71 h 22.68 v 22.68 H 46.5 v -2.84 h 31.18 v 2.84 h 55.72 v -2.84 h 31.18 v 2.84 h 55.72 v -2.84 h 31.18 v 2.84 h 55.72 v -2.84 h 31.18 v 2.84 h 55.73 v -2.84 h 31.18 v 2.84 H 465 a 7.09,7.09 0 1 1 14.17,0 H 481 v -2.84 h 31.18 v 2.84 H 514 a 7.09,7.09 0 0 1 14.17,0 h 39.74 v -2.84 h 31.18 v 2.84 h 55.72 v -2.84 H 686 v 2.84 h 55.72 v -2.84 h 31.18 v 2.84 h 55.72 v -2.84 h 31.18 v 2.84 H 970 v -22.68 h 22.68 z"
           id="path32"
           style="fill:none;stroke:#000000;stroke-opacity:1" />
        <path
           class="cls-2"
           d="m 992.63,704.5 h -99.47 v 19.84 H 881.82 V 704.5 h -75.54 v 19.84 H 794.94 V 704.5 h -75.55 v 19.84 H 708.06 V 704.5 h -75.55 v 19.84 H 621.17 V 704.5 h -75.54 v 19.84 H 534.29 V 704.5 h -75.54 v 19.84 H 447.41 V 704.5 h -75.54 v 19.84 H 360.53 V 704.5 H 285 v 19.84 H 273.65 V 704.5 H 198.1 v 19.84 H 186.76 V 704.5 h -75.54 v 19.84 H 99.88 V 704.5 H 0.5 v 18.71 h 22.68 v 22.68 H 46.5 v -2.84 h 31.18 v 2.84 h 55.72 v -2.84 h 31.18 v 2.84 h 55.72 v -2.84 h 31.18 v 2.84 h 55.72 v -2.84 h 31.18 v 2.84 h 55.73 v -2.84 h 31.18 v 2.84 H 465 a 7.09,7.09 0 1 1 14.17,0 H 481 v -2.84 h 31.18 v 2.84 H 514 a 7.09,7.09 0 0 1 14.17,0 h 39.74 v -2.84 h 31.18 v 2.84 h 55.72 v -2.84 H 686 v 2.84 h 55.72 v -2.84 h 31.18 v 2.84 h 55.72 v -2.84 h 31.18 v 2.84 H 970 v -22.68 h 22.68 z"
           id="path34"
           style="fill:none;stroke:#000000;stroke-opacity:1" />
        <path
           class="cls-2"
           d="m 992.63,754.5 h -99.47 v 19.84 H 881.82 V 754.5 h -75.54 v 19.84 H 794.94 V 754.5 h -75.55 v 19.84 H 708.06 V 754.5 h -75.55 v 19.84 H 621.17 V 754.5 h -75.54 v 19.84 H 534.29 V 754.5 h -75.54 v 19.84 H 447.41 V 754.5 h -75.54 v 19.84 H 360.53 V 754.5 H 285 v 19.84 H 273.65 V 754.5 H 198.1 v 19.84 H 186.76 V 754.5 h -75.54 v 19.84 H 99.88 V 754.5 H 0.5 v 18.71 h 22.68 v 22.68 H 46.5 v -2.84 h 31.18 v 2.84 h 55.72 v -2.84 h 31.18 v 2.84 h 55.72 v -2.84 h 31.18 v 2.84 h 55.72 v -2.84 h 31.18 v 2.84 h 55.73 v -2.84 h 31.18 v 2.84 H 465 a 7.09,7.09 0 1 1 14.17,0 H 481 v -2.84 h 31.18 v 2.84 H 514 a 7.09,7.09 0 0 1 14.17,0 h 39.74 v -2.84 h 31.18 v 2.84 h 55.72 v -2.84 H 686 v 2.84 h 55.72 v -2.84 h 31.18 v 2.84 h 55.72 v -2.84 h 31.18 v 2.84 H 970 v -22.68 h 22.68 z"
           id="path36"
           style="fill:none;stroke:#000000;stroke-opacity:1" />
        <path
           class="cls-2"
           d="m 992.63,804.5 h -99.47 v 19.84 H 881.82 V 804.5 h -75.54 v 19.84 H 794.94 V 804.5 h -75.55 v 19.84 H 708.06 V 804.5 h -75.55 v 19.84 H 621.17 V 804.5 h -75.54 v 19.84 H 534.29 V 804.5 h -75.54 v 19.84 H 447.41 V 804.5 h -75.54 v 19.84 H 360.53 V 804.5 H 285 v 19.84 H 273.65 V 804.5 H 198.1 v 19.84 H 186.76 V 804.5 h -75.54 v 19.84 H 99.88 V 804.5 H 0.5 v 18.71 h 22.68 v 22.68 H 46.5 v -2.84 h 31.18 v 2.84 h 55.72 v -2.84 h 31.18 v 2.84 h 55.72 v -2.84 h 31.18 v 2.84 h 55.72 v -2.84 h 31.18 v 2.84 h 55.73 v -2.84 h 31.18 v 2.84 H 465 a 7.09,7.09 0 1 1 14.17,0 H 481 v -2.84 h 31.18 v 2.84 H 514 a 7.09,7.09 0 0 1 14.17,0 h 39.74 v -2.84 h 31.18 v 2.84 h 55.72 v -2.84 H 686 v 2.84 h 55.72 v -2.84 h 31.18 v 2.84 h 55.72 v -2.84 h 31.18 v 2.84 H 970 v -22.68 h 22.68 z"
           id="path38"
           style="fill:none;stroke:#000000;stroke-opacity:1" />
        <path
           class="cls-2"
           d="m 992.63,854.5 h -99.47 v 19.84 H 881.82 V 854.5 h -75.54 v 19.84 H 794.94 V 854.5 h -75.55 v 19.84 H 708.06 V 854.5 h -75.55 v 19.84 H 621.17 V 854.5 h -75.54 v 19.84 H 534.29 V 854.5 h -75.54 v 19.84 H 447.41 V 854.5 h -75.54 v 19.84 H 360.53 V 854.5 H 285 v 19.84 H 273.65 V 854.5 H 198.1 v 19.84 H 186.76 V 854.5 h -75.54 v 19.84 H 99.88 V 854.5 H 0.5 v 18.71 h 22.68 v 22.68 H 46.5 v -2.84 h 31.18 v 2.84 h 55.72 v -2.84 h 31.18 v 2.84 h 55.72 v -2.84 h 31.18 v 2.84 h 55.72 v -2.84 h 31.18 v 2.84 h 55.73 v -2.84 h 31.18 v 2.84 H 465 a 7.09,7.09 0 1 1 14.17,0 H 481 v -2.84 h 31.18 v 2.84 H 514 a 7.09,7.09 0 0 1 14.17,0 h 39.74 v -2.84 h 31.18 v 2.84 h 55.72 v -2.84 H 686 v 2.84 h 55.72 v -2.84 h 31.18 v 2.84 h 55.72 v -2.84 h 31.18 v 2.84 H 970 v -22.68 h 22.68 z"
           id="path40"
           style="fill:none;stroke:#000000;stroke-opacity:1" />
        <path
           class="cls-2"
           d="m 992.63,904.5 h -99.47 v 19.84 H 881.82 V 904.5 h -75.54 v 19.84 H 794.94 V 904.5 h -75.55 v 19.84 H 708.06 V 904.5 h -75.55 v 19.84 H 621.17 V 904.5 h -75.54 v 19.84 H 534.29 V 904.5 h -75.54 v 19.84 H 447.41 V 904.5 h -75.54 v 19.84 H 360.53 V 904.5 H 285 v 19.84 H 273.65 V 904.5 H 198.1 v 19.84 H 186.76 V 904.5 h -75.54 v 19.84 H 99.88 V 904.5 H 0.5 v 18.71 h 22.68 v 22.68 H 46.5 v -2.84 h 31.18 v 2.84 h 55.72 v -2.84 h 31.18 v 2.84 h 55.72 v -2.84 h 31.18 v 2.84 h 55.72 v -2.84 h 31.18 v 2.84 h 55.73 v -2.84 h 31.18 v 2.84 H 465 a 7.09,7.09 0 1 1 14.17,0 H 481 v -2.84 h 31.18 v 2.84 H 514 a 7.09,7.09 0 0 1 14.17,0 h 39.74 v -2.84 h 31.18 v 2.84 h 55.72 v -2.84 H 686 v 2.84 h 55.72 v -2.84 h 31.18 v 2.84 h 55.72 v -2.84 h 31.18 v 2.84 H 970 v -22.68 h 22.68 z"
           id="path42"
           style="fill:none;stroke:#000000;stroke-opacity:1" />
        <path
           class="cls-2"
           d="m 183.65,954.5 h 21.26 v 41.39 H 148.22 V 954.5 h 21.26 a 7.09,7.09 0 1 0 14.17,0 z"
           id="path44"
           style="fill:none;stroke:#000000;stroke-opacity:1" />
        <path
           class="cls-2"
           d="m 253.65,954.5 h 21.26 v 41.39 H 218.22 V 954.5 h 21.26 a 7.09,7.09 0 1 0 14.17,0 z"
           id="path46"
           style="fill:none;stroke:#000000;stroke-opacity:1" />
        <path
           class="cls-2"
           d="m 113.65,954.5 h 21.26 v 41.39 H 78.22 V 954.5 h 21.26 a 7.09,7.09 0 1 0 14.17,0 z"
           id="path48"
           style="fill:none;stroke:#000000;stroke-opacity:1" />
        <path
           class="cls-2"
           d="m 323.65,954.5 h 21.26 v 41.39 H 288.22 V 954.5 h 21.26 a 7.09,7.09 0 1 0 14.17,0 z"
           id="path50"
           style="fill:none;stroke:#000000;stroke-opacity:1" />
        <path
           class="cls-2"
           d="m 43.65,954.5 h 21.26 v 41.39 H 8.22 V 954.5 h 21.26 a 7.09,7.09 0 1 0 14.17,0 z"
           id="path52"
           style="fill:none;stroke:#000000;stroke-opacity:1" />
      </g>
    </g>
  </g>
</svg>
