<?xml version="1.0" encoding="UTF-8" standalone="no"?>
<!-- Created with Inkscape (http://www.inkscape.org/) -->

<svg
   width="500mm"
   height="500mm"
   viewBox="0 0 500 500"
   version="1.1"
   id="svg1060"
   inkscape:version="1.1.1 (3bf5ae0d25, 2021-09-20)"
   sodipodi:docname="01_Qlocktwo_esp_flipped_outlines.svg"
   xmlns:inkscape="http://www.inkscape.org/namespaces/inkscape"
   xmlns:sodipodi="http://sodipodi.sourceforge.net/DTD/sodipodi-0.dtd"
   xmlns="http://www.w3.org/2000/svg"
   xmlns:svg="http://www.w3.org/2000/svg">
  <sodipodi:namedview
     id="namedview1062"
     pagecolor="#ffffff"
     bordercolor="#666666"
     borderopacity="1.0"
     inkscape:pageshadow="2"
     inkscape:pageopacity="0.0"
     inkscape:pagecheckerboard="0"
     inkscape:document-units="mm"
     showgrid="false"
     inkscape:zoom="0.19442866"
     inkscape:cx="187.72952"
     inkscape:cy="563.18857"
     inkscape:window-width="1536"
     inkscape:window-height="801"
     inkscape:window-x="-8"
     inkscape:window-y="-8"
     inkscape:window-maximized="1"
     inkscape:current-layer="layer1" />
  <defs
     id="defs1057" />
  <g
     inkscape:label="Ebene 1"
     inkscape:groupmode="layer"
     id="layer1"
     style="display:inline">
    <g
       id="Letters"
       transform="matrix(0.26458333,0,0,0.26458333,64.540085,48.210188)"
       style="stroke:#000000;stroke-opacity:1">
      <path
         class="cls-1"
         d="m 1259.4157,222.59226 v -4.18403 h 32.7758 v -24.86438 h -27.9793 v -4.15739 h 27.9793 v -24.37135 h -32.7758 v -4.1574 h 37.4656 v 61.73455 z"
         id="path6"
         style="stroke-width:1.33242;stroke:#000000;stroke-opacity:1;fill:none" />
      <path
         class="cls-1"
         d="m 1144.5007,206.00269 a 15.988169,15.989954 0 0 1 1.4257,-6.82238 14.575881,14.577508 0 0 1 3.997,-5.15677 21.077736,21.080089 0 0 1 1.9985,-1.43909 13.589944,13.59146 0 0 1 2.2917,-1.13263 20.851236,20.853565 0 0 1 2.9044,-0.81282 c 1.1059,-0.23985 2.3717,-0.46637 3.8106,-0.70622 l 6.6618,-1.03934 a 24.182105,24.184805 0 0 0 5.0762,-1.42577 15.14879,15.150481 0 0 0 4.1169,-2.38517 q 3.2243,-2.665 3.211,-8.08826 a 11.991127,11.992465 0 0 0 -3.7706,-9.32748 c -2.5181,-2.29188 -6.0222,-3.42451 -10.5388,-3.42451 a 25.114749,25.117552 0 0 0 -4.9431,0.4264 19.985211,19.987442 0 0 0 -3.8904,1.1726 17.320516,17.322449 0 0 0 -3.211,1.77222 32.855687,32.859354 0 0 0 -2.9444,2.34519 l -3.0378,-3.03808 a 27.646208,27.649295 0 0 1 7.9941,-5.01019 26.766859,26.769846 0 0 1 9.7528,-1.57235 q 8.9267,0 14.0429,4.54382 a 15.708376,15.710129 0 0 1 5.1163,12.36555 14.016295,14.017859 0 0 1 -4.8632,11.35287 21.157676,21.160038 0 0 1 -11.0052,4.50383 l -7.1947,1.13263 c -1.3323,0.17323 -2.3448,0.35978 -3.2109,0.55965 a 23.475961,23.478582 0 0 0 -2.2916,0.65292 7.6609975,7.6618526 0 0 0 -1.7853,0.86613 c -0.5197,0.34645 -1.0659,0.74619 -1.6389,1.21256 a 11.071807,11.073043 0 0 0 -3.3841,8.67456 11.271659,11.272917 0 0 0 4.2501,9.40742 q 4.237,3.33124 11.6182,3.33124 a 32.855687,32.859354 0 0 0 5.0629,-0.34645 17.946719,17.948723 0 0 0 4.3834,-1.21257 20.917854,20.920189 0 0 0 3.9971,-2.25192 32.082925,32.086506 0 0 0 3.997,-3.46449 l 3.2908,3.29127 a 32.535924,32.539556 0 0 1 -4.2901,3.63771 22.796464,22.799009 0 0 1 -4.6766,2.5584 25.554423,25.557276 0 0 1 -5.3293,1.47906 37.612167,37.616366 0 0 1 -6.2887,0.4797 q -9.7128,0 -15.2554,-4.61043 a 15.361966,15.36368 0 0 1 -5.4493,-12.49881 z"
         id="path8"
         style="stroke-width:1.33242;stroke:#000000;stroke-opacity:1;fill:none" />
      <path
         class="cls-1"
         d="m 1028.0136,191.7583 c 0,-3.46449 0,-6.46261 0.093,-8.9677 a 39.184337,39.188711 0 0 1 0.6396,-6.66247 19.265743,19.267893 0 0 1 1.7454,-5.1168 17.147311,17.149225 0 0 1 3.2509,-4.3306 21.317558,21.319938 0 0 1 7.0215,-4.69039 22.383436,22.385934 0 0 1 16.8142,0 21.570704,21.573112 0 0 1 7.0215,4.69039 17.800161,17.802148 0 0 1 3.2509,4.3306 19.265743,19.267893 0 0 1 1.732,5.1168 39.077749,39.082111 0 0 1 0.6529,6.66247 c 0,2.50509 0.08,5.50321 0.08,8.9677 0,3.46449 0,6.47594 -0.08,9.02099 a 39.304248,39.308635 0 0 1 -0.6529,6.66248 18.652864,18.654946 0 0 1 -1.732,5.07682 18.426364,18.428422 0 0 1 -3.2509,4.29063 21.317558,21.319938 0 0 1 -7.0215,4.67707 22.210231,22.21271 0 0 1 -16.8142,0 21.051089,21.053439 0 0 1 -7.0215,-4.67707 17.706897,17.708874 0 0 1 -3.2509,-4.29063 18.652864,18.654946 0 0 1 -1.7454,-5.07682 39.410835,39.415235 0 0 1 -0.6396,-6.66248 q -0.093,-3.85091 -0.093,-9.02099 z m 4.6899,0 q 0,4.93023 0.1199,8.46135 a 42.741705,42.746475 0 0 0 0.6128,6.06285 16.121403,16.123204 0 0 0 1.4257,4.42389 14.136206,14.137784 0 0 0 2.5981,3.50447 15.748346,15.750104 0 0 0 5.3293,3.55776 17.120664,17.122575 0 0 0 12.6574,0 15.695053,15.696804 0 0 0 5.3293,-3.55776 13.496679,13.498185 0 0 0 2.5981,-3.50447 16.121403,16.123204 0 0 0 1.4389,-4.42389 41.022976,41.027555 0 0 0 0.5996,-6.06285 q 0.1333,-3.5178 0.1333,-8.46135 c 0,-3.29127 0,-6.11616 -0.1333,-8.44803 a 41.0363,41.04088 0 0 0 -0.5996,-6.07618 16.267962,16.269777 0 0 0 -1.4389,-4.42389 13.496679,13.498185 0 0 0 -2.5981,-3.50446 15.881581,15.883354 0 0 0 -5.3293,-3.55777 17.120664,17.122575 0 0 0 -12.6574,0 15.988169,15.989954 0 0 0 -5.3293,3.55777 14.136206,14.137784 0 0 0 -2.5981,3.50446 16.281285,16.283102 0 0 0 -1.4257,4.42389 42.741705,42.746475 0 0 0 -0.6128,6.07618 c -0.08,2.29189 -0.1199,5.11679 -0.1199,8.44803 z"
         id="path10"
         style="stroke-width:1.33242;stroke:#000000;stroke-opacity:1;fill:none" />
      <path
         class="cls-1"
         d="m 911.0202,222.59226 v -61.73455 h 4.6765 v 53.55302 l 35.627,-53.48639 h 4.6899 v 61.73454 h -4.6899 v -53.73956 l -35.627,53.67294 z"
         id="path12"
         style="stroke-width:1.33242;stroke:#000000;stroke-opacity:1;fill:none" />
      <path
         class="cls-1"
         d="m 796.798,222.59226 v -4.18403 h 32.7625 v -24.86438 h -27.9793 v -4.15739 h 27.9793 V 165.01511 H 796.798 v -4.1574 h 37.4524 v 61.73455 z"
         id="path14"
         style="stroke-width:1.33242;stroke:#000000;stroke-opacity:1;fill:none" />
      <path
         class="cls-1"
         d="m 680.00447,222.59226 v -4.18403 h 32.77575 v -57.56385 h 4.67654 v 61.73456 z"
         id="path16"
         style="stroke-width:1.33242;stroke:#000000;stroke-opacity:1;fill:none" />
      <path
         class="cls-1"
         d="m 561.75864,222.59226 22.6499,-61.73455 h 4.17026 l 22.6499,61.73455 h -5.02295 l -5.32939,-15.00391 h -28.72541 l -5.32939,15.00391 z m 11.87122,-19.1613 h 25.83421 l -12.92376,-36.33717 z"
         id="path18"
         style="stroke-width:1.33242;stroke:#000000;stroke-opacity:1;fill:none" />
      <path
         class="cls-1"
         d="m 450.56093,206.00269 a 16.161374,16.163178 0 0 1 1.42561,-6.82238 14.722438,14.724083 0 0 1 3.99704,-5.15677 21.077736,21.080089 0 0 1 1.99852,-1.43909 13.736501,13.738035 0 0 1 2.30496,-1.13263 20.638061,20.640364 0 0 1 2.8912,-0.81282 c 1.10585,-0.23985 2.37158,-0.46637 3.82383,-0.70622 l 6.66174,-1.03934 a 24.062194,24.06488 0 0 0 5.06293,-1.42577 15.441906,15.443629 0 0 0 4.0903,-2.37186 q 3.19763,-2.66498 3.19763,-8.08825 a 11.991127,11.992465 0 0 0 -3.77054,-9.32747 c -2.50482,-2.2919 -6.02222,-3.42451 -10.52554,-3.42451 a 25.021484,25.024278 0 0 0 -4.94301,0.42639 20.105122,20.107366 0 0 0 -3.90379,1.17261 17.320516,17.322449 0 0 0 -3.21095,1.77222 34.867531,34.871423 0 0 0 -2.94449,2.34519 l -3.03775,-3.0381 a 27.832737,27.835844 0 0 1 7.99409,-5.01019 26.820153,26.823147 0 0 1 9.75278,-1.57233 q 8.94005,0 14.04294,4.54381 a 15.708376,15.710129 0 0 1 5.11621,12.36556 14.002971,14.004534 0 0 1 -4.84975,11.35287 21.21097,21.213339 0 0 1 -11.01851,4.50383 l -7.19467,1.13263 q -1.89193,0.25317 -3.19764,0.55964 a 23.822371,23.825031 0 0 0 -2.30496,0.65293 7.5544096,7.555253 0 0 0 -1.77201,0.86611 c -0.51962,0.34646 -1.06588,0.7462 -1.65212,1.21258 a 11.071807,11.073043 0 0 0 -3.38416,8.67455 11.31163,11.312892 0 0 0 4.25019,9.40742 c 2.8379,2.22527 6.66173,3.33124 11.61807,3.33124 a 33.042215,33.045903 0 0 0 5.07624,-0.34644 17.840131,17.842123 0 0 0 4.3701,-1.21258 20.917854,20.920189 0 0 0 3.99704,-2.25191 32.082925,32.086506 0 0 0 3.99704,-3.46449 l 3.30422,3.29125 a 33.428596,33.432328 0 0 1 -4.29016,3.63773 23.249462,23.252057 0 0 1 -4.68985,2.55839 25.3146,25.317426 0 0 1 -5.3294,1.47907 37.452285,37.456466 0 0 1 -6.27535,0.47969 q -9.71282,0 -15.26871,-4.61043 a 15.401935,15.403655 0 0 1 -5.40932,-12.51213 z"
         id="path20"
         style="stroke-width:1.33242;stroke:#000000;stroke-opacity:1;fill:none" />
      <path
         class="cls-1"
         d="m 334.08711,202.56484 v -41.70713 h 4.67654 v 41.09418 a 19.891946,19.894167 0 0 0 1.17247,6.98228 14.575881,14.577508 0 0 0 8.54035,8.79447 19.465595,19.467769 0 0 0 13.52333,0 14.655822,14.657457 0 0 0 8.54035,-8.79447 20.198386,20.200641 0 0 0 1.15914,-6.98228 v -41.09418 h 4.68985 v 41.70713 a 21.477439,21.479837 0 0 1 -1.55884,8.2748 19.119185,19.12132 0 0 1 -4.38342,6.50259 19.985211,19.987442 0 0 1 -6.66174,4.25066 24.768338,24.771103 0 0 1 -17.08069,0 19.985211,19.987442 0 0 1 -6.66174,-4.25066 19.092538,19.09467 0 0 1 -4.3701,-6.50259 21.477439,21.479837 0 0 1 -1.5855,-8.2748 z"
         id="path22"
         style="stroke-width:1.33242;stroke:#000000;stroke-opacity:1;fill:none" />
      <path
         class="cls-1"
         d="m 217.08037,222.59226 v -61.73455 h 4.68987 v 53.55302 l 35.62696,-53.48639 h 4.67654 v 61.73454 h -4.67654 v -53.73956 l -35.62696,53.67294 z"
         id="path24"
         style="stroke-width:1.33242;stroke:#000000;stroke-opacity:1;fill:none" />
      <path
         class="cls-1"
         d="m 99.10101,222.59226 22.71652,-61.73455 h 4.15693 l 22.71652,61.73455 h -5.02295 l -5.32939,-15.00391 h -28.7787 l -5.3294,15.00391 z m 11.88454,-19.1613 h 25.83422 L 123.896,167.09379 Z"
         id="path26"
         style="stroke-width:1.33242;stroke:#000000;stroke-opacity:1;fill:none" />
      <path
         class="cls-1"
         d="m 1258.2433,318.09225 c 0,-2.07869 0,-4.23733 0,-6.46261 a 39.970422,39.974883 0 0 1 0.6128,-6.50257 29.498171,29.501464 0 0 1 1.7721,-6.11616 16.37455,16.376377 0 0 1 3.5573,-5.32998 q 5.6359,-5.63646 15.4286,-5.63646 h 20.718 v 61.73454 h -20.7713 a 25.447835,25.450676 0 0 1 -8.7535,-1.42577 18.213189,18.215221 0 0 1 -6.6618,-4.21069 15.601788,15.603529 0 0 1 -3.5573,-5.54318 34.09477,34.098575 0 0 1 -1.772,-6.66249 48.67065,48.676083 0 0 1 -0.6129,-7.11552 q 0.04,-3.61107 0.04,-6.72911 z m 4.6764,0 c 0,1.73225 0,3.65105 0,5.75639 a 59.156224,59.162827 0 0 0 0.4264,6.32935 30.151022,30.154387 0 0 0 1.3323,5.98291 12.590683,12.592088 0 0 0 2.7713,4.73037 13.869736,13.871285 0 0 0 6.1155,3.77096 25.3146,25.317426 0 0 0 7.1547,0.99937 h 14.909 v -53.40644 h -14.909 a 25.3146,25.317426 0 0 0 -7.1547,0.99936 13.749825,13.75136 0 0 0 -6.1155,3.77098 12.937093,12.938537 0 0 0 -2.7713,4.46385 25.3146,25.317426 0 0 0 -1.3323,5.32999 47.698037,47.70336 0 0 0 -0.4264,5.72973 c -0.027,1.97209 -0.04,3.81094 -0.04,5.54318 z"
         id="path28"
         style="stroke-width:1.33242;stroke:#000000;stroke-opacity:1;fill:none" />
      <path
         class="cls-1"
         d="m 1143.6613,318.95838 q 0,-5.19673 0.08,-8.98103 a 40.476713,40.481232 0 0 1 0.6529,-6.66248 19.105861,19.107995 0 0 1 1.732,-5.11678 18.119924,18.121947 0 0 1 3.2509,-4.34394 21.544057,21.546463 0 0 1 7.0215,-4.67707 22.250201,22.252686 0 0 1 16.8275,0 21.544057,21.546463 0 0 1 7.0216,4.67707 18.119924,18.121947 0 0 1 3.2509,4.34394 19.105861,19.107995 0 0 1 1.732,5.11678 40.476713,40.481232 0 0 1 0.6528,6.66248 q 0.08,3.77097 0.08,8.98103 c 0,3.46449 0,6.47593 -0.08,9.00768 a 41.0363,41.04088 0 0 1 -0.6528,6.66247 18.399718,18.401772 0 0 1 -1.732,5.06349 18.146571,18.148597 0 0 1 -3.2509,4.29064 21.570704,21.573112 0 0 1 -7.0216,4.69038 22.423407,22.42591 0 0 1 -16.8275,0 21.570704,21.573112 0 0 1 -7.0215,-4.69038 18.146571,18.148597 0 0 1 -3.2509,-4.29064 18.399718,18.401772 0 0 1 -1.732,-5.06349 41.0363,41.04088 0 0 1 -0.6529,-6.66247 c -0.08,-2.53175 -0.08,-5.54319 -0.08,-9.00768 z m 4.6766,0 c 0,3.29127 0,6.11616 0.1332,8.44802 a 40.876418,40.88098 0 0 0 0.6129,6.07619 15.828287,15.830054 0 0 0 1.4257,4.42389 14.136206,14.137784 0 0 0 2.598,3.50445 15.988169,15.989954 0 0 0 5.3294,3.55777 17.120664,17.122575 0 0 0 12.6573,0 15.988169,15.989954 0 0 0 5.3294,-3.55777 14.136206,14.137784 0 0 0 2.5981,-3.50445 15.828287,15.830054 0 0 0 1.4255,-4.42389 40.876418,40.88098 0 0 0 0.613,-6.07619 c 0.08,-2.33186 0.1332,-5.15675 0.1332,-8.44802 0,-3.29126 0,-6.11616 -0.1332,-8.46135 a 40.863094,40.867656 0 0 0 -0.613,-6.06286 15.681729,15.683479 0 0 0 -1.4255,-4.42388 14.136206,14.137784 0 0 0 -2.5981,-3.50447 15.748346,15.750104 0 0 0 -5.3294,-3.55776 17.120664,17.122575 0 0 0 -12.6573,0 15.814963,15.816729 0 0 0 -5.3294,3.55776 14.136206,14.137784 0 0 0 -2.598,3.50447 15.681729,15.683479 0 0 0 -1.4257,4.42388 40.863094,40.867656 0 0 0 -0.6129,6.06286 q -0.1332,3.51778 -0.1199,8.46135 z"
         id="path30"
         style="stroke-width:1.33242;stroke:#000000;stroke-opacity:1;fill:none" />
      <path
         class="cls-1"
         d="m 1028.8397,333.22942 a 16.094756,16.096553 0 0 1 1.4256,-6.80906 14.895644,14.897306 0 0 1 3.997,-5.17009 18.812745,18.814845 0 0 1 1.9985,-1.42577 13.110298,13.111762 0 0 1 2.2917,-1.13263 20.757973,20.760289 0 0 1 2.9044,-0.82614 c 1.1059,-0.22653 2.3717,-0.46638 3.8239,-0.6929 l 6.6618,-1.03934 a 24.102165,24.104855 0 0 0 5.0629,-1.4391 14.815703,14.817357 0 0 0 4.1169,-2.38516 q 3.211,-2.665 3.211,-8.07494 a 11.991127,11.992465 0 0 0 -3.7706,-9.32747 q -3.7705,-3.43784 -10.5255,-3.43784 a 24.96819,24.970977 0 0 0 -4.943,0.43973 19.225773,19.227919 0 0 0 -3.9037,1.1726 16.627696,16.629551 0 0 0 -3.2111,1.77221 34.867531,34.871423 0 0 0 -2.9444,2.34519 l -3.0378,-3.03808 a 27.88603,27.889144 0 0 1 7.9941,-5.02351 27.099946,27.102972 0 0 1 9.7528,-1.57235 q 8.94,0 14.043,4.55714 a 15.708376,15.710129 0 0 1 5.1162,12.35223 14.016295,14.017859 0 0 1 -4.8498,11.36619 21.21097,21.213339 0 0 1 -10.9919,4.50385 l -7.1946,1.11929 c -1.3324,0.18656 -2.3317,0.3731 -3.1977,0.57297 a 19.758712,19.760917 0 0 0 -2.3049,0.65293 7.5544096,7.555253 0 0 0 -1.772,0.86612 c -0.5197,0.34645 -1.0792,0.74619 -1.6522,1.21256 a 11.058483,11.059718 0 0 0 -3.3842,8.66124 11.284983,11.286242 0 0 0 4.2503,9.40741 c 2.8378,2.22528 6.6617,3.34457 11.6181,3.34457 a 34.814237,34.818124 0 0 0 5.0762,-0.34645 18.453011,18.455071 0 0 0 4.3701,-1.21257 21.650645,21.653062 0 0 0 3.9971,-2.25192 33.428596,33.432328 0 0 0 3.9969,-3.47781 l 3.3042,3.3046 a 33.428596,33.432328 0 0 1 -4.2901,3.6377 23.249462,23.252057 0 0 1 -4.6899,2.5584 24.515191,24.517929 0 0 1 -5.3294,1.46574 37.612167,37.616366 0 0 1 -6.2886,0.47969 q -9.6862,0 -15.2554,-4.5971 a 15.401935,15.403655 0 0 1 -5.4759,-12.51213 z"
         id="path32"
         style="stroke-width:1.33242;stroke:#000000;stroke-opacity:1;fill:none" />
      <path
         class="cls-1"
         d="m 931.1786,349.81899 v -61.73454 h 4.6365 v 61.73454 z"
         id="path34"
         style="stroke-width:1.33242;stroke:#000000;stroke-opacity:1;fill:none" />
      <path
         class="cls-1"
         d="m 797.0911,292.25516 v -4.17071 h 41.5294 v 4.17071 h -18.3732 v 57.56383 h -4.6898 v -57.56383 z"
         id="path36"
         style="stroke-width:1.33242;stroke:#000000;stroke-opacity:1;fill:none" />
      <path
         class="cls-1"
         d="m 679.27168,349.81899 14.90896,-28.51543 a 17.467074,17.469024 0 0 1 -10.35233,-5.42325 16.174697,16.176503 0 0 1 -3.86381,-11.23294 17.853455,17.855449 0 0 1 1.33235,-7.10221 14.216147,14.217734 0 0 1 3.73057,-5.21005 16.188021,16.189828 0 0 1 5.63583,-3.15803 21.970408,21.972861 0 0 1 6.9815,-1.09263 h 23.48929 v 61.73454 h -4.68987 v -28.43547 h -16.97411 l -14.73575,28.43547 z m 5.32939,-45.07835 a 14.309411,14.311008 0 0 0 0.98593,5.54319 10.498897,10.500069 0 0 0 2.82458,3.90421 11.351599,11.352867 0 0 0 4.33013,2.2919 19.332361,19.334519 0 0 0 5.46263,0.7462 h 18.19986 v -24.97098 h -18.14657 a 19.345684,19.347844 0 0 0 -5.46262,0.73286 11.378246,11.379517 0 0 0 -4.33014,2.30522 10.445603,10.446769 0 0 0 -2.82457,3.8909 14.322735,14.324333 0 0 0 -0.98593,5.5565 z"
         id="path38"
         style="stroke-width:1.33242;stroke:#000000;stroke-opacity:1;fill:none" />
      <path
         class="cls-1"
         d="m 565.42259,349.81899 v -4.15739 h 32.77575 v -24.89103 h -27.85939 v -4.15738 h 27.91269 v -24.35803 h -32.82905 v -4.17071 h 37.45229 v 61.73454 z"
         id="path40"
         style="stroke-width:1.33242;stroke:#000000;stroke-opacity:1;fill:none" />
      <path
         class="cls-1"
         d="m 450.56093,333.22942 a 16.094756,16.096553 0 0 1 1.42561,-6.80906 14.895644,14.897306 0 0 1 3.99704,-5.17009 18.812745,18.814845 0 0 1 1.99852,-1.42577 12.790535,12.791963 0 0 1 2.30496,-1.13263 20.544797,20.54709 0 0 1 2.8912,-0.82614 c 1.10585,-0.22653 2.37158,-0.46638 3.82383,-0.6929 l 6.66174,-1.03934 a 24.102165,24.104855 0 0 0 5.06293,-1.4391 15.095496,15.09718 0 0 0 4.13026,-2.38516 q 3.19764,-2.665 3.19764,-8.07494 a 11.991127,11.992465 0 0 0 -3.77054,-9.32747 c -2.50481,-2.29189 -6.02221,-3.43784 -10.52555,-3.43784 a 24.96819,24.970977 0 0 0 -4.94301,0.43973 19.225773,19.227919 0 0 0 -3.98371,1.11929 16.627696,16.629551 0 0 0 -3.21096,1.77222 34.867531,34.871423 0 0 0 -2.94448,2.3452 l -3.03777,-3.0381 a 27.88603,27.889144 0 0 1 7.99409,-5.02351 27.099946,27.102972 0 0 1 9.75278,-1.57234 q 8.94006,0 14.04295,4.55713 a 15.708376,15.710129 0 0 1 5.11622,12.35225 14.016295,14.017859 0 0 1 -4.84975,11.36619 21.21097,21.213339 0 0 1 -11.01851,4.50383 l -7.19468,1.11931 c -1.26573,0.18654 -2.33161,0.37308 -3.19763,0.57297 a 20.544797,20.54709 0 0 0 -2.30497,0.65291 7.5544096,7.555253 0 0 0 -1.77202,0.86613 c -0.51961,0.34645 -1.06588,0.7462 -1.6521,1.21257 a 11.058483,11.059718 0 0 0 -3.38417,8.66122 11.284983,11.286242 0 0 0 4.25019,9.40743 c 2.83789,2.22527 6.66174,3.34457 11.61806,3.34457 a 34.814237,34.818124 0 0 0 5.07625,-0.34645 18.453011,18.455071 0 0 0 4.3701,-1.21257 21.650645,21.653062 0 0 0 3.99704,-2.25192 33.428596,33.432328 0 0 0 3.99705,-3.47782 l 3.30422,3.30459 a 33.428596,33.432328 0 0 1 -4.29016,3.63772 23.249462,23.252057 0 0 1 -4.68987,2.55838 24.515191,24.517929 0 0 1 -5.32938,1.46575 37.452285,37.456466 0 0 1 -6.27536,0.4797 q -9.71281,0 -15.2687,-4.59712 a 15.401935,15.403655 0 0 1 -5.36936,-12.45882 z"
         id="path42"
         style="stroke-width:1.33242;stroke:#000000;stroke-opacity:1;fill:none" />
      <path
         class="cls-1"
         d="m 334.08711,318.95838 q 0,-5.19673 0.08,-8.98103 a 39.051102,39.055461 0 0 1 0.65285,-6.66248 18.652864,18.654946 0 0 1 1.73205,-5.11678 18.119924,18.121947 0 0 1 3.25093,-4.34394 21.544057,21.546463 0 0 1 7.02147,-4.67707 22.210231,22.21271 0 0 1 16.81423,0 21.317558,21.319938 0 0 1 7.02146,4.67707 17.440427,17.442374 0 0 1 3.25093,4.34394 19.105861,19.107995 0 0 1 1.74538,5.11678 39.15769,39.16206 0 0 1 0.63953,6.66248 q 0.0933,3.77097 0.0933,8.98103 c 0,3.46449 0,6.47593 -0.0933,9.00768 a 39.717275,39.721709 0 0 1 -0.63953,6.66247 18.413041,18.415097 0 0 1 -1.74538,5.06349 17.467074,17.469024 0 0 1 -3.25093,4.29064 21.317558,21.319938 0 0 1 -7.02146,4.69038 22.383436,22.385934 0 0 1 -16.81423,0 21.570704,21.573112 0 0 1 -7.02147,-4.69038 16.907488,16.909376 0 0 1 -4.98298,-9.32747 39.610688,39.615109 0 0 1 -0.65285,-6.6625 c -0.0533,-2.55838 -0.08,-5.56982 -0.08,-9.03431 z m 4.67654,0 c 0,3.29127 0,6.11616 0.13324,8.44802 a 42.914909,42.9197 0 0 0 0.59956,6.07619 16.267962,16.269777 0 0 0 1.43893,4.42389 13.496679,13.498185 0 0 0 2.59808,3.50445 15.881581,15.883354 0 0 0 5.32939,3.55777 17.120664,17.122575 0 0 0 12.6573,0 15.988169,15.989954 0 0 0 5.32939,-3.55777 14.136206,14.137784 0 0 0 2.66469,-3.50445 16.281285,16.283102 0 0 0 1.42561,-4.42389 42.741705,42.746475 0 0 0 0.61288,-6.07619 c 0.0799,-2.33186 0.13324,-5.15675 0.13324,-8.44802 0,-3.29126 0,-6.11616 -0.13324,-8.46135 a 42.741705,42.746475 0 0 0 -0.61288,-6.06286 16.121403,16.123204 0 0 0 -1.42561,-4.42388 14.136206,14.137784 0 0 0 -2.66469,-3.50447 15.748346,15.750104 0 0 0 -5.32939,-3.55776 17.120664,17.122575 0 0 0 -12.6573,0 15.695053,15.696804 0 0 0 -5.32939,3.55776 13.496679,13.498185 0 0 0 -2.59808,3.50447 16.121403,16.123204 0 0 0 -1.43893,4.42388 42.914909,42.9197 0 0 0 -0.59956,6.06286 q -0.13324,3.51778 -0.13324,8.46135 z"
         id="path44"
         style="stroke-width:1.33242;stroke:#000000;stroke-opacity:1;fill:none" />
      <path
         class="cls-1"
         d="m 214.78874,349.81899 22.71651,-61.73454 h 4.15693 l 22.71652,61.73454 h -5.03627 l -5.32939,-14.99059 h -28.7787 l -5.32939,14.99059 z m 11.87121,-19.1613 h 25.83421 L 239.58372,294.3605 Z"
         id="path46"
         style="stroke-width:1.33242;stroke:#000000;stroke-opacity:1;fill:none" />
      <path
         class="cls-1"
         d="m 98.00849,349.81899 v -61.73454 h 4.67654 l 20.98446,47.58343 21.49077,-47.61008 h 4.68986 v 61.73454 h -4.68986 v -50.86138 l -19.0659,42.21347 h -4.68985 l -18.71948,-42.21347 v 50.88803 z"
         id="path48"
         style="stroke-width:1.33242;stroke:#000000;stroke-opacity:1;fill:none" />
      <path
         class="cls-1"
         d="m 1259.1493,459.59002 h 4.5965 a 17.853455,17.855449 0 0 0 5.7691,10.14029 15.868257,15.870029 0 0 0 10.6588,3.73099 17.080693,17.0826 0 0 0 6.3286,-1.21257 16.068109,16.069903 0 0 0 5.3294,-3.55776 14.1895,14.191083 0 0 0 2.6647,-3.5178 16.587725,16.589577 0 0 0 1.4256,-4.42389 42.528529,42.533276 0 0 0 0.6129,-6.06285 q 0.1199,-3.51778 0.1199,-8.44802 c 0,-3.3046 0,-6.11616 -0.1199,-8.46135 a 42.528529,42.533276 0 0 0 -0.6129,-6.06287 16.587725,16.589577 0 0 0 -1.4256,-4.42388 14.442645,14.444258 0 0 0 -2.6647,-3.51779 15.84161,15.843379 0 0 0 -5.3294,-3.54443 16.827547,16.829425 0 0 0 -6.3286,-1.2259 15.508523,15.510255 0 0 0 -10.5256,3.73099 18.106601,18.108622 0 0 0 -5.6891,10.14029 h -4.7698 a 25.647687,25.65055 0 0 1 2.6647,-7.48863 20.691355,20.693665 0 0 1 4.3835,-5.7697 19.385655,19.387818 0 0 1 6.1954,-3.59774 22.943022,22.945584 0 0 1 7.6742,-1.25256 21.650645,21.653062 0 0 1 8.4072,1.6523 21.051089,21.053439 0 0 1 7.0214,4.67706 17.720221,17.722199 0 0 1 3.2509,4.33062 18.799421,18.80152 0 0 1 1.7321,5.11678 37.758725,37.762939 0 0 1 0.6529,6.66248 c 0,2.51842 0.093,5.50321 0.093,8.98102 0,3.47782 0,6.46261 -0.093,9.00768 a 37.985224,37.989464 0 0 1 -0.6529,6.66248 16.880841,16.882726 0 0 1 -4.983,9.32747 21.051089,21.053439 0 0 1 -7.0214,4.67707 21.650645,21.653062 0 0 1 -8.4072,1.65229 22.569965,22.572485 0 0 1 -7.581,-1.25254 19.798682,19.800893 0 0 1 -6.2487,-3.59774 20.331621,20.333891 0 0 1 -4.5433,-5.68977 25.647687,25.65055 0 0 1 -2.5847,-7.38202 z"
         id="path50"
         style="stroke-width:1.33242;stroke:#000000;stroke-opacity:1;fill:none" />
      <path
         class="cls-1"
         d="M 1143.6613,457.03162 V 415.3245 h 4.6766 v 41.09418 a 19.838652,19.840867 0 0 0 1.1725,6.98227 14.655822,14.657457 0 0 0 8.5403,8.8078 19.465595,19.467769 0 0 0 13.5233,0 14.735762,14.737408 0 0 0 8.5404,-8.8078 20.145092,20.147342 0 0 0 1.1724,-6.98227 V 415.3245 h 4.6766 v 41.70712 a 21.477439,21.479837 0 0 1 -1.5588,8.2748 18.999274,19.001395 0 0 1 -4.3835,6.50259 19.985211,19.987442 0 0 1 -6.6617,4.25066 24.768338,24.771103 0 0 1 -17.0807,0 20.065152,20.067391 0 0 1 -6.6617,-4.25066 19.145832,19.147969 0 0 1 -4.3701,-6.50259 21.477439,21.479837 0 0 1 -1.5856,-8.2748 z"
         id="path52"
         style="stroke-width:1.33242;stroke:#000000;stroke-opacity:1;fill:none" />
      <path
         class="cls-1"
         d="m 1024.3763,477.05904 22.6499,-61.73454 h 4.157 l 22.7164,61.73454 h -5.0362 l -5.3294,-15.00391 h -28.7787 l -5.3294,15.00391 z m 11.8712,-19.1613 h 25.8342 l -12.9104,-36.32384 z"
         id="path54"
         style="stroke-width:1.33242;stroke:#000000;stroke-opacity:1;fill:none" />
      <path
         class="cls-1"
         d="m 912.7522,419.48189 v -4.15739 h 41.5293 v 4.15739 h -18.3864 v 57.57715 h -4.6766 v -57.57715 z"
         id="path56"
         style="stroke-width:1.33242;stroke:#000000;stroke-opacity:1;fill:none" />
      <path
         class="cls-1"
         d="m 794.9328,477.05904 14.9089,-28.52874 a 17.427103,17.429049 0 0 1 -10.3657,-5.42326 16.121403,16.123204 0 0 1 -3.8504,-11.21962 17.653603,17.655573 0 0 1 1.3323,-7.11553 14.136206,14.137784 0 0 1 3.7306,-5.19673 16.49446,16.496301 0 0 1 5.6225,-3.17134 22.09032,22.092786 0 0 1 6.9815,-1.07932 h 23.4893 v 61.73454 h -4.6766 v -28.43546 h -16.9741 l -14.7358,28.43546 z m 5.3294,-45.09167 a 14.082912,14.084484 0 0 0 0.9992,5.55652 10.352339,10.353495 0 0 0 2.8246,3.9042 11.538129,11.539416 0 0 0 4.3301,2.2919 19.279067,19.281218 0 0 0 5.4626,0.73287 h 18.1999 v -24.97097 h -18.1599 a 19.265743,19.267893 0 0 0 -5.4627,0.7462 11.538129,11.539416 0 0 0 -4.3301,2.29188 10.352339,10.353495 0 0 0 -2.8246,3.90422 14.056265,14.057833 0 0 0 -0.9991,5.54318 z"
         id="path58"
         style="stroke-width:1.33242;stroke:#000000;stroke-opacity:1;fill:none" />
      <path
         class="cls-1"
         d="m 681.0437,446.26506 c 0,-3.47781 0,-6.46261 0.0933,-8.98102 a 39.077749,39.082111 0 0 1 0.65285,-6.66248 18.799421,18.80152 0 0 1 1.73204,-5.1168 17.720221,17.722199 0 0 1 3.25093,-4.3306 21.197647,21.200014 0 0 1 7.02148,-4.67706 22.210231,22.21271 0 0 1 16.81422,0 21.197647,21.200014 0 0 1 7.02147,4.67706 17.720221,17.722199 0 0 1 3.25092,4.3306 18.799421,18.80152 0 0 1 1.73206,5.1168 37.758725,37.762939 0 0 1 0.65285,6.66248 c 0,2.51841 0.0933,5.50321 0.0933,8.98102 0,3.4778 0,6.46261 -0.0933,9.00767 a 37.985224,37.989464 0 0 1 -0.65285,6.66247 16.880841,16.882726 0 0 1 -4.98298,9.32748 21.197647,21.200014 0 0 1 -7.02147,4.67706 22.210231,22.21271 0 0 1 -16.81422,0 21.197647,21.200014 0 0 1 -7.02148,-4.67706 16.880841,16.882726 0 0 1 -4.98297,-9.32748 39.304248,39.308635 0 0 1 -0.65285,-6.66247 c -0.0533,-2.61169 -0.0933,-5.60981 -0.0933,-9.00767 z m 4.68987,0 q 0,4.94355 0.13323,8.44802 a 40.836447,40.841006 0 0 0 0.59956,6.06286 16.121403,16.123204 0 0 0 1.43893,4.42388 13.563297,13.564811 0 0 0 2.6647,3.5178 15.881581,15.883354 0 0 0 5.32938,3.55776 17.120664,17.122575 0 0 0 12.65731,0 15.881581,15.883354 0 0 0 5.32939,-3.55776 13.92303,13.924585 0 0 0 2.66469,-3.5178 16.587725,16.589577 0 0 0 1.42561,-4.42388 42.528529,42.533276 0 0 0 0.61288,-6.06286 q 0.11992,-3.51779 0.11992,-8.44802 c 0,-3.3046 0,-6.11616 -0.11992,-8.46136 a 42.528529,42.533276 0 0 0 -0.61288,-6.06285 16.587725,16.589577 0 0 0 -1.42561,-4.42389 14.162853,14.164433 0 0 0 -2.66469,-3.51778 15.655082,15.65683 0 0 0 -5.32939,-3.54445 16.947459,16.94935 0 0 0 -12.65731,0 15.655082,15.65683 0 0 0 -5.32938,3.54445 13.776472,13.77801 0 0 0 -2.6647,3.51778 16.121403,16.123204 0 0 0 -1.43893,4.42389 40.836447,40.841006 0 0 0 -0.59956,6.06285 c -0.0933,2.27857 -0.13323,5.09014 -0.13323,8.46136 z"
         id="path60"
         style="stroke-width:1.33242;stroke:#000000;stroke-opacity:1;fill:none" />
      <path
         class="cls-1"
         d="m 565.22274,459.59002 h 4.5966 a 17.773514,17.775498 0 0 0 5.75574,10.14029 15.868257,15.870029 0 0 0 10.65878,3.73099 17.0274,17.029301 0 0 0 6.32865,-1.21257 15.988169,15.989954 0 0 0 5.32939,-3.55776 14.1895,14.191083 0 0 0 2.66469,-3.5178 15.681729,15.683479 0 0 0 1.42562,-4.42389 42.528529,42.533276 0 0 0 0.61287,-6.06285 c 0.0799,-2.34519 0.13324,-5.15676 0.13324,-8.44802 0,-3.29127 0,-6.11616 -0.13324,-8.46135 a 42.528529,42.533276 0 0 0 -0.61287,-6.06287 15.681729,15.683479 0 0 0 -1.42562,-4.42388 14.442645,14.444258 0 0 0 -2.66469,-3.51779 15.708376,15.710129 0 0 0 -5.32939,-3.54443 16.774253,16.776126 0 0 0 -6.32865,-1.2259 15.535171,15.536905 0 0 0 -10.52555,3.73099 18.013337,18.015347 0 0 0 -5.67579,10.14029 h -4.76981 a 25.3146,25.317426 0 0 1 2.59808,-7.48863 20.691355,20.693665 0 0 1 4.50334,-5.68976 19.319037,19.321194 0 0 1 6.20873,-3.59774 22.809787,22.812334 0 0 1 7.661,-1.25254 21.717263,21.719686 0 0 1 8.42044,1.6523 21.317558,21.319938 0 0 1 7.02147,4.67706 18.053308,18.055323 0 0 1 3.25092,4.3306 19.265743,19.267893 0 0 1 1.73206,5.1168 40.490037,40.494557 0 0 1 0.65285,6.66248 c 0,2.51841 0.0799,5.50321 0.0799,8.98102 0,3.4778 0,6.46261 -0.0799,9.00767 a 40.716536,40.721082 0 0 1 -0.65285,6.66247 18.652864,18.654946 0 0 1 -1.73206,5.07682 18.426364,18.428422 0 0 1 -3.25092,4.29064 21.317558,21.319938 0 0 1 -7.02147,4.67706 21.717263,21.719686 0 0 1 -8.42044,1.65229 22.649906,22.652434 0 0 1 -7.58105,-1.25254 19.585507,19.587693 0 0 1 -6.23539,-3.59774 20.145092,20.147342 0 0 1 -4.55663,-5.68976 25.3146,25.317426 0 0 1 -2.63805,-7.50195 z"
         id="path62"
         style="stroke-width:1.33242;stroke:#000000;stroke-opacity:1;fill:none" />
      <path
         class="cls-1"
         d="M 468.54762,477.05904 V 415.3245 h 4.67654 v 61.73454 z"
         id="path64"
         style="stroke-width:1.33242;stroke:#000000;stroke-opacity:1;fill:none" />
      <path
         class="cls-1"
         d="M 332.74145,477.05904 V 415.3245 h 4.67653 v 53.49972 l 35.62698,-53.49972 h 4.68985 v 61.73454 h -4.68985 V 423.3861 l -35.62698,53.67294 z"
         id="path66"
         style="stroke-width:1.33242;stroke:#000000;stroke-opacity:1;fill:none" />
      <path
         class="cls-1"
         d="m 218.25284,459.59002 h 4.5966 a 17.786837,17.788823 0 0 0 5.76906,10.14029 15.84161,15.843379 0 0 0 10.65877,3.73099 17.080693,17.0826 0 0 0 6.32866,-1.21257 15.988169,15.989954 0 0 0 5.32938,-3.55776 13.869736,13.871285 0 0 0 2.66471,-3.5178 16.121403,16.123204 0 0 0 1.43893,-4.42389 42.715058,42.719826 0 0 0 0.59956,-6.06285 q 0.13323,-3.51778 0.13323,-8.44802 c 0,-3.3046 0,-6.11616 -0.13323,-8.46135 a 42.715058,42.719826 0 0 0 -0.59956,-6.06287 16.121403,16.123204 0 0 0 -1.43893,-4.42388 14.109559,14.111134 0 0 0 -2.66471,-3.51779 15.788316,15.790078 0 0 0 -5.32938,-3.54443 16.827547,16.829425 0 0 0 -6.32866,-1.2259 15.535171,15.536905 0 0 0 -10.53886,3.73099 18.013337,18.015347 0 0 0 -5.6758,10.14029 h -4.7698 a 25.3146,25.317426 0 0 1 2.59808,-7.48863 20.491502,20.493791 0 0 1 4.51665,-5.68976 19.105861,19.107995 0 0 1 6.19542,-3.59774 22.889728,22.892283 0 0 1 7.67431,-1.25254 21.690616,21.693036 0 0 1 8.40712,1.6523 21.317558,21.319938 0 0 1 7.02147,4.67706 18.053308,18.055323 0 0 1 3.25093,4.3306 19.265743,19.267893 0 0 1 1.73205,5.1168 40.490037,40.494557 0 0 1 0.65285,6.66248 c 0,2.51841 0.0799,5.50321 0.0799,8.98102 0,3.4778 0,6.46261 -0.0799,9.00767 a 40.716536,40.721082 0 0 1 -0.65285,6.66247 18.652864,18.654946 0 0 1 -1.73205,5.07682 18.426364,18.428422 0 0 1 -3.25093,4.29064 21.317558,21.319938 0 0 1 -7.02147,4.67706 21.690616,21.693036 0 0 1 -8.40712,1.65229 22.649906,22.652434 0 0 1 -7.59437,-1.25254 19.732065,19.734267 0 0 1 -6.23538,-3.59774 20.145092,20.147342 0 0 1 -4.55663,-5.68976 25.3146,25.317426 0 0 1 -2.63805,-7.50195 z"
         id="path68"
         style="stroke-width:1.33242;stroke:#000000;stroke-opacity:1;fill:none" />
      <path
         class="cls-1"
         d="m 102.76497,446.26506 c 0,-3.47781 0,-6.46261 0.0933,-8.98102 a 39.077749,39.082111 0 0 1 0.65285,-6.66248 18.799421,18.80152 0 0 1 1.73205,-5.1168 17.720221,17.722199 0 0 1 3.25093,-4.3306 21.197647,21.200014 0 0 1 7.02147,-4.67706 22.210231,22.21271 0 0 1 16.81423,0 21.197647,21.200014 0 0 1 7.02146,4.67706 17.720221,17.722199 0 0 1 3.25093,4.3306 18.799421,18.80152 0 0 1 1.73206,5.1168 37.758725,37.762939 0 0 1 0.65285,6.66248 c 0.0666,2.51841 0.0933,5.50321 0.0933,8.98102 0,3.4778 0,6.46261 -0.0933,9.00767 a 37.985224,37.989464 0 0 1 -0.65285,6.66247 16.880841,16.882726 0 0 1 -4.98299,9.32748 21.197647,21.200014 0 0 1 -7.02146,4.67706 22.210231,22.21271 0 0 1 -16.81423,0 21.197647,21.200014 0 0 1 -7.02147,-4.67706 16.880841,16.882726 0 0 1 -4.98298,-9.32748 39.304248,39.308635 0 0 1 -0.65285,-6.66247 c -0.0533,-2.61169 -0.0933,-5.60981 -0.0933,-9.00767 z m 4.68985,0 q 0,4.94355 0.13324,8.44802 a 40.836447,40.841006 0 0 0 0.59956,6.06286 16.587725,16.589577 0 0 0 1.42561,4.42388 13.92303,13.924585 0 0 0 2.6647,3.5178 15.881581,15.883354 0 0 0 5.32938,3.55776 17.120664,17.122575 0 0 0 12.65731,0 15.881581,15.883354 0 0 0 5.32938,-3.55776 13.92303,13.924585 0 0 0 2.6647,-3.5178 16.587725,16.589577 0 0 0 1.42561,-4.42388 42.528529,42.533276 0 0 0 0.61288,-6.06286 q 0.11992,-3.51779 0.11992,-8.44802 c 0,-3.3046 0,-6.11616 -0.11992,-8.46136 a 42.528529,42.533276 0 0 0 -0.61288,-6.06285 16.587725,16.589577 0 0 0 -1.42561,-4.42389 14.162853,14.164433 0 0 0 -2.6647,-3.51778 15.655082,15.65683 0 0 0 -5.32938,-3.54445 16.947459,16.94935 0 0 0 -12.65731,0 15.655082,15.65683 0 0 0 -5.32938,3.54445 14.162853,14.164433 0 0 0 -2.6647,3.51778 16.587725,16.589577 0 0 0 -1.42561,4.42389 40.836447,40.841006 0 0 0 -0.59956,6.06285 c -0.0933,2.27857 -0.13324,5.09014 -0.13324,8.46136 z"
         id="path70"
         style="stroke-width:1.33242;stroke:#000000;stroke-opacity:1;fill:none" />
      <path
         class="cls-1"
         d="m 1260.1485,587.70952 a 15.988169,15.989954 0 0 1 1.4389,-6.82238 14.415998,14.417608 0 0 1 3.997,-5.15676 20.891207,20.893539 0 0 1 1.9853,-1.4391 13.736501,13.738035 0 0 1 2.305,-1.13261 20.331621,20.333891 0 0 1 2.9044,-0.81284 c 1.0926,-0.23985 2.3717,-0.46637 3.8106,-0.70622 l 6.6617,-1.03934 a 24.408604,24.411329 0 0 0 5.0762,-1.42577 15.575141,15.576879 0 0 0 4.117,-2.38517 c 2.1318,-1.79887 3.211,-4.49052 3.211,-8.08825 a 11.991127,11.992465 0 0 0 -3.7706,-9.32747 c -2.5181,-2.29189 -6.0355,-3.42452 -10.5388,-3.42452 a 25.114749,25.117552 0 0 0 -4.9431,0.4264 20.384915,20.387191 0 0 0 -3.9037,1.1726 17.826808,17.828798 0 0 0 -3.211,1.77222 37.132522,37.136667 0 0 0 -2.9444,2.34518 l -3.0245,-3.03808 a 27.76612,27.769219 0 0 1 7.9941,-5.01018 26.820153,26.823147 0 0 1 9.7527,-1.57235 q 8.9401,0 14.0563,4.54381 a 15.708376,15.710129 0 0 1 5.1029,12.36556 14.002971,14.004534 0 0 1 -4.8498,11.35286 21.157676,21.160038 0 0 1 -11.0052,4.50385 l -7.1946,1.13262 c -1.3323,0.17323 -2.3449,0.35977 -3.211,0.55965 a 23.822371,23.825031 0 0 0 -2.3049,0.65292 7.8208792,7.8217521 0 0 0 -1.772,0.86612 c -0.5197,0.34645 -1.0659,0.74621 -1.6522,1.21258 a 11.058483,11.059718 0 0 0 -3.3708,8.67454 11.271659,11.272917 0 0 0 4.2502,9.40742 c 2.8245,2.22528 6.6617,3.33124 11.6047,3.33124 a 33.042215,33.045903 0 0 0 5.0763,-0.34645 17.946719,17.948723 0 0 0 4.3834,-1.21256 20.438209,20.44049 0 0 0 3.997,-2.25193 31.230223,31.233709 0 0 0 3.9971,-3.46449 l 3.2909,3.29128 a 32.535924,32.539556 0 0 1 -4.2902,3.6377 23.515931,23.518557 0 0 1 -4.6765,2.5584 25.554423,25.557276 0 0 1 -5.3294,1.47908 37.732078,37.73629 0 0 1 -6.2887,0.47969 q -9.7128,0 -15.2554,-4.61044 a 15.361966,15.36368 0 0 1 -5.4759,-12.49881 z"
         id="path72"
         style="stroke-width:1.33242;stroke:#000000;stroke-opacity:1;fill:none" />
      <path
         class="cls-1"
         d="m 1143.7546,604.2991 v -4.17071 h 32.7758 v -24.87771 h -27.9793 v -4.15739 h 27.9793 v -24.37135 h -32.7758 v -4.15738 h 37.4523 v 61.73454 z"
         id="path74"
         style="stroke-width:1.33242;stroke:#000000;stroke-opacity:1;fill:none" />
      <path
         class="cls-1"
         d="m 1046.8263,604.2991 v -61.73454 h 4.6899 v 61.73454 z"
         id="path76"
         style="stroke-width:1.33242;stroke:#000000;stroke-opacity:1;fill:none" />
      <path
         class="cls-1"
         d="m 913.1653,587.70952 a 15.988169,15.989954 0 0 1 1.4389,-6.82238 14.415998,14.417608 0 0 1 3.9971,-5.15676 19.492242,19.494418 0 0 1 1.9984,-1.4391 13.589944,13.59146 0 0 1 2.2917,-1.13261 20.851236,20.853565 0 0 1 2.9045,-0.81284 c 1.0925,-0.23985 2.3716,-0.46637 3.8105,-0.70622 l 6.6618,-1.03934 a 24.408604,24.411329 0 0 0 5.0762,-1.42577 15.361966,15.36368 0 0 0 4.117,-2.38517 q 3.2109,-2.66499 3.2109,-8.08825 a 11.991127,11.992465 0 0 0 -3.7705,-9.32747 c -2.5182,-2.29189 -6.0355,-3.42452 -10.5389,-3.42452 a 25.114749,25.117552 0 0 0 -4.943,0.4264 20.384915,20.387191 0 0 0 -3.9038,1.1726 17.706897,17.708874 0 0 0 -3.1976,1.77222 35.000765,35.004673 0 0 0 -2.9578,2.34518 l -3.0245,-3.03808 a 27.646208,27.649295 0 0 1 7.9941,-5.01018 26.713565,26.716547 0 0 1 9.7528,-1.57235 q 8.9134,0 14.043,4.54381 a 15.708376,15.710129 0 0 1 5.1162,12.36556 14.016295,14.017859 0 0 1 -4.8631,11.35286 21.157676,21.160038 0 0 1 -11.0051,4.50385 l -7.1947,1.13262 c -1.3324,0.17323 -2.345,0.35977 -3.211,0.55965 a 22.450054,22.45256 0 0 0 -2.2916,0.65292 7.6609975,7.6618526 0 0 0 -1.7854,0.86612 c -0.5196,0.34645 -1.0659,0.74621 -1.6387,1.21258 a 11.018513,11.019743 0 0 0 -3.3843,8.67454 11.271659,11.272917 0 0 0 4.2503,9.40742 c 2.8245,2.22528 6.6617,3.33124 11.6047,3.33124 a 33.042215,33.045903 0 0 0 5.0762,-0.34645 17.946719,17.948723 0 0 0 4.3834,-1.21256 20.438209,20.44049 0 0 0 3.9971,-2.25193 31.230223,31.233709 0 0 0 3.997,-3.46449 l 3.291,3.29128 a 32.535924,32.539556 0 0 1 -4.2903,3.6377 23.515931,23.518557 0 0 1 -4.6764,2.5584 25.554423,25.557276 0 0 1 -5.3295,1.47908 37.612167,37.616366 0 0 1 -6.2887,0.47969 q -9.7128,0 -15.2554,-4.61044 a 15.361966,15.36368 0 0 1 -5.4625,-12.49881 z"
         id="path78"
         style="stroke-width:1.33242;stroke:#000000;stroke-opacity:1;fill:none" />
      <path
         class="cls-1"
         d="m 793.0675,604.2991 22.6498,-61.73454 h 4.1837 l 22.7164,61.73454 h -4.9962 l -5.3294,-15.00392 h -28.7787 l -5.3294,15.00392 z m 11.8711,-19.1613 h 25.8343 l -12.9104,-36.27054 z"
         id="path80"
         style="stroke-width:1.33242;stroke:#000000;stroke-opacity:1;fill:none" />
      <path
         class="cls-1"
         d="m 681.86976,587.70952 a 15.988169,15.989954 0 0 1 1.43893,-6.82238 14.415998,14.417608 0 0 1 3.99704,-5.15676 20.891207,20.893539 0 0 1 1.9852,-1.4391 13.736501,13.738035 0 0 1 2.30496,-1.13261 20.331621,20.333891 0 0 1 2.90452,-0.81284 c 1.09253,-0.23985 2.37157,-0.46637 3.81051,-0.70622 l 6.66174,-1.03934 a 24.408604,24.411329 0 0 0 5.07624,-1.42577 15.575141,15.576879 0 0 0 4.11695,-2.38517 q 3.19764,-2.66499 3.19764,-8.08825 a 11.991127,11.992465 0 0 0 -3.77054,-9.32747 c -2.50481,-2.29189 -6.02221,-3.42452 -10.52555,-3.42452 a 25.114749,25.117552 0 0 0 -4.94301,0.4264 20.384915,20.387191 0 0 0 -3.90377,1.1726 16.840871,16.84275 0 0 0 -3.19763,1.77222 35.000765,35.004673 0 0 0 -3.02444,2.34518 l -3.02442,-3.03808 a 27.76612,27.769219 0 0 1 7.99408,-5.01018 26.820153,26.823147 0 0 1 9.75278,-1.57235 q 8.92674,0 14.05627,4.54381 a 15.748346,15.750104 0 0 1 5.10289,12.36556 14.002971,14.004534 0 0 1 -4.84975,11.35286 21.157676,21.160038 0 0 1 -11.00519,4.50385 l -7.19467,1.13262 c -1.33235,0.17323 -2.34493,0.35977 -3.21096,0.55965 a 23.822371,23.825031 0 0 0 -2.30496,0.65292 7.8208792,7.8217521 0 0 0 -1.77202,0.86612 c -0.51961,0.34645 -1.06588,0.74621 -1.65211,1.21258 a 11.058483,11.059718 0 0 0 -3.37084,8.67454 11.298306,11.299567 0 0 0 4.23687,9.40742 q 4.26351,3.33124 11.61806,3.33124 a 33.042215,33.045903 0 0 0 5.07624,-0.34645 17.946719,17.948723 0 0 0 4.38343,-1.21256 20.438209,20.44049 0 0 0 3.99704,-2.25193 31.230223,31.233709 0 0 0 3.99704,-3.46449 l 3.29091,3.29128 a 32.535924,32.539556 0 0 1 -4.29017,3.6377 23.515931,23.518557 0 0 1 -4.67653,2.5584 25.554423,25.557276 0 0 1 -5.3294,1.47908 37.612167,37.616366 0 0 1 -6.16876,0.49301 q -9.71282,0 -15.25538,-4.61043 a 15.361966,15.36368 0 0 1 -5.52924,-12.51214 z"
         id="path82"
         style="stroke-width:1.33242;stroke:#000000;stroke-opacity:1;fill:none" />
      <path
         class="cls-1"
         d="m 584.2087,604.2991 v -61.73454 h 4.67653 v 61.73454 z"
         id="path84"
         style="stroke-width:1.33242;stroke:#000000;stroke-opacity:1;fill:none" />
      <path
         class="cls-1"
         d="m 449.82814,604.2991 v -4.17071 h 32.76241 v -24.87771 h -27.97928 v -4.15739 h 27.97928 v -24.37135 h -32.76241 v -4.15738 h 37.45228 v 61.73454 z"
         id="path86"
         style="stroke-width:1.33242;stroke:#000000;stroke-opacity:1;fill:none" />
      <path
         class="cls-1"
         d="m 334.4735,546.72194 v -4.15738 h 41.52927 v 4.15738 H 357.5764 v 57.57716 h -4.67653 v -57.57716 z"
         id="path88"
         style="stroke-width:1.33242;stroke:#000000;stroke-opacity:1;fill:none" />
      <path
         class="cls-1"
         d="m 218.51931,604.2991 v -4.17071 h 32.76241 v -24.87771 h -27.97928 v -4.15739 h 27.97928 v -24.37135 h -32.76241 v -4.15738 h 37.43895 v 61.73454 z"
         id="path90"
         style="stroke-width:1.33242;stroke:#000000;stroke-opacity:1;fill:none" />
      <path
         class="cls-1"
         d="m 101.43262,604.2991 v -61.73454 h 4.67653 v 53.48639 l 35.62698,-53.48639 h 4.68985 v 61.73454 h -4.68985 v -53.67295 l -35.62698,53.67295 z"
         id="path92"
         style="stroke-width:1.33242;stroke:#000000;stroke-opacity:1;fill:none" />
      <path
         class="cls-1"
         d="m 1259.3357,700.66521 q 0,-5.19673 0.08,-8.98101 a 40.476713,40.481232 0 0 1 0.6529,-6.66249 18.652864,18.654946 0 0 1 1.732,-5.11679 17.853455,17.855449 0 0 1 3.2509,-4.34394 21.544057,21.546463 0 0 1 7.0215,-4.67705 22.210231,22.21271 0 0 1 16.8142,0 21.317558,21.319938 0 0 1 7.0215,4.67705 17.520368,17.522323 0 0 1 3.2509,4.34394 18.652864,18.654946 0 0 1 1.7321,5.11679 37.732078,37.73629 0 0 1 0.6528,6.66249 q 0.093,3.78428 0.093,8.98101 c 0,3.46449 0,6.47593 -0.093,9.00768 a 38.278341,38.282614 0 0 1 -0.6528,6.66248 16.907488,16.909376 0 0 1 -4.983,9.32747 21.317558,21.319938 0 0 1 -7.0215,4.69039 22.383436,22.385934 0 0 1 -16.8142,0 21.570704,21.573112 0 0 1 -7.0215,-4.69039 16.907488,16.909376 0 0 1 -4.9829,-9.32747 41.0363,41.04088 0 0 1 -0.6529,-6.66248 c -0.053,-2.53175 -0.08,-5.54319 -0.08,-9.00768 z m 4.6766,0 c 0,3.29127 0,6.11616 0.1332,8.44803 a 41.0363,41.04088 0 0 0 0.5996,6.07619 15.988169,15.989954 0 0 0 1.439,4.41056 13.323474,13.324961 0 0 0 2.6647,3.51778 15.881581,15.883354 0 0 0 5.3293,3.55777 17.120664,17.122575 0 0 0 12.6573,0 16.068109,16.069903 0 0 0 5.3294,-3.55777 13.949677,13.951234 0 0 0 2.6647,-3.51778 15.988169,15.989954 0 0 0 1.4256,-4.41056 42.741705,42.746475 0 0 0 0.6128,-6.07619 c 0.08,-2.33187 0.12,-5.15676 0.12,-8.44803 0,-3.29126 0,-6.11615 -0.12,-8.46135 a 42.741705,42.746475 0 0 0 -0.6128,-6.06285 16.121403,16.123204 0 0 0 -1.4256,-4.42389 14.136206,14.137784 0 0 0 -2.6647,-3.50447 15.868257,15.870029 0 0 0 -5.3294,-3.55776 17.120664,17.122575 0 0 0 -12.6573,0 15.695053,15.696804 0 0 0 -5.3293,3.55776 13.496679,13.498185 0 0 0 -2.6647,3.50447 16.121403,16.123204 0 0 0 -1.439,4.42389 41.022976,41.027555 0 0 0 -0.5996,6.06285 q -0.1465,3.5178 -0.1332,8.46135 z"
         id="path94"
         style="stroke-width:1.33242;stroke:#000000;stroke-opacity:1;fill:none" />
      <path
         class="cls-1"
         d="m 1143.5015,714.01683 h 4.5965 a 17.720221,17.722199 0 0 0 5.7558,10.14029 15.80164,15.803404 0 0 0 10.6588,3.731 16.76093,16.762801 0 0 0 6.3286,-1.21258 15.988169,15.989954 0 0 0 5.3294,-3.55777 13.949677,13.951234 0 0 0 2.5981,-3.51778 15.588465,15.590204 0 0 0 1.4257,-4.41056 42.741705,42.746475 0 0 0 0.6128,-6.07619 c 0.08,-2.33187 0.1333,-5.15676 0.1333,-8.44803 0,-3.29126 0,-6.11615 -0.1333,-8.46135 a 42.741705,42.746475 0 0 0 -0.6128,-6.06285 15.681729,15.683479 0 0 0 -1.4257,-4.42389 14.136206,14.137784 0 0 0 -2.5981,-3.50447 15.748346,15.750104 0 0 0 -5.3294,-3.55776 16.76093,16.762801 0 0 0 -6.3286,-1.21257 15.521847,15.52358 0 0 0 -10.5255,3.71766 18.013337,18.015347 0 0 0 -5.6759,10.15362 h -4.7697 a 25.3146,25.317426 0 0 1 2.5981,-7.50195 20.438209,20.44049 0 0 1 4.5033,-5.67644 19.319037,19.321194 0 0 1 6.2087,-3.59773 22.490023,22.492534 0 0 1 7.661,-1.26588 21.957085,21.959536 0 0 1 8.4205,1.6523 21.544057,21.546463 0 0 1 7.0214,4.67706 17.853455,17.855449 0 0 1 3.2509,4.34394 19.105861,19.107995 0 0 1 1.7321,5.11679 40.476713,40.481232 0 0 1 0.6529,6.66247 q 0.08,3.7843 0.08,8.98103 c 0,3.46449 0,6.47593 -0.08,9.00768 a 41.0363,41.04088 0 0 1 -0.6529,6.66248 18.399718,18.401772 0 0 1 -1.7321,5.06347 18.146571,18.148597 0 0 1 -3.2509,4.29065 21.570704,21.573112 0 0 1 -7.0214,4.69038 21.943761,21.946211 0 0 1 -8.4205,1.63898 22.343466,22.34596 0 0 1 -7.581,-1.25255 19.585507,19.587693 0 0 1 -6.2354,-3.59775 19.891946,19.894167 0 0 1 -4.5566,-5.67642 25.3146,25.317426 0 0 1 -2.6381,-7.51528 z"
         id="path96"
         style="stroke-width:1.33242;stroke:#000000;stroke-opacity:1;fill:none" />
      <path
         class="cls-1"
         d="m 1028.4,731.52582 v -61.73454 h 4.6765 v 28.52874 h 32.1629 v -28.52874 h 4.6766 v 61.73454 h -4.6766 v -29.04841 h -32.1629 v 29.04841 z"
         id="path98"
         style="stroke-width:1.33242;stroke:#000000;stroke-opacity:1;fill:none" />
      <path
         class="cls-1"
         d="m 912.3658,700.66521 q 0,-5.19673 0.08,-8.98101 a 40.476713,40.481232 0 0 1 0.6529,-6.66249 19.105861,19.107995 0 0 1 1.732,-5.11679 17.853455,17.855449 0 0 1 3.2509,-4.34394 21.544057,21.546463 0 0 1 7.0748,-4.63708 22.210231,22.21271 0 0 1 16.8142,0 21.317558,21.319938 0 0 1 7.0215,4.67706 17.200605,17.202525 0 0 1 3.2509,4.34394 19.105861,19.107995 0 0 1 1.7454,5.11679 39.15769,39.16206 0 0 1 0.6395,6.66247 q 0.093,3.7843 0.093,8.98103 c 0,3.46449 0,6.47593 -0.093,9.00768 a 39.717275,39.721709 0 0 1 -0.6395,6.66248 18.413041,18.415097 0 0 1 -1.7454,5.06347 17.467074,17.469024 0 0 1 -3.2509,4.29065 21.317558,21.319938 0 0 1 -7.0215,4.69038 22.383436,22.385934 0 0 1 -16.8142,0 21.570704,21.573112 0 0 1 -7.0215,-4.69038 18.146571,18.148597 0 0 1 -3.2509,-4.29065 18.399718,18.401772 0 0 1 -1.732,-5.06347 41.0363,41.04088 0 0 1 -0.6529,-6.66248 c -0.1066,-2.57173 -0.1333,-5.58317 -0.1333,-9.04766 z m 4.6766,0 c 0,3.29127 0,6.11616 0.1332,8.44803 a 42.914909,42.9197 0 0 0 0.5995,6.07619 15.988169,15.989954 0 0 0 1.439,4.41056 13.643238,13.64476 0 0 0 2.6647,3.51778 15.988169,15.989954 0 0 0 5.3294,3.55777 17.120664,17.122575 0 0 0 12.6573,0 15.988169,15.989954 0 0 0 5.3294,-3.55777 13.949677,13.951234 0 0 0 2.6647,-3.51778 15.988169,15.989954 0 0 0 1.4256,-4.41056 42.741705,42.746475 0 0 0 0.6129,-6.07619 c 0.08,-2.33187 0.1332,-5.15676 0.1332,-8.44803 0,-3.29126 0,-6.11615 -0.1332,-8.46135 a 42.741705,42.746475 0 0 0 -0.6129,-6.06285 16.121403,16.123204 0 0 0 -1.4789,-4.42389 14.136206,14.137784 0 0 0 -2.6647,-3.50447 15.748346,15.750104 0 0 0 -5.3294,-3.55776 17.120664,17.122575 0 0 0 -12.6573,0 15.814963,15.816729 0 0 0 -5.3294,3.55776 13.803119,13.80466 0 0 0 -2.6647,3.50447 16.121403,16.123204 0 0 0 -1.4389,4.42389 42.914909,42.9197 0 0 0 -0.5996,6.06285 q -0.08,3.5178 -0.08,8.46135 z"
         id="path100"
         style="stroke-width:1.33242;stroke:#000000;stroke-opacity:1;fill:none" />
      <path
         class="cls-1"
         d="m 795.3591,731.52582 v -61.73454 h 4.6899 V 723.291 l 35.6269,-53.49972 h 4.6766 v 61.73454 h -4.6766 V 677.8662 l -35.6269,53.65962 z"
         id="path102"
         style="stroke-width:1.33242;stroke:#000000;stroke-opacity:1;fill:none" />
      <path
         class="cls-1"
         d="m 681.05703,711.49841 v -41.70713 h 4.67654 v 41.10751 a 19.758712,19.760917 0 0 0 1.17246,6.96894 14.948938,14.950607 0 0 0 3.33086,5.33 15.215407,15.217105 0 0 0 5.20948,3.42451 19.465595,19.467769 0 0 0 13.52333,0 14.655822,14.657457 0 0 0 8.54035,-8.8078 20.065152,20.067391 0 0 0 1.15914,-6.96896 v -41.0542 h 4.68987 v 41.70713 a 21.504086,21.506487 0 0 1 -1.55885,8.28812 19.25242,19.254568 0 0 1 -4.38343,6.50259 20.105122,20.107366 0 0 1 -6.66174,4.23733 24.768338,24.771103 0 0 1 -17.08069,0 20.105122,20.107366 0 0 1 -6.66174,-4.23733 19.212449,19.214594 0 0 1 -4.37009,-6.50259 21.504086,21.506487 0 0 1 -1.58549,-8.28812 z"
         id="path104"
         style="stroke-width:1.33242;stroke:#000000;stroke-opacity:1;fill:none" />
      <path
         class="cls-1"
         d="m 565.42259,731.52582 v -4.10409 h 32.77575 v -24.94432 h -27.85939 v -4.15739 h 27.91269 v -24.35803 h -32.82905 v -4.17071 h 37.45229 v 61.73454 z"
         id="path106"
         style="stroke-width:1.33242;stroke:#000000;stroke-opacity:1;fill:none" />
      <path
         class="cls-1"
         d="m 448.6157,669.79128 h 4.88972 l 17.32051,53.49972 17.32051,-53.49972 h 4.94301 l -20.27832,61.73454 h -3.99705 z"
         id="path108"
         style="stroke-width:1.33242;stroke:#000000;stroke-opacity:1;fill:none" />
      <path
         class="cls-1"
         d="m 334.16706,731.52582 v -4.10409 h 32.73577 v -24.94432 h -27.87271 v -4.15739 h 27.87271 v -24.35803 h -32.77574 v -4.17071 h 37.45228 v 61.73454 z"
         id="path110"
         style="stroke-width:1.33242;stroke:#000000;stroke-opacity:1;fill:none" />
      <path
         class="cls-1"
         d="m 216.13441,687.56678 a 18.652864,18.654946 0 0 1 1.42561,-7.54193 15.988169,15.989954 0 0 1 3.90377,-5.54318 16.840871,16.84275 0 0 1 5.88897,-3.46449 22.010379,22.012836 0 0 1 7.42119,-1.2259 h 22.6499 v 61.73454 h -4.68987 v -26.18355 h -17.96003 a 22.649906,22.652434 0 0 1 -7.42119,-1.17259 16.068109,16.069903 0 0 1 -5.88897,-3.46449 16.521108,16.522952 0 0 1 -3.90377,-5.59648 18.652864,18.654946 0 0 1 -1.42561,-7.54193 z m 4.67653,0 a 15.335319,15.33703 0 0 0 1.0792,6.02289 11.524805,11.526091 0 0 0 2.99779,4.25065 12.097714,12.099065 0 0 0 4.5433,2.51842 19.785358,19.787568 0 0 0 5.86233,0.82615 h 17.41378 v -27.2229 h -17.41378 a 19.359008,19.361169 0 0 0 -5.86233,0.82615 12.257596,12.258964 0 0 0 -4.5433,2.50509 11.751304,11.752616 0 0 0 -2.99779,4.25066 15.428582,15.430306 0 0 0 -1.0792,6.02289 z"
         id="path112"
         style="stroke-width:1.33242;stroke:#000000;stroke-opacity:1;fill:none" />
      <path
         class="cls-1"
         d="m 98.00849,731.52582 v -61.73454 h 4.67654 l 20.98446,47.61008 21.49077,-47.61008 h 4.68986 v 61.73454 h -4.68986 V 680.6378 l -19.0659,42.21348 h -4.68985 L 102.68503,680.6378 v 50.88802 z"
         id="path114"
         style="stroke-width:1.33242;stroke:#000000;stroke-opacity:1;fill:none" />
      <path
         class="cls-1"
         d="m 1258.2433,858.7659 v -4.1574 h 32.7757 v -57.57716 h 4.6765 v 61.73456 z"
         id="path116"
         style="stroke-width:1.33242;stroke:#000000;stroke-opacity:1;fill:none" />
      <path
         class="cls-1"
         d="m 1140.024,858.7659 22.6499,-61.73456 h 4.1704 l 22.6498,61.73456 h -5.0229 l -5.3294,-15.0039 h -28.7787 l -5.3294,15.0039 z m 11.8846,-19.16132 h 25.8342 l -12.9237,-36.32383 z"
         id="path118"
         style="stroke-width:1.33242;stroke:#000000;stroke-opacity:1;fill:none" />
      <path
         class="cls-1"
         d="m 1026.8811,827.02582 c 0,-2.07869 0,-4.22401 0,-6.44928 a 39.970422,39.974883 0 0 1 0.5996,-6.50258 29.884552,29.887887 0 0 1 1.7853,-6.11616 15.988169,15.989954 0 0 1 3.5441,-5.32998 c 3.7705,-3.75765 8.9,-5.63646 15.4419,-5.63646 h 20.7979 v 61.73454 h -20.7446 a 25.58107,25.583926 0 0 1 -8.7668,-1.4258 18.213189,18.215221 0 0 1 -6.6618,-4.2106 15.388612,15.39033 0 0 1 -3.5441,-5.5432 34.947472,34.951374 0 0 1 -1.7853,-6.66252 48.32424,48.329634 0 0 1 -0.5995,-7.10221 c -0.04,-2.42513 -0.067,-4.66373 -0.067,-6.75575 z m 4.6898,0 c 0,1.74557 0,3.66436 0,5.7697 a 55.95859,55.964837 0 0 0 0.4398,6.32937 29.311642,29.314914 0 0 0 1.3322,5.98291 12.524066,12.525464 0 0 0 2.7713,4.7304 13.763148,13.764685 0 0 0 6.1023,3.7709 25.501129,25.503975 0 0 0 7.1547,0.9994 h 14.9089 v -53.41978 h -14.8556 a 25.501129,25.503975 0 0 0 -7.1547,0.99938 13.763148,13.764685 0 0 0 -6.1023,3.77096 12.857152,12.858588 0 0 0 -2.7713,4.46386 24.688397,24.691152 0 0 0 -1.3322,5.32998 45.086636,45.091669 0 0 0 -0.4398,5.71641 c -0.04,1.99875 -0.053,3.82426 -0.053,5.55651 z"
         id="path120"
         style="stroke-width:1.33242;stroke:#000000;stroke-opacity:1;fill:none" />
      <path
         class="cls-1"
         d="m 931.1653,858.7659 v -61.73456 h 4.6498 v 61.73456 z"
         id="path122"
         style="stroke-width:1.33242;stroke:#000000;stroke-opacity:1;fill:none" />
      <path
         class="cls-1"
         d="m 796.798,858.7659 v -4.1574 h 32.7625 v -24.89104 h -27.9793 v -4.15738 h 27.9793 V 801.18872 H 796.798 v -4.15738 h 37.4524 v 61.73456 z"
         id="path124"
         style="stroke-width:1.33242;stroke:#000000;stroke-opacity:1;fill:none" />
      <path
         class="cls-1"
         d="m 683.4286,858.7659 v -4.1574 h 32.77575 L 683.4286,801.18872 v -4.15738 h 36.23985 v 4.15738 h -31.20358 l 32.50928,52.63358 v 4.9436 z"
         id="path126"
         style="stroke-width:1.33242;stroke:#000000;stroke-opacity:1;fill:none" />
      <path
         class="cls-1"
         d="m 566.222,842.1763 a 15.854934,15.856704 0 0 1 1.42561,-6.80905 14.655822,14.657457 0 0 1 3.99705,-5.17009 21.077736,21.080089 0 0 1 1.99851,-1.4391 13.563297,13.564811 0 0 1 2.29165,-1.11929 19.092538,19.09467 0 0 1 2.90451,-0.82614 c 1.10585,-0.23985 2.37158,-0.46639 3.81052,-0.69291 l 6.66174,-1.03934 a 24.222075,24.224779 0 0 0 5.07624,-1.4391 15.14879,15.150481 0 0 0 4.11695,-2.38517 q 3.21096,-2.66499 3.21096,-8.07492 a 11.991127,11.992465 0 0 0 -3.77055,-9.32747 c -2.51813,-2.27857 -6.02221,-3.42453 -10.53886,-3.42453 a 26.180627,26.183549 0 0 0 -4.94301,0.42641 19.985211,19.987442 0 0 0 -3.89046,1.17259 17.427103,17.429049 0 0 0 -3.21096,1.78555 32.655834,32.65948 0 0 0 -2.94448,2.33187 l -3.03775,-3.02477 a 27.433033,27.436095 0 0 1 7.99408,-5.02351 26.713565,26.716547 0 0 1 9.75278,-1.57235 q 8.94005,0 14.04294,4.55714 a 15.668406,15.670154 0 0 1 5.11622,12.35225 14.016295,14.017859 0 0 1 -4.86307,11.35286 21.051089,21.053439 0 0 1 -11.00519,4.51716 l -7.19467,1.11929 a 32.136219,32.139806 0 0 0 -3.21096,0.57299 23.70246,23.705106 0 0 0 -2.29164,0.63959 8.2339068,8.234826 0 0 0 -1.78534,0.86612 c -0.51962,0.34645 -1.06588,0.75953 -1.63879,1.21257 a 11.071807,11.073043 0 0 0 -3.38416,8.67455 11.258336,11.259592 0 0 0 4.25018,9.4074 q 4.23687,3.3313 11.61808,3.3446 a 34.48115,34.485 0 0 0 5.06291,-0.3465 18.572923,18.574995 0 0 0 4.38342,-1.2259 19.772035,19.774242 0 0 0 3.99705,-2.2519 31.230223,31.233709 0 0 0 3.99704,-3.4645 l 3.2909,3.2913 a 32.669158,32.672804 0 0 1 -4.29016,3.651 23.156197,23.158783 0 0 1 -4.67653,2.5584 26.393802,26.396748 0 0 1 -5.3294,1.4658 37.612167,37.616366 0 0 1 -6.28868,0.4797 q -9.71281,0 -15.25538,-4.5971 a 15.388612,15.39033 0 0 1 -5.4493,-12.5255 z"
         id="path128"
         style="stroke-width:1.33242;stroke:#000000;stroke-opacity:1;fill:none" />
      <path
         class="cls-1"
         d="m 449.73487,827.89195 q 0,-5.19674 0.0933,-8.9677 a 39.184337,39.188711 0 0 1 0.63952,-6.66249 19.265743,19.267893 0 0 1 1.74537,-5.11678 17.720221,17.722199 0 0 1 3.25093,-4.33062 21.197647,21.200014 0 0 1 7.02148,-4.67705 22.210231,22.21271 0 0 1 16.81422,0 21.197647,21.200014 0 0 1 7.02147,4.67705 18.053308,18.055323 0 0 1 3.25093,4.33062 18.799421,18.80152 0 0 1 1.73205,5.11678 39.077749,39.082111 0 0 1 0.65285,6.66249 q 0.08,3.77096 0.08,8.9677 c 0,3.4778 0,6.47592 -0.08,9.02099 a 39.304248,39.308635 0 0 1 -0.65285,6.66246 18.213189,18.215221 0 0 1 -1.73205,5.0768 18.426364,18.428422 0 0 1 -3.25093,4.2907 21.197647,21.200014 0 0 1 -7.02147,4.677 22.210231,22.21271 0 0 1 -16.81422,0 21.197647,21.200014 0 0 1 -7.02148,-4.677 18.066631,18.068648 0 0 1 -3.29089,-4.264 18.652864,18.654946 0 0 1 -1.74538,-5.0768 39.410835,39.415235 0 0 1 -0.63953,-6.6625 c -0.0267,-2.57173 -0.0533,-5.58316 -0.0533,-9.04765 z m 4.68987,0 c 0,3.30459 0,6.11615 0.1199,8.46135 a 42.528529,42.533276 0 0 0 0.61289,6.0629 16.587725,16.589577 0 0 0 1.42561,4.4238 14.442645,14.444258 0 0 0 2.66469,3.5178 16.068109,16.069903 0 0 0 5.32939,3.5578 17.120664,17.122575 0 0 0 12.6573,0 15.881581,15.883354 0 0 0 5.32939,-3.5578 13.776472,13.77801 0 0 0 2.59808,-3.5178 16.121403,16.123204 0 0 0 1.43894,-4.4238 40.836447,40.841006 0 0 0 0.59955,-6.0629 c 0.0933,-2.3452 0.13324,-5.15676 0.13324,-8.46135 0,-3.3046 0,-6.10283 -0.13324,-8.44803 a 40.836447,40.841006 0 0 0 -0.59955,-6.06286 16.121403,16.123204 0 0 0 -1.43894,-4.42389 13.776472,13.77801 0 0 0 -2.59808,-3.51779 15.881581,15.883354 0 0 0 -5.32939,-3.55776 17.120664,17.122575 0 0 0 -12.6573,0 16.068109,16.069903 0 0 0 -5.32939,3.55776 14.442645,14.444258 0 0 0 -2.66469,3.51779 16.587725,16.589577 0 0 0 -1.42561,4.42389 42.528529,42.533276 0 0 0 -0.61289,6.06286 q -0.1199,3.51779 -0.1199,8.44803 z"
         id="path130"
         style="stroke-width:1.33242;stroke:#000000;stroke-opacity:1;fill:none" />
      <path
         class="cls-1"
         d="m 332.74145,858.7659 v -61.73456 h 4.67653 v 53.49976 l 35.62698,-53.49976 h 4.68985 v 61.73456 h -4.68985 v -53.67297 l -35.62698,53.67297 z"
         id="path132"
         style="stroke-width:1.33242;stroke:#000000;stroke-opacity:1;fill:none" />
      <path
         class="cls-1"
         d="m 218.25284,841.25688 h 4.5966 a 17.786837,17.788823 0 0 0 5.76906,10.14032 15.84161,15.843379 0 0 0 10.65877,3.731 17.080693,17.0826 0 0 0 6.32866,-1.2126 15.988169,15.989954 0 0 0 5.32938,-3.5578 14.109559,14.111134 0 0 0 2.66471,-3.5178 16.121403,16.123204 0 0 0 1.38563,-4.4238 42.715058,42.719826 0 0 0 0.59956,-6.0629 c 0.0933,-2.3452 0.13324,-5.15676 0.13324,-8.46135 0,-3.3046 0,-6.10283 -0.13324,-8.44803 a 42.715058,42.719826 0 0 0 -0.59956,-6.06286 16.121403,16.123204 0 0 0 -1.43893,-4.42389 14.109559,14.111134 0 0 0 -2.6647,-3.51779 15.988169,15.989954 0 0 0 -5.32939,-3.55776 17.080693,17.0826 0 0 0 -6.32865,-1.21258 15.535171,15.536905 0 0 0 -10.53886,3.731 18.013337,18.015347 0 0 0 -5.6758,10.14029 h -4.76981 a 25.3146,25.317426 0 0 1 2.59808,-7.48862 20.491502,20.493791 0 0 1 4.51666,-5.68976 19.105861,19.107995 0 0 1 6.19542,-3.59774 22.889728,22.892283 0 0 1 7.67431,-1.25255 21.690616,21.693036 0 0 1 8.40711,1.65229 21.317558,21.319938 0 0 1 7.02148,4.67706 18.053308,18.055323 0 0 1 3.25093,4.33062 19.265743,19.267893 0 0 1 1.73204,5.11678 40.490037,40.494557 0 0 1 0.65286,6.66248 q 0.0799,3.77097 0.0799,8.9677 c 0,3.47782 0,6.47593 -0.0799,9.02101 a 40.716536,40.721082 0 0 1 -0.65286,6.6625 18.652864,18.654946 0 0 1 -1.73204,5.0768 18.426364,18.428422 0 0 1 -3.25093,4.2906 21.317558,21.319938 0 0 1 -7.02148,4.6771 21.690616,21.693036 0 0 1 -8.40711,1.6523 22.649906,22.652434 0 0 1 -7.59437,-1.2526 19.732065,19.734267 0 0 1 -6.23539,-3.5977 20.145092,20.147342 0 0 1 -4.55663,-5.6898 25.3146,25.317426 0 0 1 -2.58475,-7.50192 z"
         id="path134"
         style="stroke-width:1.33242;stroke:#000000;stroke-opacity:1;fill:none" />
      <path
         class="cls-1"
         d="m 102.85823,858.7659 v -4.1574 h 32.76242 v -24.89104 h -27.9793 v -4.15738 h 27.9793 v -24.37136 h -32.76242 v -4.15738 h 37.45229 v 61.73456 z"
         id="path136"
         style="stroke-width:1.33242;stroke:#000000;stroke-opacity:1;fill:none" />
      <path
         class="cls-1"
         d="m 1258.2433,954.2659 c 0,-2.0787 0,-4.2374 0,-6.4626 a 40.11698,40.121458 0 0 1 0.6128,-6.5026 29.151761,29.155015 0 0 1 1.7721,-6.1028 16.094756,16.096553 0 0 1 3.5573,-5.33 q 5.6359,-5.6365 15.4286,-5.6365 h 20.718 v 61.7212 h -20.7713 a 25.141396,25.144202 0 0 1 -8.7535,-1.4257 18.186542,18.188572 0 0 1 -6.6618,-4.1974 15.655082,15.65683 0 0 1 -3.5573,-5.5565 33.615125,33.618877 0 0 1 -1.772,-6.6625 48.67065,48.676083 0 0 1 -0.6129,-7.1155 q 0.04,-3.6111 0.04,-6.7291 z m 4.6764,0 c 0,1.7322 0,3.651 0,5.7697 a 59.622546,59.629201 0 0 0 0.4264,6.3293 30.364197,30.367586 0 0 0 1.3323,5.9829 12.537389,12.538789 0 0 0 2.7713,4.7171 13.869736,13.871285 0 0 0 6.1155,3.7709 25.3146,25.317426 0 0 0 7.1547,0.9994 h 14.909 v -53.4064 h -14.909 a 25.3146,25.317426 0 0 0 -7.1547,0.9994 13.869736,13.871285 0 0 0 -6.1155,3.7709 12.937093,12.938537 0 0 0 -2.7713,4.4639 25.554423,25.557276 0 0 0 -1.3323,5.33 47.964506,47.96986 0 0 0 -0.4264,5.7297 c -0.013,1.9721 -0.04,3.8109 -0.04,5.5432 z"
         id="path138"
         style="stroke-width:1.33242;stroke:#000000;stroke-opacity:1;fill:none" />
      <path
         class="cls-1"
         d="m 1143.6613,955.132 c 0,-3.4645 0,-6.4626 0.08,-8.9677 a 40.490037,40.494557 0 0 1 0.6529,-6.6625 19.265743,19.267893 0 0 1 1.732,-5.1168 17.800161,17.802148 0 0 1 3.2509,-4.3306 21.570704,21.573112 0 0 1 7.0215,-4.6904 22.423407,22.42591 0 0 1 16.8275,0 21.570704,21.573112 0 0 1 7.0216,4.6904 17.800161,17.802148 0 0 1 3.2509,4.3306 19.265743,19.267893 0 0 1 1.732,5.1168 40.490037,40.494557 0 0 1 0.6528,6.6625 c 0,2.5051 0.08,5.5032 0.08,8.9677 0,3.4645 0,6.4759 -0.08,9.021 a 40.716536,40.721082 0 0 1 -0.6528,6.6625 17.000753,17.002651 0 0 1 -4.9829,9.3274 21.544057,21.546463 0 0 1 -7.0216,4.6771 22.250201,22.252686 0 0 1 -16.8275,0 21.544057,21.546463 0 0 1 -7.0215,-4.6771 17.000753,17.002651 0 0 1 -4.9829,-9.3274 40.716536,40.721082 0 0 1 -0.6529,-6.6625 q -0.08,-3.8109 -0.08,-9.021 z m 4.6766,0 q 0,4.9436 0.1332,8.4614 a 40.863094,40.867656 0 0 0 0.6129,6.0628 15.681729,15.683479 0 0 0 1.4257,4.4239 14.136206,14.137784 0 0 0 2.598,3.5045 15.988169,15.989954 0 0 0 5.3294,3.5577 17.094017,17.095925 0 0 0 12.644,0 15.988169,15.989954 0 0 0 5.3294,-3.5577 14.136206,14.137784 0 0 0 2.598,-3.5045 15.681729,15.683479 0 0 0 1.4256,-4.4239 40.863094,40.867656 0 0 0 0.613,-6.0628 q 0.1465,-3.5178 0.1332,-8.4614 c 0,-3.2913 0,-6.1162 -0.1332,-8.448 a 40.876418,40.88098 0 0 0 -0.613,-6.0762 15.828287,15.830054 0 0 0 -1.4256,-4.4239 14.136206,14.137784 0 0 0 -2.598,-3.5045 15.988169,15.989954 0 0 0 -5.3294,-3.5577 17.094017,17.095925 0 0 0 -12.644,0 15.988169,15.989954 0 0 0 -5.3294,3.5577 14.136206,14.137784 0 0 0 -2.598,3.5045 15.828287,15.830054 0 0 0 -1.4257,4.4239 40.876418,40.88098 0 0 0 -0.6129,6.0762 c -0.08,2.3318 -0.1199,5.1567 -0.1199,8.448 z"
         id="path140"
         style="stroke-width:1.33242;stroke:#000000;stroke-opacity:1;fill:none" />
      <path
         class="cls-1"
         d="m 1027.8404,968.4836 h 4.5967 a 17.746867,17.748848 0 0 0 5.769,10.1403 15.774993,15.776755 0 0 0 10.6587,3.731 16.814224,16.816102 0 0 0 6.3287,-1.2126 15.881581,15.883354 0 0 0 5.3294,-3.5577 13.496679,13.498185 0 0 0 2.598,-3.5045 16.121403,16.123204 0 0 0 1.439,-4.4239 41.022976,41.027555 0 0 0 0.5996,-6.0628 q 0.1332,-3.5178 0.1332,-8.4614 c 0,-3.2913 0,-6.1162 -0.1332,-8.448 a 41.0363,41.04088 0 0 0 -0.5996,-6.0762 16.267962,16.269777 0 0 0 -1.439,-4.4239 13.496679,13.498185 0 0 0 -2.598,-3.5578 15.881581,15.883354 0 0 0 -5.3294,-3.5577 16.814224,16.816102 0 0 0 -6.3287,-1.2126 15.468553,15.47028 0 0 0 -10.5388,3.731 17.933396,17.935398 0 0 0 -5.6758,10.1403 h -4.7698 a 25.3146,25.317426 0 0 1 2.5981,-7.502 20.238357,20.240616 0 0 1 4.5166,-5.6764 19.105861,19.107995 0 0 1 6.1955,-3.5977 22.649906,22.652434 0 0 1 7.6742,-1.2526 21.930438,21.932886 0 0 1 8.4072,1.639 21.570704,21.573112 0 0 1 7.0214,4.6904 17.800161,17.802148 0 0 1 3.2509,4.3306 18.799421,18.80152 0 0 1 1.7321,5.1168 39.077749,39.082111 0 0 1 0.6529,6.6625 c 0,2.505 0.08,5.5032 0.08,8.9677 0,3.4644 0,6.4759 -0.08,9.0209 a 39.304248,39.308635 0 0 1 -0.6529,6.6625 17.973366,17.975373 0 0 1 -1.7321,5.0635 18.479658,18.481721 0 0 1 -3.2509,4.304 21.544057,21.546463 0 0 1 -7.0214,4.677 21.943761,21.946211 0 0 1 -8.4072,1.6523 22.370113,22.372609 0 0 1 -7.5943,-1.3325 19.625477,19.627667 0 0 1 -10.792,-9.3274 25.3146,25.317426 0 0 1 -2.6381,-7.3421 z"
         id="path142"
         style="stroke-width:1.33242;stroke:#000000;stroke-opacity:1;fill:none" />
      <path
         class="cls-1"
         d="m 912.4458,985.9926 v -4.1574 h 32.7758 v -24.8777 h -27.9127 v -4.1707 h 27.9127 v -24.358 h -32.7758 v -4.1574 h 37.4523 v 61.7212 z"
         id="path144"
         style="stroke-width:1.33242;stroke:#000000;stroke-opacity:1;fill:none" />
      <path
         class="cls-1"
         d="m 795.6656,985.9926 v -4.1574 h 32.7757 v -57.5638 h 4.6765 v 61.7212 z"
         id="path146"
         style="stroke-width:1.33242;stroke:#000000;stroke-opacity:1;fill:none" />
      <path
         class="cls-1"
         d="m 681.65658,924.2714 h 5.00963 l 15.34864,31.2071 15.69505,-31.2071 h 5.02295 l -18.19986,36.1506 v 25.5706 h -4.67654 V 960.422 Z"
         id="path148"
         style="stroke-width:1.33242;stroke:#000000;stroke-opacity:1;fill:none" />
      <path
         class="cls-1"
         d="m 560.62615,985.9926 v -61.7212 h 4.67653 l 20.98447,47.5967 21.50409,-47.5967 h 4.67654 v 61.7212 h -4.67654 v -50.888 l -19.07922,42.2268 h -4.63656 l -18.73281,-42.2268 v 50.888 z"
         id="path150"
         style="stroke-width:1.33242;stroke:#000000;stroke-opacity:1;fill:none" />
      <path
         class="cls-1"
         d="m 449.82814,985.9926 v -4.1574 h 32.76241 v -24.8777 h -27.97928 v -4.1707 h 27.97928 v -24.358 h -32.76241 v -4.1574 h 37.45228 v 61.7212 z"
         id="path152"
         style="stroke-width:1.33242;stroke:#000000;stroke-opacity:1;fill:none" />
      <path
         class="cls-1"
         d="m 332.74145,985.9926 v -61.7212 h 4.67653 v 53.4864 l 35.62698,-53.4864 h 4.68985 v 61.7212 h -4.68985 V 932.333 l -35.62698,53.6596 z"
         id="path154"
         style="stroke-width:1.33242;stroke:#000000;stroke-opacity:1;fill:none" />
      <path
         class="cls-1"
         d="m 218.42604,955.132 c 0,-3.4645 0,-6.4626 0.0933,-8.9677 a 39.184337,39.188711 0 0 1 0.63952,-6.6625 19.265743,19.267893 0 0 1 1.74537,-5.1168 17.400457,17.402399 0 0 1 3.23761,-4.3306 21.490763,21.493162 0 0 1 7.0348,-4.6904 22.383436,22.385934 0 0 1 16.81422,0 21.570704,21.573112 0 0 1 7.02147,4.6904 17.800161,17.802148 0 0 1 3.25093,4.3306 19.265743,19.267893 0 0 1 1.73205,5.1168 39.077749,39.082111 0 0 1 0.65285,6.6625 c 0,2.5051 0.0799,5.5032 0.0799,8.9677 0,3.4645 0,6.4759 -0.0799,9.021 a 39.304248,39.308635 0 0 1 -0.65285,6.6625 17.000753,17.002651 0 0 1 -4.98298,9.3274 21.544057,21.546463 0 0 1 -7.02147,4.6771 22.210231,22.21271 0 0 1 -16.81422,0 21.450793,21.453187 0 0 1 -7.0348,-4.6771 18.039984,18.041997 0 0 1 -3.23761,-4.3039 18.413041,18.415097 0 0 1 -1.74537,-5.0635 39.410835,39.415235 0 0 1 -0.63952,-6.6625 q -0.10659,-3.7709 -0.0933,-8.981 z m 4.67654,0 c 0,3.2913 0,6.1161 0.13323,8.4614 a 42.741705,42.746475 0 0 0 0.61289,6.0628 16.121403,16.123204 0 0 0 1.42561,4.4239 14.136206,14.137784 0 0 0 2.59808,3.5045 15.988169,15.989954 0 0 0 5.32938,3.5577 17.120664,17.122575 0 0 0 12.6573,0 15.881581,15.883354 0 0 0 5.3294,-3.5577 13.496679,13.498185 0 0 0 2.59808,-3.5045 16.121403,16.123204 0 0 0 1.43892,-4.4239 41.022976,41.027555 0 0 0 0.59957,-6.0628 q 0.13322,-3.5178 0.13322,-8.4614 c 0,-3.2913 0,-6.1162 -0.13322,-8.448 a 41.0363,41.04088 0 0 0 -0.59957,-6.0762 16.267962,16.269777 0 0 0 -1.43892,-4.4239 13.496679,13.498185 0 0 0 -2.59808,-3.5045 15.881581,15.883354 0 0 0 -5.3294,-3.5577 17.120664,17.122575 0 0 0 -12.6573,0 15.988169,15.989954 0 0 0 -5.32938,3.5577 14.136206,14.137784 0 0 0 -2.59808,3.5045 16.281285,16.283102 0 0 0 -1.42561,4.4239 42.741705,42.746475 0 0 0 -0.61289,6.0762 c -0.0799,2.3318 -0.13323,5.1567 -0.13323,8.448 z"
         id="path156"
         style="stroke-width:1.33242;stroke:#000000;stroke-opacity:1;fill:none" />
      <path
         class="cls-1"
         d="m 103.59102,969.4164 a 15.988169,15.989954 0 0 1 1.43893,-6.8224 14.415998,14.417608 0 0 1 3.99705,-5.1568 17.507044,17.509 0 0 1 1.9852,-1.4391 13.736501,13.738035 0 0 1 2.30496,-1.1326 22.143613,22.146085 0 0 1 2.90452,-0.8261 c 1.09252,-0.2266 2.37157,-0.4531 3.81051,-0.6929 l 6.66174,-1.0394 a 24.408604,24.411329 0 0 0 5.07624,-1.4258 15.228731,15.23043 0 0 0 4.11695,-2.3985 q 3.19763,-2.6649 3.19763,-8.0749 a 11.991127,11.992465 0 0 0 -3.77054,-9.3275 c -2.50482,-2.2919 -6.02221,-3.4378 -10.52554,-3.4378 a 25.061455,25.064252 0 0 0 -4.94301,0.4397 20.384915,20.387191 0 0 0 -3.90378,1.1726 17.320516,17.322449 0 0 0 -3.21096,1.7722 37.132522,37.136667 0 0 0 -2.94449,2.3452 l -3.02442,-3.0381 a 28.125854,28.128993 0 0 1 7.99408,-5.0235 27.126593,27.12962 0 0 1 9.75278,-1.559 q 8.92673,0 14.04294,4.5438 a 15.708376,15.710129 0 0 1 5.11622,12.3523 14.016295,14.017859 0 0 1 -4.84975,11.3662 21.157676,21.160038 0 0 1 -11.00519,4.5038 l -7.19467,1.1326 c -1.33235,0.1732 -2.34493,0.3598 -3.21096,0.5597 a 23.822371,23.825031 0 0 0 -2.30496,0.6529 7.8208792,7.8217521 0 0 0 -1.77202,0.8661 c -0.51961,0.3465 -1.06588,0.7462 -1.65211,1.2126 a 11.058483,11.059718 0 0 0 -3.37084,8.6745 11.298306,11.299567 0 0 0 4.23687,9.4075 q 4.25018,3.3312 11.61806,3.3312 a 33.042215,33.045903 0 0 0 5.07624,-0.3465 18.106601,18.108622 0 0 0 4.38343,-1.2125 20.824589,20.826914 0 0 0 3.99704,-2.2519 31.230223,31.233709 0 0 0 3.99704,-3.4645 l 3.2909,3.2912 a 32.535924,32.539556 0 0 1 -4.29016,3.6377 23.515931,23.518557 0 0 1 -4.67654,2.5584 25.554423,25.557276 0 0 1 -5.32938,1.4791 37.732078,37.73629 0 0 1 -6.28869,0.4797 q -9.7128,0 -15.25538,-4.6104 a 15.361966,15.36368 0 0 1 -5.47594,-12.4988 z"
         id="path158"
         style="stroke-width:1.33242;stroke:#000000;stroke-opacity:1;fill:none" />
      <path
         class="cls-1"
         d="m 1259.3357,1082.3721 c 0,-3.4779 0,-6.4627 0.08,-8.9811 a 40.476713,40.481232 0 0 1 0.6529,-6.6624 19.105861,19.107995 0 0 1 1.732,-5.1168 17.853455,17.855449 0 0 1 3.2509,-4.344 21.317558,21.319938 0 0 1 7.0215,-4.677 22.210231,22.21271 0 0 1 16.8142,0 21.051089,21.053439 0 0 1 7.0215,4.677 17.200605,17.202525 0 0 1 3.2509,4.344 18.652864,18.654946 0 0 1 1.7321,5.1168 37.732078,37.73629 0 0 1 0.6528,6.6624 c 0,2.5184 0.093,5.5032 0.093,8.9811 0,3.4778 0,6.4759 -0.093,9.0076 a 37.985224,37.989464 0 0 1 -0.6528,6.6625 18.066631,18.068648 0 0 1 -1.7321,5.0768 17.467074,17.469024 0 0 1 -3.2509,4.2907 21.317558,21.319938 0 0 1 -7.0215,4.6903 22.383436,22.385934 0 0 1 -16.8142,0 21.570704,21.573112 0 0 1 -7.0215,-4.6903 18.146571,18.148597 0 0 1 -3.2509,-4.2907 18.506305,18.508371 0 0 1 -1.732,-5.0768 40.716536,40.721082 0 0 1 -0.6529,-6.6625 c -0.053,-2.5317 -0.08,-5.5165 -0.08,-9.0076 z m 4.6766,0 c 0,3.2912 0,6.1161 0.1332,8.448 a 41.0363,41.04088 0 0 0 0.5996,6.0762 15.988169,15.989954 0 0 0 1.439,4.4105 13.643238,13.64476 0 0 0 2.6647,3.5178 15.988169,15.989954 0 0 0 5.3293,3.5578 17.120664,17.122575 0 0 0 12.6573,0 16.068109,16.069903 0 0 0 5.3294,-3.5578 13.949677,13.951234 0 0 0 2.6647,-3.5178 15.988169,15.989954 0 0 0 1.4256,-4.4105 42.741705,42.746475 0 0 0 0.6128,-6.0762 c 0.08,-2.3319 0.12,-5.1568 0.12,-8.448 0,-3.2913 0,-6.1162 -0.12,-8.4614 a 42.741705,42.746475 0 0 0 -0.6128,-6.0629 16.121403,16.123204 0 0 0 -1.4256,-4.4238 14.136206,14.137784 0 0 0 -2.6647,-3.5045 15.868257,15.870029 0 0 0 -5.3294,-3.5578 17.120664,17.122575 0 0 0 -12.6573,0 15.814963,15.816729 0 0 0 -5.3293,3.5578 13.803119,13.80466 0 0 0 -2.6647,3.5045 16.121403,16.123204 0 0 0 -1.439,4.4238 41.022976,41.027555 0 0 0 -0.5996,6.0629 c -0.093,2.3452 -0.1332,5.1568 -0.1332,8.4614 z"
         id="path160"
         style="stroke-width:1.33242;stroke:#000000;stroke-opacity:1;fill:none" />
      <path
         class="cls-1"
         d="m 1142.5422,1051.4981 h 4.943 l 17.3205,53.4997 17.3205,-53.4997 h 4.943 l -20.2916,61.7346 h -3.9971 z"
         id="path162"
         style="stroke-width:1.33242;stroke:#000000;stroke-opacity:1;fill:none" />
      <path
         class="cls-1"
         d="m 1028.1068,1113.2327 v -4.1574 h 32.7625 v -24.8911 H 1032.89 v -4.1573 h 27.9793 v -24.3581 h -32.7625 v -4.1707 h 37.4524 v 61.7346 z"
         id="path164"
         style="stroke-width:1.33242;stroke:#000000;stroke-opacity:1;fill:none" />
      <path
         class="cls-1"
         d="m 931.1786,1113.2327 v -61.7346 h 4.6365 v 61.7346 z"
         id="path166"
         style="stroke-width:1.33242;stroke:#000000;stroke-opacity:1;fill:none" />
      <path
         class="cls-1"
         d="m 795.3591,1113.2327 v -61.7346 h 4.6899 v 53.4997 l 35.6269,-53.4997 h 4.6766 v 61.7346 h -4.6766 v -53.673 l -35.6269,53.673 z"
         id="path168"
         style="stroke-width:1.33242;stroke:#000000;stroke-opacity:1;fill:none" />
      <path
         class="cls-1"
         d="m 681.44341,1055.6688 v -4.1707 h 41.52926 v 4.1707 h -18.38639 v 57.5639 h -4.67654 v -57.5639 z"
         id="path170"
         style="stroke-width:1.33242;stroke:#000000;stroke-opacity:1;fill:none" />
      <path
         class="cls-1"
         d="m 565.42259,1113.2327 v -4.1574 h 32.77575 v -24.8911 h -27.85939 v -4.1573 h 27.91269 v -24.3581 h -32.82905 v -4.1707 h 37.45229 v 61.7346 z"
         id="path172"
         style="stroke-width:1.33242;stroke:#000000;stroke-opacity:1;fill:none" />
      <path
         class="cls-1"
         d="m 448.6157,1081.5059 c 0,-2.0787 0,-4.2373 0,-6.4626 a 39.970422,39.974883 0 0 1 0.59956,-6.5026 30.37752,30.380911 0 0 1 1.78534,-6.1161 16.241315,16.243128 0 0 1 3.55737,-5.33 q 5.63583,-5.6365 15.42858,-5.6365 h 20.82459 v 61.7346 h -20.78461 a 25.447835,25.450676 0 0 1 -8.75353,-1.4258 18.106601,18.108622 0 0 1 -6.66173,-4.2107 15.601788,15.603529 0 0 1 -3.55738,-5.5432 34.947472,34.951374 0 0 1 -1.78534,-6.6624 48.32424,48.329634 0 0 1 -0.59956,-7.1022 q -0.0533,-3.6244 -0.0533,-6.7425 z m 4.67654,0 q 0,2.5984 0,5.7564 a 59.169548,59.176152 0 0 0 0.43967,6.3294 29.311642,29.314914 0 0 0 1.33236,5.9829 12.417477,12.418864 0 0 0 2.77128,4.7303 13.723178,13.72471 0 0 0 6.11546,3.771 25.3146,25.317426 0 0 0 7.14139,0.9994 h 14.92229 v -53.4065 H 471.0924 a 25.3146,25.317426 0 0 0 -7.14139,0.9994 13.616591,13.61811 0 0 0 -6.11546,3.771 12.737241,12.738663 0 0 0 -2.77128,4.4638 24.568486,24.571228 0 0 0 -1.33236,5.33 47.684713,47.690037 0 0 0 -0.43967,5.7164 q 0,2.9582 0,5.5565 z"
         id="path174"
         style="stroke-width:1.33242;stroke:#000000;stroke-opacity:1;fill:none" />
      <path
         class="cls-1"
         d="m 352.89987,1113.2327 v -61.7346 h 4.67653 v 61.7346 z"
         id="path176"
         style="stroke-width:1.33242;stroke:#000000;stroke-opacity:1;fill:none" />
      <path
         class="cls-1"
         d="m 218.51931,1113.2327 v -4.1574 h 32.76241 v -24.8911 h -27.97928 v -4.1573 h 27.97928 v -24.3581 h -32.76241 v -4.1707 h 37.43895 v 61.7346 z"
         id="path178"
         style="stroke-width:1.33242;stroke:#000000;stroke-opacity:1;fill:none" />
      <path
         class="cls-1"
         d="m 105.14987,1113.2327 v -4.1574 h 32.77574 l -32.77574,-53.4065 v -4.1707 h 36.23985 v 4.1707 h -31.20358 l 32.50927,52.6203 v 4.9436 z"
         id="path180"
         style="stroke-width:1.33242;stroke:#000000;stroke-opacity:1;fill:none" />
      <path
         class="cls-1"
         d="m 1258.2433,1178.7382 h 4.9429 l 17.3206,53.4996 17.3204,-53.4996 h 4.9298 l -20.2784,61.6945 h -3.997 z"
         id="path182"
         style="stroke-width:1.33242;stroke:#000000;stroke-opacity:1;fill:none" />
      <path
         class="cls-1"
         d="m 1143.7546,1240.4327 v -4.1707 h 32.7758 v -24.8776 h -27.9793 v -4.1575 h 27.9793 v -24.3713 h -32.7758 v -4.1574 h 37.4523 v 61.7345 z"
         id="path184"
         style="stroke-width:1.33242;stroke:#000000;stroke-opacity:1;fill:none" />
      <path
         class="cls-1"
         d="m 1046.8263,1240.4327 v -61.6945 h 4.6899 v 61.6945 z"
         id="path186"
         style="stroke-width:1.33242;stroke:#000000;stroke-opacity:1;fill:none" />
      <path
         class="cls-1"
         d="m 911.0202,1240.4327 v -61.6945 h 4.6765 v 53.4996 l 35.627,-53.4996 h 4.6899 v 61.6945 h -4.6899 v -53.673 l -35.627,53.673 z"
         id="path188"
         style="stroke-width:1.33242;stroke:#000000;stroke-opacity:1;fill:none" />
      <path
         class="cls-1"
         d="m 797.1045,1182.8956 v -4.1574 h 41.516 v 4.1574 h -18.3732 v 57.5371 h -4.6765 v -57.5771 z"
         id="path190"
         style="stroke-width:1.33242;stroke:#000000;stroke-opacity:1;fill:none" />
      <path
         class="cls-1"
         d="m 699.86977,1240.4327 v -61.6945 h 4.67654 v 61.6945 z"
         id="path192"
         style="stroke-width:1.33242;stroke:#000000;stroke-opacity:1;fill:none" />
      <path
         class="cls-1"
         d="m 565.22274,1222.9504 h 4.5966 a 17.800161,17.802148 0 0 0 5.75574,10.1537 15.894904,15.896679 0 0 0 10.65878,3.7308 16.774253,16.776126 0 0 0 6.32865,-1.2257 15.708376,15.710129 0 0 0 5.32939,-3.5446 14.442645,14.444258 0 0 0 2.66469,-3.5178 15.681729,15.683479 0 0 0 1.42562,-4.4238 40.676566,40.681106 0 0 0 0.61287,-6.0629 c 0.0933,-2.3452 0.13324,-5.1567 0.13324,-8.4614 0,-3.3045 0,-6.1028 -0.13324,-8.448 a 40.676566,40.681106 0 0 0 -0.61287,-6.0629 15.681729,15.683479 0 0 0 -1.42562,-4.4238 14.1895,14.191083 0 0 0 -2.66469,-3.5178 15.988169,15.989954 0 0 0 -5.32939,-3.5577 17.0274,17.029301 0 0 0 -6.32865,-1.2126 15.535171,15.536905 0 0 0 -10.52555,3.731 17.973366,17.975373 0 0 0 -5.67579,10.1402 h -4.76981 a 25.3146,25.317426 0 0 1 2.59808,-7.4885 20.491502,20.493791 0 0 1 4.50334,-5.6899 19.319037,19.321194 0 0 1 6.20873,-3.5977 22.809787,22.812334 0 0 1 7.661,-1.2524 21.717263,21.719686 0 0 1 8.42044,1.6522 21.317558,21.319938 0 0 1 7.02147,4.677 18.053308,18.055323 0 0 1 3.25092,4.3307 19.265743,19.267893 0 0 1 1.73206,5.1167 40.490037,40.494557 0 0 1 0.65285,6.6626 q 0.0799,3.7709 0.0799,8.9676 c 0,3.4778 0,6.476 -0.0799,9.0211 a 40.716536,40.721082 0 0 1 -0.65285,6.6624 18.652864,18.654946 0 0 1 -1.73206,5.0768 18.426364,18.428422 0 0 1 -3.25092,4.2906 21.317558,21.319938 0 0 1 -7.02147,4.6771 21.717263,21.719686 0 0 1 -8.42044,1.6523 22.356789,22.359285 0 0 1 -7.58105,-1.3325 19.092538,19.09467 0 0 1 -6.23539,-3.5977 19.891946,19.894167 0 0 1 -4.55663,-5.6764 25.208012,25.210827 0 0 1 -2.63805,-7.4487 z"
         id="path194"
         style="stroke-width:1.33242;stroke:#000000;stroke-opacity:1;fill:none" />
      <path
         class="cls-1"
         d="m 468.54762,1240.4327 v -61.6945 h 4.68986 v 61.6945 z"
         id="path196"
         style="stroke-width:1.33242;stroke:#000000;stroke-opacity:1;fill:none" />
      <path
         class="cls-1"
         d="m 332.74145,1240.4327 v -61.6945 h 4.67653 v 53.4996 l 35.6403,-53.4996 h 4.67653 v 61.6945 h -4.67653 v -53.673 l -35.6403,53.673 z"
         id="path198"
         style="stroke-width:1.33242;stroke:#000000;stroke-opacity:1;fill:none" />
      <path
         class="cls-1"
         d="m 218.25284,1222.9504 h 4.5966 a 17.813484,17.815473 0 0 0 5.76906,10.1537 15.84161,15.843379 0 0 0 10.65877,3.7308 16.827547,16.829425 0 0 0 6.32866,-1.2257 15.655082,15.65683 0 0 0 5.32938,-3.5446 13.776472,13.77801 0 0 0 2.66471,-3.5178 16.121403,16.123204 0 0 0 1.43893,-4.4238 40.836447,40.841006 0 0 0 0.59956,-6.0629 c 0.0933,-2.3452 0.13323,-5.1567 0.13323,-8.4614 0,-3.3045 0,-6.1028 -0.13323,-8.448 a 40.836447,40.841006 0 0 0 -0.65286,-6.0229 16.121403,16.123204 0 0 0 -1.43893,-4.4238 13.563297,13.564811 0 0 0 -2.6647,-3.5178 15.881581,15.883354 0 0 0 -5.32939,-3.5578 17.080693,17.0826 0 0 0 -6.32865,-1.2125 15.535171,15.536905 0 0 0 -10.53886,3.731 17.973366,17.975373 0 0 0 -5.6758,10.1402 h -4.76981 a 25.3146,25.317426 0 0 1 2.59808,-7.4885 20.291651,20.293915 0 0 1 4.51666,-5.6899 19.105861,19.107995 0 0 1 6.19542,-3.5977 22.889728,22.892283 0 0 1 7.67431,-1.2525 21.690616,21.693036 0 0 1 8.40711,1.6523 21.317558,21.319938 0 0 1 7.02148,4.677 18.053308,18.055323 0 0 1 3.25093,4.3307 19.265743,19.267893 0 0 1 1.73204,5.1167 39.077749,39.082111 0 0 1 0.65286,6.6625 q 0.0799,3.771 0.0799,8.9677 c 0,3.4778 0,6.476 -0.0799,9.021 a 39.304248,39.308635 0 0 1 -0.65286,6.6625 18.652864,18.654946 0 0 1 -1.73204,5.0768 18.426364,18.428422 0 0 1 -3.25093,4.2906 21.317558,21.319938 0 0 1 -7.02148,4.677 21.690616,21.693036 0 0 1 -8.40711,1.6524 22.370113,22.372609 0 0 1 -7.59437,-1.3325 19.372331,19.374493 0 0 1 -6.23539,-3.5978 19.891946,19.894167 0 0 1 -4.55663,-5.6764 25.208012,25.210827 0 0 1 -2.58475,-7.4886 z"
         id="path200"
         style="stroke-width:1.33242;stroke:#000000;stroke-opacity:1;fill:none" />
      <path
         class="cls-1"
         d="m 102.77829,1209.5987 q 0,-5.1966 0.0799,-8.9676 a 39.077749,39.082111 0 0 1 0.65285,-6.6625 18.799421,18.80152 0 0 1 1.73205,-5.1167 17.720221,17.722199 0 0 1 3.25093,-4.3307 21.317558,21.319938 0 0 1 7.02147,-4.6771 22.210231,22.21271 0 0 1 16.81423,0 21.051089,21.053439 0 0 1 7.02146,4.6771 17.720221,17.722199 0 0 1 3.25093,4.3307 18.799421,18.80152 0 0 1 1.73206,5.1167 37.758725,37.762939 0 0 1 0.65285,6.6625 q 0.0933,3.771 0.0933,8.9676 c 0,3.4778 0,6.476 -0.0933,9.0211 a 37.985224,37.989464 0 0 1 -0.65285,6.6624 16.880841,16.882726 0 0 1 -4.98299,9.3275 21.051089,21.053439 0 0 1 -7.02146,4.677 22.210231,22.21271 0 0 1 -16.81423,0 21.317558,21.319938 0 0 1 -7.02147,-4.677 16.880841,16.882726 0 0 1 -4.98298,-9.3275 39.304248,39.308635 0 0 1 -0.65285,-6.6624 c -0.0533,-2.5451 -0.0799,-5.5433 -0.0799,-9.0211 z m 4.67653,0 c 0,3.3047 0,6.1162 0.13324,8.4614 a 40.836447,40.841006 0 0 0 0.59956,6.0629 16.587725,16.589577 0 0 0 1.42561,4.4238 14.162853,14.164433 0 0 0 2.6647,3.5178 15.655082,15.65683 0 0 0 5.32938,3.5446 16.947459,16.94935 0 0 0 12.65731,0 15.84161,15.843379 0 0 0 5.32938,-3.5446 14.442645,14.444258 0 0 0 2.59808,-3.5178 16.587725,16.589577 0 0 0 1.42561,-4.4238 42.528529,42.533276 0 0 0 0.61289,-6.0629 c 0.0799,-2.3452 0.1199,-5.1567 0.1199,-8.4614 0,-3.3045 0,-6.1028 -0.1199,-8.448 a 42.528529,42.533276 0 0 0 -0.61289,-6.0629 16.587725,16.589577 0 0 0 -1.42561,-4.4238 14.1895,14.191083 0 0 0 -2.59808,-3.5178 16.068109,16.069903 0 0 0 -5.32938,-3.5577 17.120664,17.122575 0 0 0 -12.65731,0 15.881581,15.883354 0 0 0 -5.32938,3.5577 13.92303,13.924585 0 0 0 -2.6647,3.5178 16.587725,16.589577 0 0 0 -1.42561,4.4238 40.836447,40.841006 0 0 0 -0.59956,6.0629 q -0.13324,3.5178 -0.13324,8.448 z"
         id="path202"
         style="stroke-width:1.33242;stroke:#000000;stroke-opacity:1;fill:none" />
      <path
         class="cls-1"
         d="m 1254.566,1367.6995 v -61.7212 h 4.6765 l 20.9845,47.5967 21.4907,-47.5967 h 4.6899 v 61.7212 h -4.6899 v -50.888 l -19.0659,42.2134 h -4.6898 l -18.6529,-42.2267 v 50.8879 z"
         id="path204"
         style="stroke-width:1.33242;stroke:#000000;stroke-opacity:1;fill:none" />
      <path
         class="cls-1"
         d="m 1143.7546,1367.6995 v -4.1575 h 32.7758 v -24.8777 h -27.9793 v -4.1706 h 27.9793 v -24.3581 h -32.7758 v -4.1573 h 37.4523 v 61.7212 z"
         id="path206"
         style="stroke-width:1.33242;stroke:#000000;stroke-opacity:1;fill:none" />
      <path
         class="cls-1"
         d="m 1026.8811,1335.9728 c 0,-2.0788 0,-4.2374 0,-6.4627 a 40.130303,40.134783 0 0 1 0.5996,-6.5026 30.004463,30.007812 0 0 1 1.7853,-6.1029 15.854934,15.856704 0 0 1 3.5441,-5.3299 c 3.7705,-3.7576 8.9,-5.6364 15.4419,-5.6364 h 20.7979 v 61.7212 h -20.7446 a 25.3146,25.317426 0 0 1 -8.7668,-1.4258 18.186542,18.188572 0 0 1 -6.6618,-4.1973 15.441906,15.443629 0 0 1 -3.5441,-5.5566 34.561092,34.564949 0 0 1 -1.7853,-6.6624 48.657327,48.662758 0 0 1 -0.5995,-7.1156 c -0.04,-2.4118 -0.067,-4.6504 -0.067,-6.729 z m 4.6898,0 c 0,1.7321 0,3.6509 0,5.7697 a 56.331647,56.337936 0 0 0 0.4398,6.3292 29.444877,29.448164 0 0 0 1.3322,5.9829 12.364183,12.365564 0 0 0 2.7713,4.7171 13.763148,13.764685 0 0 0 6.1023,3.7709 25.501129,25.503975 0 0 0 7.1547,0.9994 h 14.9089 v -53.4064 h -14.8556 a 25.501129,25.503975 0 0 0 -7.1547,0.9993 13.763148,13.764685 0 0 0 -6.1023,3.771 12.737241,12.738663 0 0 0 -2.7713,4.4639 24.768338,24.771103 0 0 0 -1.3322,5.33 45.299811,45.304868 0 0 0 -0.4398,5.7297 c -0.04,1.9455 -0.053,3.811 -0.053,5.5433 z"
         id="path208"
         style="stroke-width:1.33242;stroke:#000000;stroke-opacity:1;fill:none" />
      <path
         class="cls-1"
         d="m 931.1653,1367.6995 v -61.7212 h 4.6498 v 61.7212 z"
         id="path210"
         style="stroke-width:1.33242;stroke:#000000;stroke-opacity:1;fill:none" />
      <path
         class="cls-1"
         d="m 793.0675,1367.6995 22.6498,-61.7212 h 4.1837 l 22.7164,61.7212 h -4.9962 l -5.3294,-14.9906 h -28.7787 l -5.3294,14.9906 z m 11.8711,-19.1613 h 25.8343 l -12.9104,-36.3239 z"
         id="path212"
         style="stroke-width:1.33242;stroke:#000000;stroke-opacity:1;fill:none" />
      <path
         class="cls-1"
         d="m 680.8705,1350.1905 h 4.5966 a 17.813484,17.815473 0 0 0 5.76906,10.1402 15.80164,15.803404 0 0 0 10.65877,3.731 16.814224,16.816102 0 0 0 6.32866,-1.2125 15.881581,15.883354 0 0 0 5.32939,-3.5578 13.869736,13.871285 0 0 0 2.6647,-3.5045 16.587725,16.589577 0 0 0 1.42561,-4.4238 42.741705,42.746475 0 0 0 0.61288,-6.0629 q 0.1199,-3.5178 0.1199,-8.4613 c 0,-3.2913 0,-6.1162 -0.1199,-8.4481 a 42.741705,42.746475 0 0 0 -0.61288,-6.0762 16.747606,16.749476 0 0 0 -1.42561,-4.4238 13.869736,13.871285 0 0 0 -2.6647,-3.5045 15.881581,15.883354 0 0 0 -5.32939,-3.5577 16.814224,16.816102 0 0 0 -6.32866,-1.2126 15.441906,15.443629 0 0 0 -10.52553,3.7309 18.026661,18.028672 0 0 0 -5.68913,10.1403 h -4.76981 a 25.740952,25.743824 0 0 1 2.6647,-7.502 20.438209,20.44049 0 0 1 4.50334,-5.6764 19.385655,19.387818 0 0 1 6.19541,-3.5977 22.649906,22.652434 0 0 1 7.67432,-1.2526 21.877144,21.879587 0 0 1 8.40711,1.6391 21.43747,21.439863 0 0 1 7.02148,4.6903 17.467074,17.469024 0 0 1 3.25092,4.3306 18.799421,18.80152 0 0 1 1.73205,5.1168 37.758725,37.762939 0 0 1 0.65286,6.6625 c 0,2.5051 0.0933,5.5032 0.0933,8.9677 0,3.4645 0,6.4759 -0.0933,9.021 a 37.985224,37.989464 0 0 1 -0.65286,6.6625 17.000753,17.002651 0 0 1 -4.98297,9.3275 21.397499,21.399888 0 0 1 -7.02148,4.677 21.890467,21.892912 0 0 1 -8.40711,1.6524 22.236878,22.239361 0 0 1 -7.58106,-1.3326 19.798682,19.800893 0 0 1 -6.2487,-3.5977 20.078476,20.080716 0 0 1 -4.54331,-5.6765 25.740952,25.743824 0 0 1 -2.70466,-7.4086 z"
         id="path214"
         style="stroke-width:1.33242;stroke:#000000;stroke-opacity:1;fill:none" />
      <path
         class="cls-1"
         d="m 565.42259,1347.6721 v -41.6938 h 4.67654 v 41.0541 a 19.891946,19.894167 0 0 0 1.17247,6.9823 15.042202,15.043881 0 0 0 3.3442,5.33 14.855673,14.857331 0 0 0 5.19615,3.4245 19.465595,19.467769 0 0 0 13.52333,0 14.855673,14.857331 0 0 0 5.19615,-3.4245 15.042202,15.043881 0 0 0 3.34419,-5.33 20.198386,20.200641 0 0 0 1.17246,-6.9823 v -41.0941 h 4.67654 v 41.6938 a 21.504086,21.506487 0 0 1 -1.55884,8.2881 19.119185,19.12132 0 0 1 -4.38343,6.5025 20.145092,20.147342 0 0 1 -6.66173,4.2507 24.728368,24.731128 0 0 1 -17.06737,0 20.145092,20.147342 0 0 1 -6.66173,-4.2507 19.119185,19.12132 0 0 1 -4.38344,-6.5025 21.504086,21.506487 0 0 1 -1.58549,-8.2481 z"
         id="path216"
         style="stroke-width:1.33242;stroke:#000000;stroke-opacity:1;fill:none" />
      <path
         class="cls-1"
         d="m 446.09757,1367.6995 22.6499,-61.7212 h 4.15693 l 22.6499,61.7212 h -5.03627 l -5.3294,-14.9906 h -28.77869 l -5.3294,14.9906 z m 11.87121,-19.1613 H 483.803 l -12.91045,-36.3239 z"
         id="path218"
         style="stroke-width:1.33242;stroke:#000000;stroke-opacity:1;fill:none" />
      <path
         class="cls-1"
         d="m 332.2618,1367.6995 14.90896,-28.5154 a 17.387134,17.389075 0 0 1 -10.35233,-5.4234 16.14805,16.149852 0 0 1 -3.86381,-11.2195 17.880102,17.882097 0 0 1 1.33235,-7.1155 14.282764,14.284358 0 0 1 3.73058,-5.1968 15.988169,15.989954 0 0 1 5.63583,-3.1713 22.023703,22.02616 0 0 1 6.98149,-1.0793 h 23.48929 v 61.7212 h -4.55663 v -28.4355 h -17.06737 l -14.73577,28.4355 z m 5.32939,-45.0784 a 14.256117,14.257709 0 0 0 0.98594,5.5432 10.392309,10.39347 0 0 0 2.82458,3.9042 11.671363,11.672666 0 0 0 4.33013,2.3052 19.345684,19.347844 0 0 0 5.46262,0.7329 h 18.37307 v -24.971 h -18.2798 a 19.838652,19.840867 0 0 0 -5.46263,0.7329 11.671363,11.672666 0 0 0 -4.33013,2.3053 10.392309,10.39347 0 0 0 -2.82458,3.9041 14.309411,14.311008 0 0 0 -0.98594,5.5432 z"
         id="path220"
         style="stroke-width:1.33242;stroke:#000000;stroke-opacity:1;fill:none" />
      <path
         class="cls-1"
         d="m 218.81242,1310.1356 v -4.1573 h 41.50263 v 4.1573 h -18.34643 v 57.5639 h -4.68986 v -57.5639 z"
         id="path222"
         style="stroke-width:1.33242;stroke:#000000;stroke-opacity:1;fill:none" />
      <path
         class="cls-1"
         d="m 102.76497,1336.8389 c 0,-3.4645 0,-6.4627 0.0933,-8.9678 a 39.077749,39.082111 0 0 1 0.65285,-6.6624 18.799421,18.80152 0 0 1 1.73205,-5.1168 17.467074,17.469024 0 0 1 3.25093,-4.3306 21.43747,21.439863 0 0 1 7.02147,-4.6904 22.383436,22.385934 0 0 1 16.81423,0 21.43747,21.439863 0 0 1 7.02146,4.6904 17.467074,17.469024 0 0 1 3.25093,4.3306 18.799421,18.80152 0 0 1 1.73206,5.1168 37.758725,37.762939 0 0 1 0.65285,6.6624 c 0.0666,2.5051 0.0933,5.5033 0.0933,8.9678 0,3.4644 0,6.4758 -0.0933,9.0209 a 37.985224,37.989464 0 0 1 -0.65285,6.6626 17.000753,17.002651 0 0 1 -4.98299,9.3274 21.397499,21.399888 0 0 1 -7.02146,4.6771 22.210231,22.21271 0 0 1 -16.81423,0 21.397499,21.399888 0 0 1 -7.02147,-4.6771 17.000753,17.002651 0 0 1 -4.98298,-9.3274 39.304248,39.308635 0 0 1 -0.65285,-6.6626 c -0.0533,-2.5451 -0.0933,-5.4898 -0.0933,-9.0209 z m 4.68985,0 q 0,4.9302 0.13324,8.4613 a 41.022976,41.027555 0 0 0 0.59956,6.0629 16.587725,16.589577 0 0 0 1.42561,4.4238 13.869736,13.871285 0 0 0 2.6647,3.5045 15.881581,15.883354 0 0 0 5.32938,3.5578 17.120664,17.122575 0 0 0 12.65731,0 15.881581,15.883354 0 0 0 5.32938,-3.5578 13.869736,13.871285 0 0 0 2.6647,-3.5045 16.587725,16.589577 0 0 0 1.42561,-4.4238 42.741705,42.746475 0 0 0 0.61288,-6.0629 q 0.11992,-3.5178 0.11992,-8.4613 c 0,-3.2913 0,-6.1162 -0.11992,-8.4481 a 42.741705,42.746475 0 0 0 -0.61288,-6.0762 16.747606,16.749476 0 0 0 -1.42561,-4.4238 13.869736,13.871285 0 0 0 -2.6647,-3.5045 15.881581,15.883354 0 0 0 -5.32938,-3.5577 17.120664,17.122575 0 0 0 -12.65731,0 15.881581,15.883354 0 0 0 -5.32938,3.5577 13.869736,13.871285 0 0 0 -2.6647,3.5045 16.747606,16.749476 0 0 0 -1.42561,4.4238 41.0363,41.04088 0 0 0 -0.59956,6.0762 c -0.0933,2.3319 -0.13324,5.1568 -0.13324,8.4481 z"
         id="path224"
         style="stroke-width:1.33242;stroke:#000000;stroke-opacity:1;fill:none" />
    </g>
    <ellipse
       class="cls-1"
       cx="465.36969"
       cy="35.366238"
       id="circle227"
       style="fill:none;stroke:#000000;stroke-width:0.352537;stroke-opacity:1"
       rx="1.1844567"
       ry="1.184589" />
    <ellipse
       class="cls-1"
       cx="465.36969"
       cy="465.4884"
       id="circle229"
       style="fill:none;stroke:#000000;stroke-width:0.352537;stroke-opacity:1"
       rx="1.1844567"
       ry="1.184589" />
    <ellipse
       class="cls-1"
       cx="35.29554"
       cy="465.4884"
       id="circle231"
       style="fill:none;stroke:#000000;stroke-width:0.352537;stroke-opacity:1"
       rx="1.1844567"
       ry="1.184589" />
    <ellipse
       class="cls-1"
       cx="35.29554"
       cy="35.366238"
       id="circle233"
       style="fill:none;stroke:#000000;stroke-width:0.352537;stroke-opacity:1"
       rx="1.1844567"
       ry="1.184589" />
    <rect
       class="cls-2"
       x="-496.11066"
       y="-495.22342"
       width="489.60114"
       height="488.64642"
       transform="scale(-1)"
       id="rect235"
       style="fill:none;stroke:#ff0000;stroke-width:0.35359;stroke-opacity:1" />
    <text
       xml:space="preserve"
       style="font-style:normal;font-weight:normal;font-size:10.5833px;line-height:1.25;font-family:sans-serif;fill:#000000;fill-opacity:1;stroke:none;stroke-width:0.264583"
       x="35.47047"
       y="-20.1523"
       id="text3339-3-0"><tspan
         sodipodi:role="line"
         style="fill:#000000;fill-opacity:1;stroke-width:0.264583"
         x="35.47047"
         y="-20.1523"
         id="tspan7298-7">=pass1:1000mm/min:20%:#000000=</tspan></text>
    <text
       xml:space="preserve"
       style="font-style:normal;font-weight:normal;font-size:10.5833px;line-height:1.25;font-family:sans-serif;display:inline;fill:#ff0000;fill-opacity:1;stroke:none;stroke-width:0.264583"
       x="35.56271"
       y="-8.6111279"
       id="text3339-3-0-6"><tspan
         sodipodi:role="line"
         style="fill:#ff0000;fill-opacity:1;stroke-width:0.264583"
         x="35.56271"
         y="-8.6111279"
         id="tspan7298-7-8">=pass2:600mm/min:50%:#ff0000=</tspan></text>
  </g>
</svg>
