<svg xmlns="http://www.w3.org/2000/svg" viewBox="0 0 1131.2 1131.2"><defs><style>.cls-1{font-size:60px;font-family:DIN-Light, DIN;font-weight:300;}.cls-1,.cls-2{fill:#231f20;}</style></defs><g id="Letters"><text class="cls-1" transform="matrix(-1, 0, 0, 1, 983.77, 190.73)">E</text><text class="cls-1" transform="matrix(-1, 0, 0, 1, 903.4, 190.73)">S</text><text class="cls-1" transform="matrix(-1, 0, 0, 1, 825.3, 190.73)">O</text><text class="cls-1" transform="matrix(-1, 0, 0, 1, 747.86, 190.73)">N</text><text class="cls-1" transform="matrix(-1, 0, 0, 1, 663.59, 190.73)">E</text><text class="cls-1" transform="matrix(-1, 0, 0, 1, 582.76, 190.73)">L</text><text class="cls-1" transform="matrix(-1, 0, 0, 1, 503.61, 190.73)">A</text><text class="cls-1" transform="matrix(-1, 0, 0, 1, 423.12, 190.73)">S</text><text class="cls-1" transform="matrix(-1, 0, 0, 1, 346.1, 190.73)">U</text><text class="cls-1" transform="matrix(-1, 0, 0, 1, 267.59, 190.73)">N</text><text class="cls-1" transform="matrix(-1, 0, 0, 1, 183.43, 190.73)">A</text><text class="cls-1" transform="matrix(-1, 0, 0, 1, 986.17, 278.78)">D</text><text class="cls-1" transform="matrix(-1, 0, 0, 1, 905.35, 278.78)">O</text><text class="cls-1" transform="matrix(-1, 0, 0, 1, 823.35, 278.78)">S</text><text class="cls-1" transform="matrix(-1, 0, 0, 1, 733.91, 278.78)">I</text><text class="cls-1" transform="matrix(-1, 0, 0, 1, 661.82, 278.78)">T</text><text class="cls-1" transform="matrix(-1, 0, 0, 1, 585.31, 278.78)">R</text><text class="cls-1" transform="matrix(-1, 0, 0, 1, 503.49, 278.78)">E</text><text class="cls-1" transform="matrix(-1, 0, 0, 1, 423.12, 278.78)">S</text><text class="cls-1" transform="matrix(-1, 0, 0, 1, 345.02, 278.78)">O</text><text class="cls-1" transform="matrix(-1, 0, 0, 1, 263.47, 278.78)">A</text><text class="cls-1" transform="matrix(-1, 0, 0, 1, 189.91, 278.78)">M</text><text class="cls-1" transform="matrix(-1, 0, 0, 1, 985.15, 366.83)">C</text><text class="cls-1" transform="matrix(-1, 0, 0, 1, 906.43, 366.83)">U</text><text class="cls-1" transform="matrix(-1, 0, 0, 1, 823.8, 366.83)">A</text><text class="cls-1" transform="matrix(-1, 0, 0, 1, 741.86, 366.83)">T</text><text class="cls-1" transform="matrix(-1, 0, 0, 1, 665.36, 366.83)">R</text><text class="cls-1" transform="matrix(-1, 0, 0, 1, 585.16, 366.83)">O</text><text class="cls-1" transform="matrix(-1, 0, 0, 1, 504.88, 366.83)">C</text><text class="cls-1" transform="matrix(-1, 0, 0, 1, 413.73, 366.83)">I</text><text class="cls-1" transform="matrix(-1, 0, 0, 1, 347.63, 366.83)">N</text><text class="cls-1" transform="matrix(-1, 0, 0, 1, 264.74, 366.83)">C</text><text class="cls-1" transform="matrix(-1, 0, 0, 1, 184.93, 366.83)">O</text><text class="cls-1" transform="matrix(-1, 0, 0, 1, 983.44, 454.88)">S</text><text class="cls-1" transform="matrix(-1, 0, 0, 1, 903.73, 454.88)">E</text><text class="cls-1" transform="matrix(-1, 0, 0, 1, 813.96, 454.88)">I</text><text class="cls-1" transform="matrix(-1, 0, 0, 1, 743.3, 454.88)">S</text><text class="cls-1" transform="matrix(-1, 0, 0, 1, 663.71, 454.88)">A</text><text class="cls-1" transform="matrix(-1, 0, 0, 1, 583.21, 454.88)">S</text><text class="cls-1" transform="matrix(-1, 0, 0, 1, 493.77, 454.88)">I</text><text class="cls-1" transform="matrix(-1, 0, 0, 1, 423.45, 454.88)">E</text><text class="cls-1" transform="matrix(-1, 0, 0, 1, 341.63, 454.88)">T</text><text class="cls-1" transform="matrix(-1, 0, 0, 1, 263.35, 454.88)">E</text><text class="cls-1" transform="matrix(-1, 0, 0, 1, 187.54, 454.88)">N</text><text class="cls-1" transform="matrix(-1, 0, 0, 1, 985.39, 542.93)">O</text><text class="cls-1" transform="matrix(-1, 0, 0, 1, 905.11, 542.93)">C</text><text class="cls-1" transform="matrix(-1, 0, 0, 1, 826.71, 542.93)">H</text><text class="cls-1" transform="matrix(-1, 0, 0, 1, 745.25, 542.93)">O</text><text class="cls-1" transform="matrix(-1, 0, 0, 1, 667.82, 542.93)">N</text><text class="cls-1" transform="matrix(-1, 0, 0, 1, 586.24, 542.93)">U</text><text class="cls-1" transform="matrix(-1, 0, 0, 1, 503.49, 542.93)">E</text><text class="cls-1" transform="matrix(-1, 0, 0, 1, 421.53, 542.93)">V</text><text class="cls-1" transform="matrix(-1, 0, 0, 1, 343.4, 542.93)">E</text><text class="cls-1" transform="matrix(-1, 0, 0, 1, 264.34, 542.93)">P</text><text class="cls-1" transform="matrix(-1, 0, 0, 1, 189.91, 542.93)">M</text><text class="cls-1" transform="matrix(-1, 0, 0, 1, 982.99, 630.99)">L</text><text class="cls-1" transform="matrix(-1, 0, 0, 1, 903.85, 630.99)">A</text><text class="cls-1" transform="matrix(-1, 0, 0, 1, 826.08, 630.99)">D</text><text class="cls-1" transform="matrix(-1, 0, 0, 1, 733.91, 630.99)">I</text><text class="cls-1" transform="matrix(-1, 0, 0, 1, 663.59, 630.99)">E</text><text class="cls-1" transform="matrix(-1, 0, 0, 1, 582.37, 630.99)">Z</text><text class="cls-1" transform="matrix(-1, 0, 0, 1, 503.16, 630.99)">S</text><text class="cls-1" transform="matrix(-1, 0, 0, 1, 425.07, 630.99)">O</text><text class="cls-1" transform="matrix(-1, 0, 0, 1, 347.63, 630.99)">N</text><text class="cls-1" transform="matrix(-1, 0, 0, 1, 264.74, 630.99)">C</text><text class="cls-1" transform="matrix(-1, 0, 0, 1, 183.31, 630.99)">E</text><text class="cls-1" transform="matrix(-1, 0, 0, 1, 986.17, 719.04)">D</text><text class="cls-1" transform="matrix(-1, 0, 0, 1, 905.35, 719.04)">O</text><text class="cls-1" transform="matrix(-1, 0, 0, 1, 825.06, 719.04)">C</text><text class="cls-1" transform="matrix(-1, 0, 0, 1, 743.63, 719.04)">E</text><text class="cls-1" transform="matrix(-1, 0, 0, 1, 662.81, 719.04)">L</text><text class="cls-1" transform="matrix(-1, 0, 0, 1, 580.42, 719.04)">Y</text><text class="cls-1" transform="matrix(-1, 0, 0, 1, 510.09, 719.04)">M</text><text class="cls-1" transform="matrix(-1, 0, 0, 1, 423.45, 719.04)">E</text><text class="cls-1" transform="matrix(-1, 0, 0, 1, 347.63, 719.04)">N</text><text class="cls-1" transform="matrix(-1, 0, 0, 1, 264.97, 719.04)">O</text><text class="cls-1" transform="matrix(-1, 0, 0, 1, 182.98, 719.04)">S</text><text class="cls-1" transform="matrix(-1, 0, 0, 1, 985.39, 807.09)">O</text><text class="cls-1" transform="matrix(-1, 0, 0, 1, 901.81, 807.09)">V</text><text class="cls-1" transform="matrix(-1, 0, 0, 1, 823.68, 807.09)">E</text><text class="cls-1" transform="matrix(-1, 0, 0, 1, 733.91, 807.09)">I</text><text class="cls-1" transform="matrix(-1, 0, 0, 1, 667.82, 807.09)">N</text><text class="cls-1" transform="matrix(-1, 0, 0, 1, 581.77, 807.09)">T</text><text class="cls-1" transform="matrix(-1, 0, 0, 1, 503.49, 807.09)">E</text><text class="cls-1" transform="matrix(-1, 0, 0, 1, 425.85, 807.09)">D</text><text class="cls-1" transform="matrix(-1, 0, 0, 1, 333.68, 807.09)">I</text><text class="cls-1" transform="matrix(-1, 0, 0, 1, 263.35, 807.09)">E</text><text class="cls-1" transform="matrix(-1, 0, 0, 1, 182.14, 807.09)">Z</text><text class="cls-1" transform="matrix(-1, 0, 0, 1, 981.85, 895.14)">V</text><text class="cls-1" transform="matrix(-1, 0, 0, 1, 903.73, 895.14)">E</text><text class="cls-1" transform="matrix(-1, 0, 0, 1, 813.96, 895.14)">I</text><text class="cls-1" transform="matrix(-1, 0, 0, 1, 747.86, 895.14)">N</text><text class="cls-1" transform="matrix(-1, 0, 0, 1, 661.82, 895.14)">T</text><text class="cls-1" transform="matrix(-1, 0, 0, 1, 573.82, 895.14)">I</text><text class="cls-1" transform="matrix(-1, 0, 0, 1, 504.88, 895.14)">C</text><text class="cls-1" transform="matrix(-1, 0, 0, 1, 413.73, 895.14)">I</text><text class="cls-1" transform="matrix(-1, 0, 0, 1, 347.63, 895.14)">N</text><text class="cls-1" transform="matrix(-1, 0, 0, 1, 264.74, 895.14)">C</text><text class="cls-1" transform="matrix(-1, 0, 0, 1, 184.93, 895.14)">O</text><text class="cls-1" transform="matrix(-1, 0, 0, 1, 990.37, 983.19)">M</text><text class="cls-1" transform="matrix(-1, 0, 0, 1, 903.73, 983.19)">E</text><text class="cls-1" transform="matrix(-1, 0, 0, 1, 826.08, 983.19)">D</text><text class="cls-1" transform="matrix(-1, 0, 0, 1, 733.91, 983.19)">I</text><text class="cls-1" transform="matrix(-1, 0, 0, 1, 663.71, 983.19)">A</text><text class="cls-1" transform="matrix(-1, 0, 0, 1, 584.92, 983.19)">C</text><text class="cls-1" transform="matrix(-1, 0, 0, 1, 506.19, 983.19)">U</text><text class="cls-1" transform="matrix(-1, 0, 0, 1, 423.57, 983.19)">A</text><text class="cls-1" transform="matrix(-1, 0, 0, 1, 345.17, 983.19)">R</text><text class="cls-1" transform="matrix(-1, 0, 0, 1, 261.59, 983.19)">T</text><text class="cls-1" transform="matrix(-1, 0, 0, 1, 184.93, 983.19)">O</text><text x="-125.82" y="-125.82"/></g><g id="Dots"><circle class="cls-2" cx="1128.11" cy="3.09" r="3.09"/><circle class="cls-2" cx="1128.11" cy="1128.11" r="3.09"/><circle class="cls-2" cx="33.11" cy="1128.11" r="3.09"/><circle class="cls-2" cx="3.09" cy="3.09" r="3.09"/></g></svg>