<svg xmlns="http://www.w3.org/2000/svg" viewBox="0 0 1384.31 1384.31"><defs><style>.cls-1{font-size:65.07px;font-family:DIN-Light, DIN;font-weight:300;}.cls-1,.cls-2{fill:#231f20;}.cls-3{fill:none;stroke:#231f20;stroke-miterlimit:10;}</style></defs><g id="Letters"><text class="cls-1" transform="matrix(-1, 0, 0, 1, 1145.64, 285.63)">E</text><text class="cls-1" transform="matrix(-1, 0, 0, 1, 1058.47, 285.63)">S</text><text class="cls-1" transform="matrix(-1, 0, 0, 1, 973.78, 285.63)">O</text><text class="cls-1" transform="matrix(-1, 0, 0, 1, 889.81, 285.63)">N</text><text class="cls-1" transform="matrix(-1, 0, 0, 1, 798.42, 285.63)">E</text><text class="cls-1" transform="matrix(-1, 0, 0, 1, 710.76, 285.63)">L</text><text class="cls-1" transform="matrix(-1, 0, 0, 1, 624.93, 285.63)">A</text><text class="cls-1" transform="matrix(-1, 0, 0, 1, 537.64, 285.63)">S</text><text class="cls-1" transform="matrix(-1, 0, 0, 1, 454.12, 285.63)">U</text><text class="cls-1" transform="matrix(-1, 0, 0, 1, 368.97, 285.63)">N</text><text class="cls-1" transform="matrix(-1, 0, 0, 1, 277.71, 285.63)">A</text><text class="cls-1" transform="matrix(-1, 0, 0, 1, 1148.24, 381.11)">D</text><text class="cls-1" transform="matrix(-1, 0, 0, 1, 1060.59, 381.11)">O</text><text class="cls-1" transform="matrix(-1, 0, 0, 1, 971.67, 381.11)">S</text><text class="cls-1" transform="matrix(-1, 0, 0, 1, 874.68, 381.11)">I</text><text class="cls-1" transform="matrix(-1, 0, 0, 1, 796.5, 381.11)">T</text><text class="cls-1" transform="matrix(-1, 0, 0, 1, 713.53, 381.11)">R</text><text class="cls-1" transform="matrix(-1, 0, 0, 1, 624.8, 381.11)">E</text><text class="cls-1" transform="matrix(-1, 0, 0, 1, 537.64, 381.11)">S</text><text class="cls-1" transform="matrix(-1, 0, 0, 1, 452.95, 381.11)">O</text><text class="cls-1" transform="matrix(-1, 0, 0, 1, 364.51, 381.11)">A</text><text class="cls-1" transform="matrix(-1, 0, 0, 1, 284.74, 381.11)">M</text><text class="cls-1" transform="matrix(-1, 0, 0, 1, 1147.13, 476.6)">C</text><text class="cls-1" transform="matrix(-1, 0, 0, 1, 1061.76, 476.6)">U</text><text class="cls-1" transform="matrix(-1, 0, 0, 1, 972.15, 476.6)">A</text><text class="cls-1" transform="matrix(-1, 0, 0, 1, 883.3, 476.6)">T</text><text class="cls-1" transform="matrix(-1, 0, 0, 1, 800.33, 476.6)">R</text><text class="cls-1" transform="matrix(-1, 0, 0, 1, 713.36, 476.6)">O</text><text class="cls-1" transform="matrix(-1, 0, 0, 1, 626.3, 476.6)">C</text><text class="cls-1" transform="matrix(-1, 0, 0, 1, 527.45, 476.6)">I</text><text class="cls-1" transform="matrix(-1, 0, 0, 1, 455.78, 476.6)">N</text><text class="cls-1" transform="matrix(-1, 0, 0, 1, 365.88, 476.6)">C</text><text class="cls-1" transform="matrix(-1, 0, 0, 1, 279.33, 476.6)">O</text><text class="cls-1" transform="matrix(-1, 0, 0, 1, 1145.28, 572.09)">S</text><text class="cls-1" transform="matrix(-1, 0, 0, 1, 1058.83, 572.09)">E</text><text class="cls-1" transform="matrix(-1, 0, 0, 1, 961.48, 572.09)">I</text><text class="cls-1" transform="matrix(-1, 0, 0, 1, 884.86, 572.09)">S</text><text class="cls-1" transform="matrix(-1, 0, 0, 1, 798.55, 572.09)">A</text><text class="cls-1" transform="matrix(-1, 0, 0, 1, 711.25, 572.09)">S</text><text class="cls-1" transform="matrix(-1, 0, 0, 1, 614.26, 572.09)">I</text><text class="cls-1" transform="matrix(-1, 0, 0, 1, 538, 572.09)">E</text><text class="cls-1" transform="matrix(-1, 0, 0, 1, 449.27, 572.09)">T</text><text class="cls-1" transform="matrix(-1, 0, 0, 1, 364.38, 572.09)">E</text><text class="cls-1" transform="matrix(-1, 0, 0, 1, 282.17, 572.09)">N</text><text class="cls-1" transform="matrix(-1, 0, 0, 1, 1147.4, 667.57)">O</text><text class="cls-1" transform="matrix(-1, 0, 0, 1, 1060.33, 667.57)">C</text><text class="cls-1" transform="matrix(-1, 0, 0, 1, 975.31, 667.57)">H</text><text class="cls-1" transform="matrix(-1, 0, 0, 1, 886.98, 667.57)">O</text><text class="cls-1" transform="matrix(-1, 0, 0, 1, 803, 667.57)">N</text><text class="cls-1" transform="matrix(-1, 0, 0, 1, 714.54, 667.57)">U</text><text class="cls-1" transform="matrix(-1, 0, 0, 1, 624.8, 667.57)">E</text><text class="cls-1" transform="matrix(-1, 0, 0, 1, 535.91, 667.57)">V</text><text class="cls-1" transform="matrix(-1, 0, 0, 1, 451.19, 667.57)">E</text><text class="cls-1" transform="matrix(-1, 0, 0, 1, 365.46, 667.57)">P</text><text class="cls-1" transform="matrix(-1, 0, 0, 1, 284.74, 667.57)">M</text><text class="cls-1" transform="matrix(-1, 0, 0, 1, 1144.79, 763.06)">L</text><text class="cls-1" transform="matrix(-1, 0, 0, 1, 1058.96, 763.06)">A</text><text class="cls-1" transform="matrix(-1, 0, 0, 1, 974.63, 763.06)">D</text><text class="cls-1" transform="matrix(-1, 0, 0, 1, 874.68, 763.06)">I</text><text class="cls-1" transform="matrix(-1, 0, 0, 1, 798.42, 763.06)">E</text><text class="cls-1" transform="matrix(-1, 0, 0, 1, 710.34, 763.06)">Z</text><text class="cls-1" transform="matrix(-1, 0, 0, 1, 624.44, 763.06)">S</text><text class="cls-1" transform="matrix(-1, 0, 0, 1, 539.75, 763.06)">O</text><text class="cls-1" transform="matrix(-1, 0, 0, 1, 455.78, 763.06)">N</text><text class="cls-1" transform="matrix(-1, 0, 0, 1, 365.88, 763.06)">C</text><text class="cls-1" transform="matrix(-1, 0, 0, 1, 277.58, 763.06)">E</text><text class="cls-1" transform="matrix(-1, 0, 0, 1, 1148.24, 858.55)">D</text><text class="cls-1" transform="matrix(-1, 0, 0, 1, 1060.59, 858.55)">O</text><text class="cls-1" transform="matrix(-1, 0, 0, 1, 973.52, 858.55)">C</text><text class="cls-1" transform="matrix(-1, 0, 0, 1, 885.22, 858.55)">E</text><text class="cls-1" transform="matrix(-1, 0, 0, 1, 797.57, 858.55)">L</text><text class="cls-1" transform="matrix(-1, 0, 0, 1, 708.22, 858.55)">Y</text><text class="cls-1" transform="matrix(-1, 0, 0, 1, 631.96, 858.55)">M</text><text class="cls-1" transform="matrix(-1, 0, 0, 1, 538, 858.55)">E</text><text class="cls-1" transform="matrix(-1, 0, 0, 1, 455.78, 858.55)">N</text><text class="cls-1" transform="matrix(-1, 0, 0, 1, 366.14, 858.55)">O</text><text class="cls-1" transform="matrix(-1, 0, 0, 1, 277.22, 858.55)">S</text><text class="cls-1" transform="matrix(-1, 0, 0, 1, 1147.4, 954.03)">O</text><text class="cls-1" transform="matrix(-1, 0, 0, 1, 1056.75, 954.03)">V</text><text class="cls-1" transform="matrix(-1, 0, 0, 1, 972.03, 954.03)">E</text><text class="cls-1" transform="matrix(-1, 0, 0, 1, 874.68, 954.03)">I</text><text class="cls-1" transform="matrix(-1, 0, 0, 1, 803, 954.03)">N</text><text class="cls-1" transform="matrix(-1, 0, 0, 1, 709.69, 954.03)">T</text><text class="cls-1" transform="matrix(-1, 0, 0, 1, 624.8, 954.03)">E</text><text class="cls-1" transform="matrix(-1, 0, 0, 1, 540.6, 954.03)">D</text><text class="cls-1" transform="matrix(-1, 0, 0, 1, 440.65, 954.03)">I</text><text class="cls-1" transform="matrix(-1, 0, 0, 1, 364.38, 954.03)">E</text><text class="cls-1" transform="matrix(-1, 0, 0, 1, 276.31, 954.03)">Z</text><text class="cls-1" transform="matrix(-1, 0, 0, 1, 1143.56, 1049.52)">V</text><text class="cls-1" transform="matrix(-1, 0, 0, 1, 1058.83, 1049.52)">E</text><text class="cls-1" transform="matrix(-1, 0, 0, 1, 961.48, 1049.52)">I</text><text class="cls-1" transform="matrix(-1, 0, 0, 1, 889.81, 1049.52)">N</text><text class="cls-1" transform="matrix(-1, 0, 0, 1, 796.5, 1049.52)">T</text><text class="cls-1" transform="matrix(-1, 0, 0, 1, 701.07, 1049.52)">I</text><text class="cls-1" transform="matrix(-1, 0, 0, 1, 626.3, 1049.52)">C</text><text class="cls-1" transform="matrix(-1, 0, 0, 1, 527.46, 1049.52)">I</text><text class="cls-1" transform="matrix(-1, 0, 0, 1, 455.78, 1049.52)">N</text><text class="cls-1" transform="matrix(-1, 0, 0, 1, 365.88, 1049.52)">C</text><text class="cls-1" transform="matrix(-1, 0, 0, 1, 279.34, 1049.52)">O</text><text class="cls-1" transform="matrix(-1, 0, 0, 1, 1152.8, 1145.01)">M</text><text class="cls-1" transform="matrix(-1, 0, 0, 1, 1058.83, 1145.01)">E</text><text class="cls-1" transform="matrix(-1, 0, 0, 1, 974.63, 1145.01)">D</text><text class="cls-1" transform="matrix(-1, 0, 0, 1, 874.68, 1145.01)">I</text><text class="cls-1" transform="matrix(-1, 0, 0, 1, 798.55, 1145.01)">A</text><text class="cls-1" transform="matrix(-1, 0, 0, 1, 713.1, 1145.01)">C</text><text class="cls-1" transform="matrix(-1, 0, 0, 1, 627.73, 1145.01)">U</text><text class="cls-1" transform="matrix(-1, 0, 0, 1, 538.13, 1145.01)">A</text><text class="cls-1" transform="matrix(-1, 0, 0, 1, 453.11, 1145.01)">R</text><text class="cls-1" transform="matrix(-1, 0, 0, 1, 362.46, 1145.01)">T</text><text class="cls-1" transform="matrix(-1, 0, 0, 1, 279.33, 1145.01)">O</text><text x="-16.51" y="-16.51"/></g><g id="Dots"><circle class="cls-2" cx="1302.16" cy="82.15" r="3.36"/><circle class="cls-2" cx="1302.16" cy="1302.16" r="3.36"/><circle class="cls-2" cx="82.15" cy="1302.16" r="3.36"/><circle class="cls-2" cx="82.15" cy="82.15" r="3.36"/><rect class="cls-3" x="17.01" y="17.01" width="1383.31" height="1383.31" transform="translate(1400.81 1400.81) rotate(-180)"/></g></svg>