<svg xmlns="http://www.w3.org/2000/svg" viewBox="0 0 1384.31 1384.31"><defs><style>.cls-1{fill:#231f20;}.cls-2{fill:none;stroke:#231f20;stroke-miterlimit:10;}</style></defs><g id="Letters"><path class="cls-1" d="M1126.88,302.14V299h24.6V280.34h-21v-3.12h21V258.93h-24.6v-3.12H1155v46.33Z" transform="translate(-16.51 -16.51)"/><path class="cls-1" d="M1040.63,289.69a12,12,0,0,1,1.07-5.12,10.94,10.94,0,0,1,3-3.87,15.82,15.82,0,0,1,1.5-1.08,10.2,10.2,0,0,1,1.72-.85,15.65,15.65,0,0,1,2.18-.61c.83-.18,1.78-.35,2.86-.53l5-.78a18.15,18.15,0,0,0,3.81-1.07,11.37,11.37,0,0,0,3.09-1.79q2.42-2,2.41-6.07a9,9,0,0,0-2.83-7c-1.89-1.72-4.52-2.57-7.91-2.57a18.85,18.85,0,0,0-3.71.32,15,15,0,0,0-2.92.88,13,13,0,0,0-2.41,1.33,24.66,24.66,0,0,0-2.21,1.76l-2.28-2.28a20.75,20.75,0,0,1,6-3.76,20.09,20.09,0,0,1,7.32-1.18q6.7,0,10.54,3.41a11.79,11.79,0,0,1,3.84,9.28,10.52,10.52,0,0,1-3.65,8.52,15.88,15.88,0,0,1-8.26,3.38l-5.4.85c-1,.13-1.76.27-2.41.42a17.62,17.62,0,0,0-1.72.49,5.75,5.75,0,0,0-1.34.65c-.39.26-.8.56-1.23.91a8.31,8.31,0,0,0-2.54,6.51,8.46,8.46,0,0,0,3.19,7.06q3.18,2.5,8.72,2.5a24.66,24.66,0,0,0,3.8-.26,13.47,13.47,0,0,0,3.29-.91,15.7,15.7,0,0,0,3-1.69,24.08,24.08,0,0,0,3-2.6l2.47,2.47a24.42,24.42,0,0,1-3.22,2.73,17.11,17.11,0,0,1-3.51,1.92,19.18,19.18,0,0,1-4,1.11,28.23,28.23,0,0,1-4.72.36q-7.29,0-11.45-3.46A11.53,11.53,0,0,1,1040.63,289.69Z" transform="translate(-16.51 -16.51)"/><path class="cls-1" d="M953.2,279c0-2.6,0-4.85.07-6.73a29.41,29.41,0,0,1,.48-5,14.46,14.46,0,0,1,1.31-3.84,12.87,12.87,0,0,1,2.44-3.25,16,16,0,0,1,5.27-3.52,16.8,16.8,0,0,1,12.62,0,16.19,16.19,0,0,1,5.27,3.52,13.36,13.36,0,0,1,2.44,3.25,14.46,14.46,0,0,1,1.3,3.84,29.33,29.33,0,0,1,.49,5c0,1.88.06,4.13.06,6.73s0,4.86-.06,6.77a29.5,29.5,0,0,1-.49,5,14,14,0,0,1-1.3,3.81,13.83,13.83,0,0,1-2.44,3.22,16,16,0,0,1-5.27,3.51,16.67,16.67,0,0,1-12.62,0,15.8,15.8,0,0,1-5.27-3.51,13.29,13.29,0,0,1-2.44-3.22,14,14,0,0,1-1.31-3.81,29.58,29.58,0,0,1-.48-5Q953.2,282.88,953.2,279Zm3.52,0q0,3.7.09,6.35a32.08,32.08,0,0,0,.46,4.55,12.1,12.1,0,0,0,1.07,3.32,10.61,10.61,0,0,0,1.95,2.63,11.82,11.82,0,0,0,4,2.67,12.85,12.85,0,0,0,9.5,0,11.78,11.78,0,0,0,4-2.67,10.13,10.13,0,0,0,1.95-2.63,12.1,12.1,0,0,0,1.08-3.32,30.79,30.79,0,0,0,.45-4.55q.1-2.64.1-6.35c0-2.47,0-4.59-.1-6.34a30.8,30.8,0,0,0-.45-4.56,12.21,12.21,0,0,0-1.08-3.32,10.13,10.13,0,0,0-1.95-2.63,11.92,11.92,0,0,0-4-2.67,12.85,12.85,0,0,0-9.5,0,12,12,0,0,0-4,2.67,10.61,10.61,0,0,0-1.95,2.63,12.22,12.22,0,0,0-1.07,3.32,32.08,32.08,0,0,0-.46,4.56C956.75,274.38,956.72,276.5,956.72,279Z" transform="translate(-16.51 -16.51)"/><path class="cls-1" d="M865.39,302.14V255.81h3.51V296l26.74-40.14h3.52v46.33h-3.52V261.86L868.9,302.14Z" transform="translate(-16.51 -16.51)"/><path class="cls-1" d="M779.66,302.14V299h24.59V280.34h-21v-3.12h21V258.93H779.66v-3.12h28.11v46.33Z" transform="translate(-16.51 -16.51)"/><path class="cls-1" d="M692,302.14V299h24.6v-43.2h3.51v46.33Z" transform="translate(-16.51 -16.51)"/><path class="cls-1" d="M603.25,302.14l17-46.33h3.13l17,46.33h-3.77l-4-11.26H611.05l-4,11.26Zm8.91-14.38h19.39l-9.7-27.27Z" transform="translate(-16.51 -16.51)"/><path class="cls-1" d="M519.79,289.69a12.13,12.13,0,0,1,1.07-5.12,11.05,11.05,0,0,1,3-3.87,15.82,15.82,0,0,1,1.5-1.08,10.31,10.31,0,0,1,1.73-.85,15.49,15.49,0,0,1,2.17-.61c.83-.18,1.78-.35,2.87-.53l5-.78a18.06,18.06,0,0,0,3.8-1.07A11.59,11.59,0,0,0,544,274q2.4-2,2.4-6.07a9,9,0,0,0-2.83-7c-1.88-1.72-4.52-2.57-7.9-2.57a18.78,18.78,0,0,0-3.71.32,15.09,15.09,0,0,0-2.93.88,13,13,0,0,0-2.41,1.33,26.17,26.17,0,0,0-2.21,1.76l-2.28-2.28a20.89,20.89,0,0,1,6-3.76,20.13,20.13,0,0,1,7.32-1.18q6.71,0,10.54,3.41a11.79,11.79,0,0,1,3.84,9.28,10.51,10.51,0,0,1-3.64,8.52,15.92,15.92,0,0,1-8.27,3.38l-5.4.85q-1.42.19-2.4.42a17.88,17.88,0,0,0-1.73.49,5.67,5.67,0,0,0-1.33.65c-.39.26-.8.56-1.24.91a8.31,8.31,0,0,0-2.54,6.51,8.49,8.49,0,0,0,3.19,7.06c2.13,1.67,5,2.5,8.72,2.5a24.8,24.8,0,0,0,3.81-.26,13.39,13.39,0,0,0,3.28-.91,15.7,15.7,0,0,0,3-1.69,24.08,24.08,0,0,0,3-2.6l2.48,2.47a25.09,25.09,0,0,1-3.22,2.73,17.45,17.45,0,0,1-3.52,1.92,19,19,0,0,1-4,1.11,28.11,28.11,0,0,1-4.71.36q-7.29,0-11.46-3.46A11.56,11.56,0,0,1,519.79,289.69Z" transform="translate(-16.51 -16.51)"/><path class="cls-1" d="M432.37,287.11v-31.3h3.51v30.84a14.93,14.93,0,0,0,.88,5.24,10.94,10.94,0,0,0,6.41,6.6,14.61,14.61,0,0,0,10.15,0,11,11,0,0,0,6.41-6.6,15.16,15.16,0,0,0,.87-5.24V255.81h3.52v31.3a16.12,16.12,0,0,1-1.17,6.21,14.35,14.35,0,0,1-3.29,4.88,15,15,0,0,1-5,3.19,18.59,18.59,0,0,1-12.82,0,15,15,0,0,1-5-3.19,14.33,14.33,0,0,1-3.28-4.88A16.12,16.12,0,0,1,432.37,287.11Z" transform="translate(-16.51 -16.51)"/><path class="cls-1" d="M344.55,302.14V255.81h3.52V296l26.74-40.14h3.51v46.33h-3.51V261.86l-26.74,40.28Z" transform="translate(-16.51 -16.51)"/><path class="cls-1" d="M256,302.14l17.05-46.33h3.12l17.05,46.33h-3.77l-4-11.26h-21.6l-4,11.26Zm8.92-14.38h19.39l-9.7-27.27Z" transform="translate(-16.51 -16.51)"/><path class="cls-1" d="M1126,373.81c0-1.56,0-3.18,0-4.85a30,30,0,0,1,.46-4.88,22.14,22.14,0,0,1,1.33-4.59,12.29,12.29,0,0,1,2.67-4q4.23-4.23,11.58-4.23h15.55v46.33H1142a19.1,19.1,0,0,1-6.57-1.07,13.67,13.67,0,0,1-5-3.16,11.71,11.71,0,0,1-2.67-4.16,25.59,25.59,0,0,1-1.33-5,36.53,36.53,0,0,1-.46-5.34Q1126,376.15,1126,373.81Zm3.51,0c0,1.3,0,2.74,0,4.32a44.4,44.4,0,0,0,.32,4.75,22.63,22.63,0,0,0,1,4.49,9.45,9.45,0,0,0,2.08,3.55,10.41,10.41,0,0,0,4.59,2.83,19,19,0,0,0,5.37.75h11.19V354.42h-11.19a19,19,0,0,0-5.37.75,10.32,10.32,0,0,0-4.59,2.83,9.71,9.71,0,0,0-2.08,3.35,19,19,0,0,0-1,4,35.8,35.8,0,0,0-.32,4.3C1129.49,371.13,1129.48,372.51,1129.48,373.81Z" transform="translate(-16.51 -16.51)"/><path class="cls-1" d="M1040,374.46q0-3.9.06-6.74a30.38,30.38,0,0,1,.49-5,14.34,14.34,0,0,1,1.3-3.84,13.6,13.6,0,0,1,2.44-3.26,16.17,16.17,0,0,1,5.27-3.51,16.7,16.7,0,0,1,12.63,0,16.17,16.17,0,0,1,5.27,3.51,13.6,13.6,0,0,1,2.44,3.26,14.34,14.34,0,0,1,1.3,3.84,30.38,30.38,0,0,1,.49,5q.06,2.83.06,6.74c0,2.6,0,4.86-.06,6.76a30.8,30.8,0,0,1-.49,5,13.81,13.81,0,0,1-1.3,3.8,13.62,13.62,0,0,1-2.44,3.22,16.19,16.19,0,0,1-5.27,3.52,16.83,16.83,0,0,1-12.63,0,16.19,16.19,0,0,1-5.27-3.52,13.62,13.62,0,0,1-2.44-3.22,13.81,13.81,0,0,1-1.3-3.8,30.8,30.8,0,0,1-.49-5C1040,379.32,1040,377.06,1040,374.46Zm3.51,0c0,2.47,0,4.59.1,6.34a30.68,30.68,0,0,0,.46,4.56,11.88,11.88,0,0,0,1.07,3.32,10.61,10.61,0,0,0,1.95,2.63,12,12,0,0,0,4,2.67,12.85,12.85,0,0,0,9.5,0,12,12,0,0,0,4-2.67,10.61,10.61,0,0,0,1.95-2.63,11.88,11.88,0,0,0,1.07-3.32,30.68,30.68,0,0,0,.46-4.56c.06-1.75.1-3.87.1-6.34s0-4.59-.1-6.35a30.67,30.67,0,0,0-.46-4.55,11.77,11.77,0,0,0-1.07-3.32,10.61,10.61,0,0,0-1.95-2.63,11.82,11.82,0,0,0-4-2.67,12.85,12.85,0,0,0-9.5,0,11.87,11.87,0,0,0-4,2.67,10.61,10.61,0,0,0-1.95,2.63,11.77,11.77,0,0,0-1.07,3.32,30.67,30.67,0,0,0-.46,4.55Q1043.51,370.75,1043.52,374.46Z" transform="translate(-16.51 -16.51)"/><path class="cls-1" d="M953.82,385.17a12.08,12.08,0,0,1,1.07-5.11,11.18,11.18,0,0,1,3-3.88,14.12,14.12,0,0,1,1.5-1.07,9.84,9.84,0,0,1,1.72-.85,15.58,15.58,0,0,1,2.18-.62c.83-.17,1.78-.35,2.87-.52l5-.78a18.09,18.09,0,0,0,3.8-1.08,11.12,11.12,0,0,0,3.09-1.79q2.41-2,2.41-6.06a9,9,0,0,0-2.83-7q-2.83-2.58-7.9-2.58a18.74,18.74,0,0,0-3.71.33,14.43,14.43,0,0,0-2.93.88,12.48,12.48,0,0,0-2.41,1.33,26.17,26.17,0,0,0-2.21,1.76l-2.28-2.28a20.93,20.93,0,0,1,6-3.77,20.34,20.34,0,0,1,7.32-1.18q6.71,0,10.54,3.42a11.79,11.79,0,0,1,3.84,9.27,10.52,10.52,0,0,1-3.64,8.53A15.92,15.92,0,0,1,972,375.5l-5.4.84c-1,.14-1.75.28-2.4.43a14.83,14.83,0,0,0-1.73.49,5.67,5.67,0,0,0-1.33.65c-.39.26-.81.56-1.24.91a8.3,8.3,0,0,0-2.54,6.5,8.47,8.47,0,0,0,3.19,7.06c2.13,1.67,5,2.51,8.72,2.51a26.13,26.13,0,0,0,3.81-.26,13.85,13.85,0,0,0,3.28-.91,16.25,16.25,0,0,0,3-1.69,25.09,25.09,0,0,0,3-2.61l2.48,2.48a25.09,25.09,0,0,1-3.22,2.73,17.45,17.45,0,0,1-3.52,1.92,18.4,18.4,0,0,1-4,1.1,28.23,28.23,0,0,1-4.72.36q-7.27,0-11.45-3.45A11.56,11.56,0,0,1,953.82,385.17Z" transform="translate(-16.51 -16.51)"/><path class="cls-1" d="M880.52,397.62V351.29H884v46.33Z" transform="translate(-16.51 -16.51)"/><path class="cls-1" d="M779.88,354.42v-3.13h31.17v3.13H797.26v43.2h-3.52v-43.2Z" transform="translate(-16.51 -16.51)"/><path class="cls-1" d="M691.45,397.62l11.19-21.4a13.11,13.11,0,0,1-7.77-4.07,12.14,12.14,0,0,1-2.9-8.43,13.4,13.4,0,0,1,1-5.33,10.67,10.67,0,0,1,2.8-3.91,12.15,12.15,0,0,1,4.23-2.37,16.49,16.49,0,0,1,5.24-.82h17.63v46.33h-3.52V376.28H706.61l-11.06,21.34Zm4-33.83a10.74,10.74,0,0,0,.74,4.16,7.88,7.88,0,0,0,2.12,2.93,8.52,8.52,0,0,0,3.25,1.72,14.51,14.51,0,0,0,4.1.56h13.66V354.42H705.7a14.52,14.52,0,0,0-4.1.55,8.54,8.54,0,0,0-3.25,1.73,7.84,7.84,0,0,0-2.12,2.92A10.75,10.75,0,0,0,695.49,363.79Z" transform="translate(-16.51 -16.51)"/><path class="cls-1" d="M606,397.62V394.5h24.6V375.82H609.69V372.7h20.95V354.42H606v-3.13h28.11v46.33Z" transform="translate(-16.51 -16.51)"/><path class="cls-1" d="M519.79,385.17a12.08,12.08,0,0,1,1.07-5.11,11.18,11.18,0,0,1,3-3.88,14.12,14.12,0,0,1,1.5-1.07,9.6,9.6,0,0,1,1.73-.85,15.42,15.42,0,0,1,2.17-.62c.83-.17,1.78-.35,2.87-.52l5-.78a18.09,18.09,0,0,0,3.8-1.08,11.33,11.33,0,0,0,3.1-1.79q2.4-2,2.4-6.06a9,9,0,0,0-2.83-7c-1.88-1.72-4.52-2.58-7.9-2.58a18.74,18.74,0,0,0-3.71.33A14.43,14.43,0,0,0,529,355a12.48,12.48,0,0,0-2.41,1.33,26.17,26.17,0,0,0-2.21,1.76l-2.28-2.28a20.93,20.93,0,0,1,6-3.77,20.34,20.34,0,0,1,7.32-1.18q6.71,0,10.54,3.42a11.79,11.79,0,0,1,3.84,9.27,10.52,10.52,0,0,1-3.64,8.53,15.92,15.92,0,0,1-8.27,3.38l-5.4.84c-.95.14-1.75.28-2.4.43a15.42,15.42,0,0,0-1.73.49,5.67,5.67,0,0,0-1.33.65c-.39.26-.8.56-1.24.91a8.3,8.3,0,0,0-2.54,6.5,8.47,8.47,0,0,0,3.19,7.06c2.13,1.67,5,2.51,8.72,2.51a26.13,26.13,0,0,0,3.81-.26,13.85,13.85,0,0,0,3.28-.91,16.25,16.25,0,0,0,3-1.69,25.09,25.09,0,0,0,3-2.61l2.48,2.48a25.09,25.09,0,0,1-3.22,2.73,17.45,17.45,0,0,1-3.52,1.92,18.4,18.4,0,0,1-4,1.1,28.11,28.11,0,0,1-4.71.36q-7.29,0-11.46-3.45A11.56,11.56,0,0,1,519.79,385.17Z" transform="translate(-16.51 -16.51)"/><path class="cls-1" d="M432.37,374.46q0-3.9.06-6.74a29.31,29.31,0,0,1,.49-5,14,14,0,0,1,1.3-3.84,13.6,13.6,0,0,1,2.44-3.26,16.17,16.17,0,0,1,5.27-3.51,16.67,16.67,0,0,1,12.62,0,16,16,0,0,1,5.27,3.51,13.09,13.09,0,0,1,2.44,3.26,14.34,14.34,0,0,1,1.31,3.84,29.39,29.39,0,0,1,.48,5q.07,2.83.07,6.74c0,2.6,0,4.86-.07,6.76a29.81,29.81,0,0,1-.48,5,13.82,13.82,0,0,1-1.31,3.8,13.11,13.11,0,0,1-2.44,3.22,16,16,0,0,1-5.27,3.52,16.8,16.8,0,0,1-12.62,0,16.19,16.19,0,0,1-5.27-3.52,12.69,12.69,0,0,1-3.74-7,29.73,29.73,0,0,1-.49-5C432.39,379.32,432.37,377.06,432.37,374.46Zm3.51,0c0,2.47,0,4.59.1,6.34a32.21,32.21,0,0,0,.45,4.56,12.21,12.21,0,0,0,1.08,3.32,10.13,10.13,0,0,0,1.95,2.63,11.92,11.92,0,0,0,4,2.67,12.85,12.85,0,0,0,9.5,0,12,12,0,0,0,4-2.67,10.61,10.61,0,0,0,2-2.63,12.22,12.22,0,0,0,1.07-3.32,32.08,32.08,0,0,0,.46-4.56c.06-1.75.1-3.87.1-6.34s0-4.59-.1-6.35a32.08,32.08,0,0,0-.46-4.55,12.1,12.1,0,0,0-1.07-3.32,10.61,10.61,0,0,0-2-2.63,11.82,11.82,0,0,0-4-2.67,12.85,12.85,0,0,0-9.5,0,11.78,11.78,0,0,0-4,2.67,10.13,10.13,0,0,0-1.95,2.63,12.1,12.1,0,0,0-1.08,3.32,32.21,32.21,0,0,0-.45,4.55Q435.88,370.75,435.88,374.46Z" transform="translate(-16.51 -16.51)"/><path class="cls-1" d="M342.83,397.62l17.05-46.33H363l17.05,46.33h-3.78l-4-11.25h-21.6l-4,11.25Zm8.91-14.38h19.39L361.44,356Z" transform="translate(-16.51 -16.51)"/><path class="cls-1" d="M255.18,397.62V351.29h3.51L274.44,387l16.13-35.73h3.52v46.33h-3.52V359.43l-14.31,31.68h-3.52l-14.05-31.68v38.19Z" transform="translate(-16.51 -16.51)"/><path class="cls-1" d="M1126.68,480h3.45a13.4,13.4,0,0,0,4.33,7.61,11.91,11.91,0,0,0,8,2.8,12.82,12.82,0,0,0,4.75-.91,12.06,12.06,0,0,0,4-2.67,10.65,10.65,0,0,0,2-2.64,12.45,12.45,0,0,0,1.07-3.32,31.92,31.92,0,0,0,.46-4.55q.09-2.64.09-6.34c0-2.48,0-4.59-.09-6.35a31.92,31.92,0,0,0-.46-4.55,12.45,12.45,0,0,0-1.07-3.32,10.84,10.84,0,0,0-2-2.64,11.89,11.89,0,0,0-4-2.66,12.63,12.63,0,0,0-4.75-.92,11.64,11.64,0,0,0-7.9,2.8,13.59,13.59,0,0,0-4.27,7.61h-3.58a19.25,19.25,0,0,1,2-5.62A15.53,15.53,0,0,1,1132,450a14.55,14.55,0,0,1,4.65-2.7,17.22,17.22,0,0,1,5.76-.94,16.25,16.25,0,0,1,6.31,1.24,15.8,15.8,0,0,1,5.27,3.51,13.3,13.3,0,0,1,2.44,3.25,14.11,14.11,0,0,1,1.3,3.84,28.34,28.34,0,0,1,.49,5c0,1.89.07,4.13.07,6.74s0,4.85-.07,6.76a28.51,28.51,0,0,1-.49,5,12.67,12.67,0,0,1-3.74,7,15.8,15.8,0,0,1-5.27,3.51,16.25,16.25,0,0,1-6.31,1.24,16.94,16.94,0,0,1-5.69-.94,14.86,14.86,0,0,1-4.69-2.7,15.26,15.26,0,0,1-3.41-4.27A19.25,19.25,0,0,1,1126.68,480Z" transform="translate(-16.51 -16.51)"/><path class="cls-1" d="M1040,478.08v-31.3h3.51v30.84a14.89,14.89,0,0,0,.88,5.24,11,11,0,0,0,6.41,6.61,14.61,14.61,0,0,0,10.15,0,11.06,11.06,0,0,0,6.41-6.61,15.12,15.12,0,0,0,.88-5.24V446.78h3.51v31.3a16.12,16.12,0,0,1-1.17,6.21,14.26,14.26,0,0,1-3.29,4.88,15,15,0,0,1-5,3.19,18.59,18.59,0,0,1-12.82,0,15.06,15.06,0,0,1-5-3.19,14.37,14.37,0,0,1-3.28-4.88A16.12,16.12,0,0,1,1040,478.08Z" transform="translate(-16.51 -16.51)"/><path class="cls-1" d="M950.47,493.11l17-46.33h3.12l17.05,46.33h-3.78l-4-11.26h-21.6l-4,11.26Zm8.91-14.38h19.39l-9.69-27.26Z" transform="translate(-16.51 -16.51)"/><path class="cls-1" d="M866.69,449.9v-3.12h31.17v3.12h-13.8v43.21h-3.51V449.9Z" transform="translate(-16.51 -16.51)"/><path class="cls-1" d="M778.26,493.11l11.19-21.41a13.08,13.08,0,0,1-7.78-4.07,12.1,12.1,0,0,1-2.89-8.42,13.25,13.25,0,0,1,1-5.34,10.61,10.61,0,0,1,2.8-3.9,12.38,12.38,0,0,1,4.22-2.38,16.58,16.58,0,0,1,5.24-.81h17.63v46.33h-3.51V471.77H793.42l-11.06,21.34Zm4-33.84a10.57,10.57,0,0,0,.75,4.17,7.77,7.77,0,0,0,2.12,2.93,8.66,8.66,0,0,0,3.25,1.72,14.47,14.47,0,0,0,4.1.55h13.66V449.9H792.51a14.46,14.46,0,0,0-4.1.56,8.66,8.66,0,0,0-3.25,1.72,7.77,7.77,0,0,0-2.12,2.93A10.55,10.55,0,0,0,782.29,459.27Z" transform="translate(-16.51 -16.51)"/><path class="cls-1" d="M692.78,470c0-2.61,0-4.85.07-6.74a29.33,29.33,0,0,1,.49-5,14.11,14.11,0,0,1,1.3-3.84,13.3,13.3,0,0,1,2.44-3.25,15.91,15.91,0,0,1,5.27-3.51,16.67,16.67,0,0,1,12.62,0,15.91,15.91,0,0,1,5.27,3.51,13.3,13.3,0,0,1,2.44,3.25,14.11,14.11,0,0,1,1.3,3.84,28.34,28.34,0,0,1,.49,5c0,1.89.07,4.13.07,6.74s0,4.85-.07,6.76a28.51,28.51,0,0,1-.49,5,12.67,12.67,0,0,1-3.74,7,15.91,15.91,0,0,1-5.27,3.51,16.67,16.67,0,0,1-12.62,0,15.91,15.91,0,0,1-5.27-3.51,12.67,12.67,0,0,1-3.74-7,29.5,29.5,0,0,1-.49-5C692.81,474.8,692.78,472.55,692.78,470Zm3.52,0q0,3.71.1,6.34a30.65,30.65,0,0,0,.45,4.55,12.1,12.1,0,0,0,1.08,3.32,10.18,10.18,0,0,0,2,2.64,11.92,11.92,0,0,0,4,2.67,12.85,12.85,0,0,0,9.5,0,11.92,11.92,0,0,0,4-2.67,10.45,10.45,0,0,0,2-2.64,12.45,12.45,0,0,0,1.07-3.32,31.92,31.92,0,0,0,.46-4.55q.09-2.64.09-6.34c0-2.48,0-4.59-.09-6.35a31.92,31.92,0,0,0-.46-4.55,12.45,12.45,0,0,0-1.07-3.32,10.63,10.63,0,0,0-2-2.64,11.75,11.75,0,0,0-4-2.66,12.72,12.72,0,0,0-9.5,0,11.75,11.75,0,0,0-4,2.66,10.34,10.34,0,0,0-2,2.64,12.1,12.1,0,0,0-1.08,3.32,30.65,30.65,0,0,0-.45,4.55C696.33,465.36,696.3,467.47,696.3,470Z" transform="translate(-16.51 -16.51)"/><path class="cls-1" d="M605.85,480h3.45a13.34,13.34,0,0,0,4.32,7.61,11.91,11.91,0,0,0,8,2.8,12.78,12.78,0,0,0,4.75-.91,12,12,0,0,0,4-2.67,10.65,10.65,0,0,0,2-2.64,11.77,11.77,0,0,0,1.07-3.32,31.92,31.92,0,0,0,.46-4.55c.06-1.76.1-3.87.1-6.34s0-4.59-.1-6.35a31.92,31.92,0,0,0-.46-4.55,11.77,11.77,0,0,0-1.07-3.32,10.84,10.84,0,0,0-2-2.64,11.79,11.79,0,0,0-4-2.66,12.59,12.59,0,0,0-4.75-.92,11.66,11.66,0,0,0-7.9,2.8,13.52,13.52,0,0,0-4.26,7.61h-3.58a19,19,0,0,1,1.95-5.62,15.53,15.53,0,0,1,3.38-4.27,14.5,14.5,0,0,1,4.66-2.7,17.12,17.12,0,0,1,5.75-.94,16.3,16.3,0,0,1,6.32,1.24,16,16,0,0,1,5.27,3.51,13.55,13.55,0,0,1,2.44,3.25,14.46,14.46,0,0,1,1.3,3.84,30.39,30.39,0,0,1,.49,5c0,1.89.06,4.13.06,6.74s0,4.85-.06,6.76a30.56,30.56,0,0,1-.49,5,14,14,0,0,1-1.3,3.81,13.83,13.83,0,0,1-2.44,3.22,16,16,0,0,1-5.27,3.51,16.3,16.3,0,0,1-6.32,1.24,17,17,0,0,1-5.69-.94,14.7,14.7,0,0,1-4.68-2.7,15.12,15.12,0,0,1-3.42-4.27A19,19,0,0,1,605.85,480Z" transform="translate(-16.51 -16.51)"/><path class="cls-1" d="M533.29,493.11V446.78h3.51v46.33Z" transform="translate(-16.51 -16.51)"/><path class="cls-1" d="M431.36,493.11V446.78h3.51v40.15l26.74-40.15h3.52v46.33h-3.52V452.83l-26.74,40.28Z" transform="translate(-16.51 -16.51)"/><path class="cls-1" d="M345.43,480h3.45a13.35,13.35,0,0,0,4.33,7.61,11.89,11.89,0,0,0,8,2.8,12.82,12.82,0,0,0,4.75-.91,12,12,0,0,0,4-2.67,10.41,10.41,0,0,0,2-2.64,12.1,12.1,0,0,0,1.08-3.32,32.06,32.06,0,0,0,.45-4.55q.1-2.64.1-6.34c0-2.48,0-4.59-.1-6.35a32.06,32.06,0,0,0-.45-4.55,12.1,12.1,0,0,0-1.08-3.32,10.59,10.59,0,0,0-2-2.64,11.85,11.85,0,0,0-4-2.66,12.63,12.63,0,0,0-4.75-.92,11.66,11.66,0,0,0-7.91,2.8,13.52,13.52,0,0,0-4.26,7.61h-3.58a19,19,0,0,1,1.95-5.62,15.38,15.38,0,0,1,3.39-4.27,14.34,14.34,0,0,1,4.65-2.7,17.18,17.18,0,0,1,5.76-.94,16.28,16.28,0,0,1,6.31,1.24,16,16,0,0,1,5.27,3.51,13.55,13.55,0,0,1,2.44,3.25,14.46,14.46,0,0,1,1.3,3.84,30.39,30.39,0,0,1,.49,5c0,1.89.06,4.13.06,6.74s0,4.85-.06,6.76a30.56,30.56,0,0,1-.49,5,14,14,0,0,1-1.3,3.81,13.83,13.83,0,0,1-2.44,3.22,16,16,0,0,1-5.27,3.51,16.28,16.28,0,0,1-6.31,1.24,17,17,0,0,1-5.7-.94,14.81,14.81,0,0,1-4.68-2.7,15.12,15.12,0,0,1-3.42-4.27A19,19,0,0,1,345.43,480Z" transform="translate(-16.51 -16.51)"/><path class="cls-1" d="M258.75,470c0-2.61,0-4.85.07-6.74a29.33,29.33,0,0,1,.49-5,14.11,14.11,0,0,1,1.3-3.84,13.3,13.3,0,0,1,2.44-3.25,15.91,15.91,0,0,1,5.27-3.51,16.67,16.67,0,0,1,12.62,0,15.91,15.91,0,0,1,5.27,3.51,13.3,13.3,0,0,1,2.44,3.25,14.11,14.11,0,0,1,1.3,3.84,28.34,28.34,0,0,1,.49,5c.05,1.89.07,4.13.07,6.74s0,4.85-.07,6.76a28.51,28.51,0,0,1-.49,5,12.67,12.67,0,0,1-3.74,7,15.91,15.91,0,0,1-5.27,3.51,16.67,16.67,0,0,1-12.62,0,15.91,15.91,0,0,1-5.27-3.51,12.67,12.67,0,0,1-3.74-7,29.5,29.5,0,0,1-.49-5C258.78,474.8,258.75,472.55,258.75,470Zm3.52,0q0,3.71.1,6.34a30.65,30.65,0,0,0,.45,4.55,12.45,12.45,0,0,0,1.07,3.32,10.45,10.45,0,0,0,2,2.64,11.92,11.92,0,0,0,4,2.67,12.85,12.85,0,0,0,9.5,0,11.92,11.92,0,0,0,4-2.67,10.45,10.45,0,0,0,2-2.64,12.45,12.45,0,0,0,1.07-3.32,31.92,31.92,0,0,0,.46-4.55q.09-2.64.09-6.34c0-2.48,0-4.59-.09-6.35a31.92,31.92,0,0,0-.46-4.55,12.45,12.45,0,0,0-1.07-3.32,10.63,10.63,0,0,0-2-2.64,11.75,11.75,0,0,0-4-2.66,12.72,12.72,0,0,0-9.5,0,11.75,11.75,0,0,0-4,2.66,10.63,10.63,0,0,0-2,2.64,12.45,12.45,0,0,0-1.07,3.32,30.65,30.65,0,0,0-.45,4.55C262.3,465.36,262.27,467.47,262.27,470Z" transform="translate(-16.51 -16.51)"/><path class="cls-1" d="M1127.43,576.15a12,12,0,0,1,1.08-5.12,10.82,10.82,0,0,1,3-3.87,15.68,15.68,0,0,1,1.49-1.08,10.31,10.31,0,0,1,1.73-.85,15.26,15.26,0,0,1,2.18-.61c.82-.18,1.78-.35,2.86-.53l5-.78a18.32,18.32,0,0,0,3.81-1.07,11.69,11.69,0,0,0,3.09-1.79c1.6-1.35,2.41-3.37,2.41-6.07a9,9,0,0,0-2.83-7c-1.89-1.72-4.53-2.57-7.91-2.57a18.85,18.85,0,0,0-3.71.32,15.3,15.3,0,0,0-2.93.88,13.38,13.38,0,0,0-2.41,1.33,27.87,27.87,0,0,0-2.21,1.76l-2.27-2.28a20.84,20.84,0,0,1,6-3.76,20.13,20.13,0,0,1,7.32-1.18q6.71,0,10.55,3.41a11.79,11.79,0,0,1,3.83,9.28,10.51,10.51,0,0,1-3.64,8.52,15.88,15.88,0,0,1-8.26,3.38l-5.4.85c-1,.13-1.76.27-2.41.42a17.88,17.88,0,0,0-1.73.49,5.87,5.87,0,0,0-1.33.65c-.39.26-.8.56-1.24.91a8.3,8.3,0,0,0-2.53,6.51,8.46,8.46,0,0,0,3.19,7.06c2.12,1.67,5,2.5,8.71,2.5a24.8,24.8,0,0,0,3.81-.26,13.47,13.47,0,0,0,3.29-.91,15.34,15.34,0,0,0,3-1.69,23.44,23.44,0,0,0,3-2.6l2.47,2.47a24.42,24.42,0,0,1-3.22,2.73,17.65,17.65,0,0,1-3.51,1.92,19.18,19.18,0,0,1-4,1.11,28.32,28.32,0,0,1-4.72.36q-7.29,0-11.45-3.46A11.53,11.53,0,0,1,1127.43,576.15Z" transform="translate(-16.51 -16.51)"/><path class="cls-1" d="M1040.07,588.6v-3.13h24.6V566.8h-21v-3.12h21V545.39h-24.6v-3.12h28.11V588.6Z" transform="translate(-16.51 -16.51)"/><path class="cls-1" d="M967.32,588.6V542.27h3.52V588.6Z" transform="translate(-16.51 -16.51)"/><path class="cls-1" d="M867,576.15a12,12,0,0,1,1.08-5.12,10.82,10.82,0,0,1,3-3.87,14.63,14.63,0,0,1,1.5-1.08,10.2,10.2,0,0,1,1.72-.85,15.65,15.65,0,0,1,2.18-.61c.82-.18,1.78-.35,2.86-.53l5-.78a18.32,18.32,0,0,0,3.81-1.07,11.53,11.53,0,0,0,3.09-1.79q2.41-2,2.41-6.07a9,9,0,0,0-2.83-7c-1.89-1.72-4.53-2.57-7.91-2.57a18.85,18.85,0,0,0-3.71.32,15.3,15.3,0,0,0-2.93.88,13.29,13.29,0,0,0-2.4,1.33,26.27,26.27,0,0,0-2.22,1.76l-2.27-2.28a20.75,20.75,0,0,1,6-3.76,20.05,20.05,0,0,1,7.32-1.18q6.69,0,10.54,3.41a11.79,11.79,0,0,1,3.84,9.28,10.52,10.52,0,0,1-3.65,8.52,15.88,15.88,0,0,1-8.26,3.38l-5.4.85c-1,.13-1.76.27-2.41.42a16.85,16.85,0,0,0-1.72.49,5.75,5.75,0,0,0-1.34.65c-.39.26-.8.56-1.23.91a8.27,8.27,0,0,0-2.54,6.51,8.46,8.46,0,0,0,3.19,7.06c2.12,1.67,5,2.5,8.71,2.5a24.8,24.8,0,0,0,3.81-.26,13.47,13.47,0,0,0,3.29-.91,15.34,15.34,0,0,0,3-1.69,23.44,23.44,0,0,0,3-2.6l2.47,2.47a24.42,24.42,0,0,1-3.22,2.73,17.65,17.65,0,0,1-3.51,1.92,19.18,19.18,0,0,1-4,1.11,28.23,28.23,0,0,1-4.72.36q-7.29,0-11.45-3.46A11.53,11.53,0,0,1,867,576.15Z" transform="translate(-16.51 -16.51)"/><path class="cls-1" d="M776.86,588.6l17-46.33H797l17.05,46.33H810.3l-4-11.26h-21.6l-4,11.26Zm8.91-14.38h19.39L795.47,547Z" transform="translate(-16.51 -16.51)"/><path class="cls-1" d="M693.4,576.15a12,12,0,0,1,1.08-5.12,10.82,10.82,0,0,1,3-3.87,15.68,15.68,0,0,1,1.49-1.08,10.31,10.31,0,0,1,1.73-.85,15.26,15.26,0,0,1,2.18-.61c.82-.18,1.78-.35,2.86-.53l5-.78a18.32,18.32,0,0,0,3.81-1.07,11.69,11.69,0,0,0,3.09-1.79q2.4-2,2.4-6.07a9,9,0,0,0-2.83-7c-1.88-1.72-4.52-2.57-7.9-2.57a18.85,18.85,0,0,0-3.71.32,15.3,15.3,0,0,0-2.93.88,12.64,12.64,0,0,0-2.4,1.33A26.27,26.27,0,0,0,698,549.1l-2.27-2.28a20.84,20.84,0,0,1,6-3.76,20.13,20.13,0,0,1,7.32-1.18q6.7,0,10.55,3.41a11.82,11.82,0,0,1,3.83,9.28,10.51,10.51,0,0,1-3.64,8.52,15.88,15.88,0,0,1-8.26,3.38l-5.4.85c-1,.13-1.76.27-2.41.42a17.88,17.88,0,0,0-1.73.49,5.87,5.87,0,0,0-1.33.65c-.39.26-.8.56-1.24.91a8.3,8.3,0,0,0-2.53,6.51,8.48,8.48,0,0,0,3.18,7.06q3.2,2.5,8.72,2.5a24.8,24.8,0,0,0,3.81-.26,13.47,13.47,0,0,0,3.29-.91,15.34,15.34,0,0,0,3-1.69,23.44,23.44,0,0,0,3-2.6l2.47,2.47a24.42,24.42,0,0,1-3.22,2.73,17.65,17.65,0,0,1-3.51,1.92,19.18,19.18,0,0,1-4,1.11A28.23,28.23,0,0,1,709,589q-7.29,0-11.45-3.46A11.53,11.53,0,0,1,693.4,576.15Z" transform="translate(-16.51 -16.51)"/><path class="cls-1" d="M620.1,588.6V542.27h3.51V588.6Z" transform="translate(-16.51 -16.51)"/><path class="cls-1" d="M519.24,588.6v-3.13h24.59V566.8h-21v-3.12h21V545.39H519.24v-3.12h28.11V588.6Z" transform="translate(-16.51 -16.51)"/><path class="cls-1" d="M432.66,545.39v-3.12h31.17v3.12H450V588.6h-3.51V545.39Z" transform="translate(-16.51 -16.51)"/><path class="cls-1" d="M345.63,588.6v-3.13h24.59V566.8h-21v-3.12h21V545.39H345.63v-3.12h28.1V588.6Z" transform="translate(-16.51 -16.51)"/><path class="cls-1" d="M257.75,588.6V542.27h3.51v40.14L288,542.27h3.52V588.6H288V548.32L261.26,588.6Z" transform="translate(-16.51 -16.51)"/><path class="cls-1" d="M1126.82,660.92q0-3.9.06-6.74a30.38,30.38,0,0,1,.49-5,14,14,0,0,1,1.3-3.84,13.4,13.4,0,0,1,2.44-3.26,16.17,16.17,0,0,1,5.27-3.51,16.67,16.67,0,0,1,12.62,0,16,16,0,0,1,5.27,3.51,13.15,13.15,0,0,1,2.44,3.26,14,14,0,0,1,1.3,3.84,28.32,28.32,0,0,1,.49,5q.07,2.84.07,6.74c0,2.6,0,4.86-.07,6.76a28.73,28.73,0,0,1-.49,5,12.69,12.69,0,0,1-3.74,7,16,16,0,0,1-5.27,3.52,16.8,16.8,0,0,1-12.62,0,16.19,16.19,0,0,1-5.27-3.52,12.69,12.69,0,0,1-3.74-7,30.8,30.8,0,0,1-.49-5C1126.84,665.78,1126.82,663.52,1126.82,660.92Zm3.51,0c0,2.47,0,4.59.1,6.34a30.8,30.8,0,0,0,.45,4.56,12,12,0,0,0,1.08,3.31,10,10,0,0,0,2,2.64,11.92,11.92,0,0,0,4,2.67,12.85,12.85,0,0,0,9.5,0,12.06,12.06,0,0,0,4-2.67,10.47,10.47,0,0,0,2-2.64,12,12,0,0,0,1.07-3.31,32.08,32.08,0,0,0,.46-4.56c.06-1.75.09-3.87.09-6.34s0-4.59-.09-6.35a32.08,32.08,0,0,0-.46-4.55,12.1,12.1,0,0,0-1.07-3.32,10.61,10.61,0,0,0-2-2.63,11.91,11.91,0,0,0-4-2.67,12.85,12.85,0,0,0-9.5,0,11.78,11.78,0,0,0-4,2.67,10.13,10.13,0,0,0-2,2.63,12.1,12.1,0,0,0-1.08,3.32,30.79,30.79,0,0,0-.45,4.55Q1130.32,657.21,1130.33,660.92Z" transform="translate(-16.51 -16.51)"/><path class="cls-1" d="M1039.88,670.94h3.45a13.3,13.3,0,0,0,4.32,7.61,11.86,11.86,0,0,0,8,2.8,12.58,12.58,0,0,0,4.75-.91,12,12,0,0,0,4-2.67,10.47,10.47,0,0,0,1.95-2.64,11.7,11.7,0,0,0,1.07-3.31,32.08,32.08,0,0,0,.46-4.56c.06-1.75.1-3.87.1-6.34s0-4.59-.1-6.35a32.08,32.08,0,0,0-.46-4.55,11.77,11.77,0,0,0-1.07-3.32,10.61,10.61,0,0,0-1.95-2.63,11.82,11.82,0,0,0-4-2.67,12.58,12.58,0,0,0-4.75-.91,11.65,11.65,0,0,0-7.9,2.79,13.52,13.52,0,0,0-4.26,7.62h-3.58a19,19,0,0,1,1.95-5.63,15.34,15.34,0,0,1,3.38-4.26,14.5,14.5,0,0,1,4.66-2.7,16.88,16.88,0,0,1,5.75-.95,16.48,16.48,0,0,1,6.32,1.24,16.17,16.17,0,0,1,5.27,3.51,13.4,13.4,0,0,1,2.44,3.26,14.34,14.34,0,0,1,1.3,3.84,30.38,30.38,0,0,1,.49,5q.06,2.84.06,6.74c0,2.6,0,4.86-.06,6.76a30.8,30.8,0,0,1-.49,5,13.81,13.81,0,0,1-1.3,3.8,13.62,13.62,0,0,1-2.44,3.22,16.19,16.19,0,0,1-5.27,3.52,16.47,16.47,0,0,1-6.32,1.23,16.77,16.77,0,0,1-5.69-.94,14.7,14.7,0,0,1-4.68-2.7,14.93,14.93,0,0,1-3.42-4.26A19,19,0,0,1,1039.88,670.94Z" transform="translate(-16.51 -16.51)"/><path class="cls-1" d="M953.49,684.08V637.75H957v21.41h24.14V637.75h3.51v46.33h-3.51v-21.8H957v21.8Z" transform="translate(-16.51 -16.51)"/><path class="cls-1" d="M866.4,660.92q0-3.9.06-6.74a30.38,30.38,0,0,1,.49-5,14.34,14.34,0,0,1,1.3-3.84,13.4,13.4,0,0,1,2.44-3.26A16.17,16.17,0,0,1,876,638.6a16.67,16.67,0,0,1,12.62,0,16,16,0,0,1,5.27,3.51,12.91,12.91,0,0,1,2.44,3.26,14.34,14.34,0,0,1,1.31,3.84,29.39,29.39,0,0,1,.48,5q.07,2.84.07,6.74c0,2.6,0,4.86-.07,6.76a29.81,29.81,0,0,1-.48,5,13.82,13.82,0,0,1-1.31,3.8,13.11,13.11,0,0,1-2.44,3.22,16,16,0,0,1-5.27,3.52,16.8,16.8,0,0,1-12.62,0,16.19,16.19,0,0,1-5.27-3.52,13.62,13.62,0,0,1-2.44-3.22,13.81,13.81,0,0,1-1.3-3.8,30.8,30.8,0,0,1-.49-5C866.42,665.78,866.4,663.52,866.4,660.92Zm3.51,0c0,2.47,0,4.59.1,6.34a32.21,32.21,0,0,0,.45,4.56,12,12,0,0,0,1.08,3.31,10.24,10.24,0,0,0,2,2.64,12,12,0,0,0,4,2.67,12.85,12.85,0,0,0,9.5,0,12,12,0,0,0,4-2.67,10.47,10.47,0,0,0,2-2.64,12,12,0,0,0,1.07-3.31,32.08,32.08,0,0,0,.46-4.56c.06-1.75.1-3.87.1-6.34s0-4.59-.1-6.35a32.08,32.08,0,0,0-.46-4.55A12.1,12.1,0,0,0,893,646.7a10.61,10.61,0,0,0-2-2.63,11.82,11.82,0,0,0-4-2.67,12.85,12.85,0,0,0-9.5,0,11.87,11.87,0,0,0-4,2.67,10.36,10.36,0,0,0-2,2.63,12.1,12.1,0,0,0-1.08,3.32,32.21,32.21,0,0,0-.45,4.55Q869.91,657.21,869.91,660.92Z" transform="translate(-16.51 -16.51)"/><path class="cls-1" d="M778.58,684.08V637.75h3.52V677.9l26.74-40.15h3.51v46.33h-3.51V643.81L782.1,684.08Z" transform="translate(-16.51 -16.51)"/><path class="cls-1" d="M692.79,669.05v-31.3h3.51V668.6a14.83,14.83,0,0,0,.88,5.23,11.22,11.22,0,0,0,2.5,4,11.42,11.42,0,0,0,3.91,2.57,14.61,14.61,0,0,0,10.15,0,11,11,0,0,0,6.41-6.61,15.06,15.06,0,0,0,.87-5.23V637.75h3.52v31.3a16.14,16.14,0,0,1-1.17,6.22,14.45,14.45,0,0,1-3.29,4.88,15.09,15.09,0,0,1-5,3.18,18.59,18.59,0,0,1-12.82,0,15.09,15.09,0,0,1-5-3.18,14.42,14.42,0,0,1-3.28-4.88A16.14,16.14,0,0,1,692.79,669.05Z" transform="translate(-16.51 -16.51)"/><path class="cls-1" d="M606,684.08V681h24.6V662.28H609.69v-3.12h20.95V640.88H606v-3.13h28.11v46.33Z" transform="translate(-16.51 -16.51)"/><path class="cls-1" d="M518.33,637.75H522l13,40.15,13-40.15h3.71l-15.22,46.33h-3Z" transform="translate(-16.51 -16.51)"/><path class="cls-1" d="M432.43,684.08V681H457V662.28H436.08v-3.12H457V640.88h-24.6v-3.13h28.11v46.33Z" transform="translate(-16.51 -16.51)"/><path class="cls-1" d="M343.84,651.09a14,14,0,0,1,1.07-5.66,12,12,0,0,1,2.93-4.16,12.64,12.64,0,0,1,4.42-2.6,16.52,16.52,0,0,1,5.57-.92h17v46.33h-3.52V664.43H357.83a17,17,0,0,1-5.57-.88,12.06,12.06,0,0,1-4.42-2.6,12.4,12.4,0,0,1-2.93-4.2A14,14,0,0,1,343.84,651.09Zm3.51,0a11.51,11.51,0,0,0,.81,4.52,8.65,8.65,0,0,0,2.25,3.19,9.08,9.08,0,0,0,3.41,1.89,14.85,14.85,0,0,0,4.4.62h13.07V640.88H358.22a14.53,14.53,0,0,0-4.4.62,9.2,9.2,0,0,0-3.41,1.88,8.82,8.82,0,0,0-2.25,3.19A11.58,11.58,0,0,0,347.35,651.09Z" transform="translate(-16.51 -16.51)"/><path class="cls-1" d="M255.18,684.08V637.75h3.51l15.75,35.73,16.13-35.73h3.52v46.33h-3.52V645.89l-14.31,31.68h-3.52l-14.05-31.68v38.19Z" transform="translate(-16.51 -16.51)"/><path class="cls-1" d="M1126,779.57v-3.12h24.6V733.24h3.51v46.33Z" transform="translate(-16.51 -16.51)"/><path class="cls-1" d="M1037.27,779.57l17-46.33h3.13l17,46.33h-3.77l-4-11.26h-21.6l-4,11.26Zm8.92-14.38h19.39l-9.7-27.26Z" transform="translate(-16.51 -16.51)"/><path class="cls-1" d="M952.35,755.75c0-1.56,0-3.17,0-4.84a30,30,0,0,1,.45-4.88,22.43,22.43,0,0,1,1.34-4.59,12,12,0,0,1,2.66-4c2.83-2.82,6.68-4.23,11.59-4.23H984v46.33H968.43a19.2,19.2,0,0,1-6.58-1.07,13.67,13.67,0,0,1-5-3.16,11.55,11.55,0,0,1-2.66-4.16,26.23,26.23,0,0,1-1.34-5,36.27,36.27,0,0,1-.45-5.33C952.37,759,952.35,757.32,952.35,755.75Zm3.52,0c0,1.31,0,2.75,0,4.33a42,42,0,0,0,.33,4.75,22,22,0,0,0,1,4.49,9.4,9.4,0,0,0,2.08,3.55,10.33,10.33,0,0,0,4.58,2.83,19.14,19.14,0,0,0,5.37.75h11.19V736.36H969.27a19.14,19.14,0,0,0-5.37.75,10.33,10.33,0,0,0-4.58,2.83,9.65,9.65,0,0,0-2.08,3.35,18.53,18.53,0,0,0-1,4,33.84,33.84,0,0,0-.33,4.29C955.88,753.08,955.87,754.45,955.87,755.75Z" transform="translate(-16.51 -16.51)"/><path class="cls-1" d="M880.51,779.57V733.24H884v46.33Z" transform="translate(-16.51 -16.51)"/><path class="cls-1" d="M779.66,779.57v-3.12h24.59V757.77h-21v-3.12h21V736.36H779.66v-3.12h28.11v46.33Z" transform="translate(-16.51 -16.51)"/><path class="cls-1" d="M694.57,779.57v-3.12h24.6l-24.6-40.09v-3.12h27.2v3.12H698.35l24.4,39.5v3.71Z" transform="translate(-16.51 -16.51)"/><path class="cls-1" d="M606.6,767.12a11.9,11.9,0,0,1,1.07-5.11,11,11,0,0,1,3-3.88,15.82,15.82,0,0,1,1.5-1.08,10.18,10.18,0,0,1,1.72-.84,14.33,14.33,0,0,1,2.18-.62c.83-.18,1.78-.35,2.86-.52l5-.78a18.18,18.18,0,0,0,3.81-1.08,11.37,11.37,0,0,0,3.09-1.79q2.41-2,2.41-6.06a9,9,0,0,0-2.83-7c-1.89-1.71-4.52-2.57-7.91-2.57a19.65,19.65,0,0,0-3.71.32,15,15,0,0,0-2.92.88,13.08,13.08,0,0,0-2.41,1.34,24.51,24.51,0,0,0-2.21,1.75l-2.28-2.27a20.59,20.59,0,0,1,6-3.77,20.05,20.05,0,0,1,7.32-1.18q6.71,0,10.54,3.42a11.76,11.76,0,0,1,3.84,9.27,10.52,10.52,0,0,1-3.65,8.52,15.8,15.8,0,0,1-8.26,3.39l-5.4.84a24.12,24.12,0,0,0-2.41.43,17.79,17.79,0,0,0-1.72.48,6.18,6.18,0,0,0-1.34.65c-.39.26-.8.57-1.23.91a8.31,8.31,0,0,0-2.54,6.51,8.45,8.45,0,0,0,3.19,7.06q3.18,2.5,8.72,2.51a25.88,25.88,0,0,0,3.8-.26,13.94,13.94,0,0,0,3.29-.92,14.84,14.84,0,0,0,3-1.69,23.44,23.44,0,0,0,3-2.6l2.47,2.47a24.52,24.52,0,0,1-3.22,2.74,17.38,17.38,0,0,1-3.51,1.92,19.81,19.81,0,0,1-4,1.1,28.23,28.23,0,0,1-4.72.36q-7.29,0-11.45-3.45A11.55,11.55,0,0,1,606.6,767.12Z" transform="translate(-16.51 -16.51)"/><path class="cls-1" d="M519.17,756.4q0-3.9.07-6.73a29.41,29.41,0,0,1,.48-5,14.46,14.46,0,0,1,1.31-3.84,13.3,13.3,0,0,1,2.44-3.25,15.91,15.91,0,0,1,5.27-3.51,16.67,16.67,0,0,1,12.62,0,15.91,15.91,0,0,1,5.27,3.51,13.55,13.55,0,0,1,2.44,3.25,14.11,14.11,0,0,1,1.3,3.84,29.33,29.33,0,0,1,.49,5q.06,2.83.06,6.73c0,2.61,0,4.86-.06,6.77a29.5,29.5,0,0,1-.49,5,13.67,13.67,0,0,1-1.3,3.81,13.83,13.83,0,0,1-2.44,3.22,15.91,15.91,0,0,1-5.27,3.51,16.67,16.67,0,0,1-12.62,0,15.91,15.91,0,0,1-5.27-3.51A13.56,13.56,0,0,1,521,772a14,14,0,0,1-1.31-3.81,29.58,29.58,0,0,1-.48-5C519.19,761.26,519.17,759,519.17,756.4Zm3.52,0c0,2.48,0,4.59.09,6.35a31.92,31.92,0,0,0,.46,4.55,12.45,12.45,0,0,0,1.07,3.32,10.84,10.84,0,0,0,2,2.64,12.06,12.06,0,0,0,4,2.67,12.85,12.85,0,0,0,9.5,0,11.92,11.92,0,0,0,4-2.67,10.34,10.34,0,0,0,1.95-2.64,12.1,12.1,0,0,0,1.08-3.32,30.65,30.65,0,0,0,.45-4.55c.07-1.76.1-3.87.1-6.35s0-4.58-.1-6.34a30.65,30.65,0,0,0-.45-4.55,12.1,12.1,0,0,0-1.08-3.32,10.34,10.34,0,0,0-1.95-2.64,11.92,11.92,0,0,0-4-2.67,12.85,12.85,0,0,0-9.5,0,12.06,12.06,0,0,0-4,2.67,10.84,10.84,0,0,0-2,2.64,12.45,12.45,0,0,0-1.07,3.32,31.92,31.92,0,0,0-.46,4.55Q522.69,752.7,522.69,756.4Z" transform="translate(-16.51 -16.51)"/><path class="cls-1" d="M431.36,779.57V733.24h3.51v40.15l26.74-40.15h3.52v46.33h-3.52V739.29l-26.74,40.28Z" transform="translate(-16.51 -16.51)"/><path class="cls-1" d="M345.43,766.43h3.45a13.35,13.35,0,0,0,4.33,7.61,11.89,11.89,0,0,0,8,2.8,12.82,12.82,0,0,0,4.75-.91,12,12,0,0,0,4-2.67,10.59,10.59,0,0,0,2-2.64A12.1,12.1,0,0,0,373,767.3a32.06,32.06,0,0,0,.45-4.55c.07-1.76.1-3.87.1-6.35s0-4.58-.1-6.34a32.06,32.06,0,0,0-.45-4.55,12.1,12.1,0,0,0-1.08-3.32,10.59,10.59,0,0,0-2-2.64,12,12,0,0,0-4-2.67,12.82,12.82,0,0,0-4.75-.91,11.66,11.66,0,0,0-7.91,2.8,13.52,13.52,0,0,0-4.26,7.61h-3.58a19,19,0,0,1,1.95-5.62,15.38,15.38,0,0,1,3.39-4.27,14.34,14.34,0,0,1,4.65-2.7,17.18,17.18,0,0,1,5.76-.94,16.28,16.28,0,0,1,6.31,1.24,16,16,0,0,1,5.27,3.51,13.55,13.55,0,0,1,2.44,3.25,14.46,14.46,0,0,1,1.3,3.84,30.39,30.39,0,0,1,.49,5q.06,2.83.06,6.73c0,2.61,0,4.86-.06,6.77a30.56,30.56,0,0,1-.49,5,14,14,0,0,1-1.3,3.81,13.83,13.83,0,0,1-2.44,3.22,16,16,0,0,1-5.27,3.51,16.28,16.28,0,0,1-6.31,1.24,17,17,0,0,1-5.7-.94,14.81,14.81,0,0,1-4.68-2.7,15.12,15.12,0,0,1-3.42-4.27A19,19,0,0,1,345.43,766.43Z" transform="translate(-16.51 -16.51)"/><path class="cls-1" d="M258.82,779.57v-3.12h24.59V757.77h-21v-3.12h21V736.36H258.82v-3.12h28.11v46.33Z" transform="translate(-16.51 -16.51)"/><path class="cls-1" d="M1126,851.24c0-1.56,0-3.18,0-4.85a30.11,30.11,0,0,1,.46-4.88,21.88,21.88,0,0,1,1.33-4.58,12.08,12.08,0,0,1,2.67-4q4.23-4.23,11.58-4.23h15.55v46.32H1142a18.87,18.87,0,0,1-6.57-1.07,13.65,13.65,0,0,1-5-3.15,11.75,11.75,0,0,1-2.67-4.17,25.23,25.23,0,0,1-1.33-5,36.53,36.53,0,0,1-.46-5.34Q1126,853.58,1126,851.24Zm3.51,0c0,1.3,0,2.74,0,4.33a44.75,44.75,0,0,0,.32,4.75,22.79,22.79,0,0,0,1,4.49,9.41,9.41,0,0,0,2.08,3.54,10.41,10.41,0,0,0,4.59,2.83,19,19,0,0,0,5.37.75h11.19V831.85h-11.19a19,19,0,0,0-5.37.75,10.41,10.41,0,0,0-4.59,2.83,9.71,9.71,0,0,0-2.08,3.35,19.18,19.18,0,0,0-1,4,36,36,0,0,0-.32,4.3C1129.5,848.56,1129.48,849.94,1129.48,851.24Z" transform="translate(-16.51 -16.51)"/><path class="cls-1" d="M1040,851.89c0-2.6,0-4.85.06-6.73a30.39,30.39,0,0,1,.49-5,14.46,14.46,0,0,1,1.3-3.84,13.36,13.36,0,0,1,2.44-3.25,16.19,16.19,0,0,1,5.27-3.52,16.83,16.83,0,0,1,12.63,0,16.19,16.19,0,0,1,5.27,3.52,13.36,13.36,0,0,1,2.44,3.25,14.46,14.46,0,0,1,1.3,3.84,30.39,30.39,0,0,1,.49,5c0,1.88.06,4.13.06,6.73s0,4.86-.06,6.77a30.56,30.56,0,0,1-.49,5,12.76,12.76,0,0,1-3.74,7,16.17,16.17,0,0,1-5.27,3.51,16.7,16.7,0,0,1-12.63,0,16.17,16.17,0,0,1-5.27-3.51,12.76,12.76,0,0,1-3.74-7,30.56,30.56,0,0,1-.49-5Q1040,855.8,1040,851.89Zm3.51,0q0,3.71.1,6.35a30.67,30.67,0,0,0,.46,4.55,11.77,11.77,0,0,0,1.07,3.32,10.61,10.61,0,0,0,1.95,2.63,12,12,0,0,0,4,2.67,12.83,12.83,0,0,0,9.49,0,12,12,0,0,0,4-2.67,10.61,10.61,0,0,0,1.95-2.63,11.77,11.77,0,0,0,1.07-3.32,30.67,30.67,0,0,0,.46-4.55q.11-2.64.1-6.35c0-2.47,0-4.59-.1-6.34a30.68,30.68,0,0,0-.46-4.56,11.88,11.88,0,0,0-1.07-3.32,10.61,10.61,0,0,0-1.95-2.63,12,12,0,0,0-4-2.67,12.83,12.83,0,0,0-9.49,0,12,12,0,0,0-4,2.67,10.61,10.61,0,0,0-1.95,2.63,11.88,11.88,0,0,0-1.07,3.32,30.68,30.68,0,0,0-.46,4.56C1043.55,847.3,1043.52,849.42,1043.52,851.89Z" transform="translate(-16.51 -16.51)"/><path class="cls-1" d="M953.07,861.91h3.45a13.32,13.32,0,0,0,4.33,7.61,11.84,11.84,0,0,0,8,2.8,12.62,12.62,0,0,0,4.75-.91,11.92,11.92,0,0,0,4-2.67,10.13,10.13,0,0,0,1.95-2.63,12.1,12.1,0,0,0,1.08-3.32,30.79,30.79,0,0,0,.45-4.55q.1-2.64.1-6.35c0-2.47,0-4.59-.1-6.34a30.8,30.8,0,0,0-.45-4.56,12.21,12.21,0,0,0-1.08-3.32A10.13,10.13,0,0,0,977.6,835a11.92,11.92,0,0,0-4-2.67,12.62,12.62,0,0,0-4.75-.91,11.61,11.61,0,0,0-7.91,2.8,13.46,13.46,0,0,0-4.26,7.61h-3.58a19,19,0,0,1,1.95-5.63,15.19,15.19,0,0,1,3.39-4.26,14.34,14.34,0,0,1,4.65-2.7,17,17,0,0,1,5.76-.94,16.46,16.46,0,0,1,6.31,1.23,16.19,16.19,0,0,1,5.27,3.52,13.36,13.36,0,0,1,2.44,3.25,14.11,14.11,0,0,1,1.3,3.84,29.33,29.33,0,0,1,.49,5c0,1.88.06,4.13.06,6.73s0,4.86-.06,6.77a29.5,29.5,0,0,1-.49,5,13.49,13.49,0,0,1-1.3,3.8,13.87,13.87,0,0,1-2.44,3.23,16.17,16.17,0,0,1-5.27,3.51,16.47,16.47,0,0,1-6.31,1.24,16.79,16.79,0,0,1-5.7-1,14.73,14.73,0,0,1-8.1-7A19,19,0,0,1,953.07,861.91Z" transform="translate(-16.51 -16.51)"/><path class="cls-1" d="M866.46,875.05v-3.12h24.6V853.26H870.11v-3.13h20.95V831.85h-24.6v-3.12h28.11v46.32Z" transform="translate(-16.51 -16.51)"/><path class="cls-1" d="M778.81,875.05v-3.12h24.6v-43.2h3.51v46.32Z" transform="translate(-16.51 -16.51)"/><path class="cls-1" d="M693.24,828.73H697l11.52,23.42,11.78-23.42h3.77l-13.66,27.13v19.19H706.9V855.86Z" transform="translate(-16.51 -16.51)"/><path class="cls-1" d="M602.4,875.05V828.73h3.51l15.75,35.72,16.14-35.72h3.51v46.32H637.8V836.86l-14.32,31.69H620l-14.06-31.69v38.19Z" transform="translate(-16.51 -16.51)"/><path class="cls-1" d="M519.24,875.05v-3.12h24.59V853.26h-21v-3.13h21V831.85H519.24v-3.12h28.11v46.32Z" transform="translate(-16.51 -16.51)"/><path class="cls-1" d="M431.36,875.05V828.73h3.51v40.14l26.74-40.14h3.52v46.32h-3.52V834.78l-26.74,40.27Z" transform="translate(-16.51 -16.51)"/><path class="cls-1" d="M345.56,851.89c0-2.6,0-4.85.07-6.73a29.41,29.41,0,0,1,.48-5,14.46,14.46,0,0,1,1.31-3.84,13.06,13.06,0,0,1,2.43-3.25,16.13,16.13,0,0,1,5.28-3.52,16.8,16.8,0,0,1,12.62,0,16.19,16.19,0,0,1,5.27,3.52,13.36,13.36,0,0,1,2.44,3.25,14.46,14.46,0,0,1,1.3,3.84,29.33,29.33,0,0,1,.49,5c0,1.88.06,4.13.06,6.73s0,4.86-.06,6.77a29.5,29.5,0,0,1-.49,5,12.76,12.76,0,0,1-3.74,7,16.17,16.17,0,0,1-5.27,3.51,16.67,16.67,0,0,1-12.62,0,16.1,16.1,0,0,1-5.28-3.51,13.54,13.54,0,0,1-2.43-3.23,13.82,13.82,0,0,1-1.31-3.8,29.58,29.58,0,0,1-.48-5Q345.55,855.8,345.56,851.89Zm3.51,0c0,2.47,0,4.59.1,6.35a32.08,32.08,0,0,0,.46,4.55,12.1,12.1,0,0,0,1.07,3.32,10.61,10.61,0,0,0,1.95,2.63,12,12,0,0,0,4,2.67,12.85,12.85,0,0,0,9.5,0,11.92,11.92,0,0,0,4-2.67,10.13,10.13,0,0,0,1.95-2.63,12.1,12.1,0,0,0,1.08-3.32,30.79,30.79,0,0,0,.45-4.55q.1-2.64.1-6.35c0-2.47,0-4.59-.1-6.34a30.8,30.8,0,0,0-.45-4.56,12.21,12.21,0,0,0-1.08-3.32,10.13,10.13,0,0,0-1.95-2.63,11.92,11.92,0,0,0-4-2.67,12.85,12.85,0,0,0-9.5,0,12,12,0,0,0-4,2.67,10.61,10.61,0,0,0-1.95,2.63,12.22,12.22,0,0,0-1.07,3.32,32.08,32.08,0,0,0-.46,4.56C349.11,847.3,349.07,849.42,349.07,851.89Z" transform="translate(-16.51 -16.51)"/><path class="cls-1" d="M259.37,862.61a12,12,0,0,1,1.08-5.12,10.82,10.82,0,0,1,3-3.87,13.14,13.14,0,0,1,1.49-1.08,10.31,10.31,0,0,1,1.73-.85,16.62,16.62,0,0,1,2.18-.62c.82-.17,1.78-.34,2.86-.52l5-.78a18.32,18.32,0,0,0,3.81-1.07,11.43,11.43,0,0,0,3.09-1.8q2.4-2,2.4-6.06a9,9,0,0,0-2.83-7c-1.88-1.72-4.52-2.58-7.9-2.58a18.81,18.81,0,0,0-3.71.33,15.3,15.3,0,0,0-2.93.88,13,13,0,0,0-2.41,1.33,27.87,27.87,0,0,0-2.21,1.76l-2.27-2.28a21.11,21.11,0,0,1,6-3.77,20.36,20.36,0,0,1,7.32-1.17q6.7,0,10.54,3.41a11.79,11.79,0,0,1,3.84,9.27,10.52,10.52,0,0,1-3.64,8.53,15.88,15.88,0,0,1-8.26,3.38l-5.4.85c-1,.13-1.76.27-2.41.42a17.88,17.88,0,0,0-1.73.49,5.87,5.87,0,0,0-1.33.65c-.39.26-.8.56-1.24.91a8.3,8.3,0,0,0-2.53,6.51,8.48,8.48,0,0,0,3.18,7.06q3.19,2.5,8.72,2.5a24.8,24.8,0,0,0,3.81-.26,13.59,13.59,0,0,0,3.29-.91,15.63,15.63,0,0,0,3-1.69,23.44,23.44,0,0,0,3-2.6l2.47,2.47a24.42,24.42,0,0,1-3.22,2.73,17.65,17.65,0,0,1-3.51,1.92,19.18,19.18,0,0,1-4,1.11,28.32,28.32,0,0,1-4.72.36q-7.29,0-11.45-3.46A11.53,11.53,0,0,1,259.37,862.61Z" transform="translate(-16.51 -16.51)"/><path class="cls-1" d="M1126.82,947.38c0-2.61,0-4.85.06-6.74a30.38,30.38,0,0,1,.49-5,14.34,14.34,0,0,1,1.3-3.84,13.4,13.4,0,0,1,2.44-3.26,16,16,0,0,1,5.27-3.51,16.67,16.67,0,0,1,12.62,0,15.8,15.8,0,0,1,5.27,3.51,12.91,12.91,0,0,1,2.44,3.26,14,14,0,0,1,1.3,3.84,28.32,28.32,0,0,1,.49,5c0,1.89.07,4.13.07,6.74s0,4.86-.07,6.76a28.51,28.51,0,0,1-.49,5,13.56,13.56,0,0,1-1.3,3.81,13.11,13.11,0,0,1-2.44,3.22,16,16,0,0,1-5.27,3.52,16.8,16.8,0,0,1-12.62,0,16.19,16.19,0,0,1-5.27-3.52,13.62,13.62,0,0,1-2.44-3.22,13.89,13.89,0,0,1-1.3-3.81,30.56,30.56,0,0,1-.49-5C1126.84,952.24,1126.82,950,1126.82,947.38Zm3.51,0c0,2.47,0,4.59.1,6.34a30.8,30.8,0,0,0,.45,4.56,12,12,0,0,0,1.08,3.31,10.24,10.24,0,0,0,2,2.64,12,12,0,0,0,4,2.67,12.85,12.85,0,0,0,9.5,0,12.06,12.06,0,0,0,4-2.67,10.47,10.47,0,0,0,2-2.64,12,12,0,0,0,1.07-3.31,32.08,32.08,0,0,0,.46-4.56c.06-1.75.09-3.87.09-6.34s0-4.59-.09-6.35a32.08,32.08,0,0,0-.46-4.55,12.1,12.1,0,0,0-1.07-3.32,10.61,10.61,0,0,0-2-2.63,11.91,11.91,0,0,0-4-2.67,12.85,12.85,0,0,0-9.5,0,11.87,11.87,0,0,0-4,2.67,10.36,10.36,0,0,0-2,2.63,12.1,12.1,0,0,0-1.08,3.32,30.79,30.79,0,0,0-.45,4.55C1130.36,942.79,1130.33,944.9,1130.33,947.38Z" transform="translate(-16.51 -16.51)"/><path class="cls-1" d="M1039.16,924.21h3.71l13,40.15,13-40.15h3.71l-15.23,46.33h-3Z" transform="translate(-16.51 -16.51)"/><path class="cls-1" d="M953.27,970.54v-3.12h24.59V948.74h-21v-3.12h21V927.34H953.27v-3.13h28.11v46.33Z" transform="translate(-16.51 -16.51)"/><path class="cls-1" d="M880.52,970.54V924.21H884v46.33Z" transform="translate(-16.51 -16.51)"/><path class="cls-1" d="M778.58,970.54V924.21h3.52v40.15l26.74-40.15h3.51v46.33h-3.51V930.26L782.1,970.54Z" transform="translate(-16.51 -16.51)"/><path class="cls-1" d="M693.08,927.34v-3.13h31.17v3.13h-13.8v43.2h-3.51v-43.2Z" transform="translate(-16.51 -16.51)"/><path class="cls-1" d="M606,970.54v-3.12h24.6V948.74H609.69v-3.12h20.95V927.34H606v-3.13h28.11v46.33Z" transform="translate(-16.51 -16.51)"/><path class="cls-1" d="M518.33,946.73c0-1.56,0-3.18,0-4.85a30,30,0,0,1,.45-4.88,22.8,22.8,0,0,1,1.34-4.59,12.19,12.19,0,0,1,2.67-4q4.23-4.23,11.58-4.23H550v46.33H534.4a19.1,19.1,0,0,1-6.57-1.07,13.59,13.59,0,0,1-5-3.16,11.71,11.71,0,0,1-2.67-4.16,26.23,26.23,0,0,1-1.34-5,36.27,36.27,0,0,1-.45-5.33Q518.33,949.07,518.33,946.73Zm3.51,0q0,1.95,0,4.32a44.41,44.41,0,0,0,.33,4.75,22,22,0,0,0,1,4.49,9.32,9.32,0,0,0,2.08,3.55,10.3,10.3,0,0,0,4.59,2.83,19,19,0,0,0,5.36.75h11.2V927.34h-11.2a19,19,0,0,0-5.36.75,10.22,10.22,0,0,0-4.59,2.83,9.56,9.56,0,0,0-2.08,3.35,18.44,18.44,0,0,0-1,4,35.79,35.79,0,0,0-.33,4.29Q521.84,944.78,521.84,946.73Z" transform="translate(-16.51 -16.51)"/><path class="cls-1" d="M446.49,970.54V924.21H450v46.33Z" transform="translate(-16.51 -16.51)"/><path class="cls-1" d="M345.63,970.54v-3.12h24.59V948.74h-21v-3.12h21V927.34H345.63v-3.13h28.1v46.33Z" transform="translate(-16.51 -16.51)"/><path class="cls-1" d="M260.54,970.54v-3.12h24.6l-24.6-40.08v-3.13h27.2v3.13H264.32l24.4,39.49v3.71Z" transform="translate(-16.51 -16.51)"/><path class="cls-1" d="M1126,1019.7h3.71l13,40.15,13-40.15h3.7L1144.19,1066h-3Z" transform="translate(-16.51 -16.51)"/><path class="cls-1" d="M1040.07,1066v-3.13h24.6v-18.67h-21v-3.12h21v-18.29h-24.6v-3.12h28.11V1066Z" transform="translate(-16.51 -16.51)"/><path class="cls-1" d="M967.32,1066V1019.7h3.52V1066Z" transform="translate(-16.51 -16.51)"/><path class="cls-1" d="M865.39,1066V1019.7h3.51v40.15l26.74-40.15h3.52V1066h-3.52v-40.28L868.9,1066Z" transform="translate(-16.51 -16.51)"/><path class="cls-1" d="M779.89,1022.82v-3.12h31.16v3.12H797.26V1066h-3.51v-43.21Z" transform="translate(-16.51 -16.51)"/><path class="cls-1" d="M706.91,1066V1019.7h3.51V1066Z" transform="translate(-16.51 -16.51)"/><path class="cls-1" d="M605.85,1052.88h3.45a13.36,13.36,0,0,0,4.32,7.62,11.93,11.93,0,0,0,8,2.8,12.59,12.59,0,0,0,4.75-.92,11.79,11.79,0,0,0,4-2.66,10.84,10.84,0,0,0,2-2.64,11.77,11.77,0,0,0,1.07-3.32,30.53,30.53,0,0,0,.46-4.55c.07-1.76.1-3.87.1-6.35s0-4.58-.1-6.34a30.53,30.53,0,0,0-.46-4.55,11.77,11.77,0,0,0-1.07-3.32,10.65,10.65,0,0,0-2-2.64,12,12,0,0,0-4-2.67,12.78,12.78,0,0,0-4.75-.91,11.66,11.66,0,0,0-7.9,2.8,13.49,13.49,0,0,0-4.26,7.61h-3.58a19,19,0,0,1,1.95-5.62,15.38,15.38,0,0,1,3.38-4.27,14.5,14.5,0,0,1,4.66-2.7,17.12,17.12,0,0,1,5.75-.94,16.3,16.3,0,0,1,6.32,1.24,16,16,0,0,1,5.27,3.51,13.55,13.55,0,0,1,2.44,3.25,14.46,14.46,0,0,1,1.3,3.84,30.39,30.39,0,0,1,.49,5q.06,2.83.06,6.73c0,2.61,0,4.86-.06,6.77a30.56,30.56,0,0,1-.49,5,14,14,0,0,1-1.3,3.81,13.83,13.83,0,0,1-2.44,3.22,16,16,0,0,1-5.27,3.51,16.3,16.3,0,0,1-6.32,1.24,16.78,16.78,0,0,1-5.69-1,14.33,14.33,0,0,1-4.68-2.7,14.93,14.93,0,0,1-3.42-4.26A18.92,18.92,0,0,1,605.85,1052.88Z" transform="translate(-16.51 -16.51)"/><path class="cls-1" d="M533.29,1066V1019.7h3.52V1066Z" transform="translate(-16.51 -16.51)"/><path class="cls-1" d="M431.36,1066V1019.7h3.51v40.15l26.75-40.15h3.51V1066h-3.51v-40.28L434.87,1066Z" transform="translate(-16.51 -16.51)"/><path class="cls-1" d="M345.43,1052.88h3.45a13.37,13.37,0,0,0,4.33,7.62,11.89,11.89,0,0,0,8,2.8,12.63,12.63,0,0,0,4.75-.92,11.75,11.75,0,0,0,4-2.66,10.34,10.34,0,0,0,2-2.64,12.1,12.1,0,0,0,1.08-3.32,30.65,30.65,0,0,0,.45-4.55c.07-1.76.1-3.87.1-6.35s0-4.58-.1-6.34A30.65,30.65,0,0,0,373,1032a12.1,12.1,0,0,0-1.08-3.32,10.18,10.18,0,0,0-2-2.64,11.92,11.92,0,0,0-4-2.67,12.82,12.82,0,0,0-4.75-.91,11.66,11.66,0,0,0-7.91,2.8,13.49,13.49,0,0,0-4.26,7.61h-3.58a19,19,0,0,1,1.95-5.62,15.23,15.23,0,0,1,3.39-4.27,14.34,14.34,0,0,1,4.65-2.7,17.18,17.18,0,0,1,5.76-.94,16.28,16.28,0,0,1,6.31,1.24,16,16,0,0,1,5.27,3.51,13.55,13.55,0,0,1,2.44,3.25,14.46,14.46,0,0,1,1.3,3.84,29.33,29.33,0,0,1,.49,5q.06,2.83.06,6.73c0,2.61,0,4.86-.06,6.77a29.5,29.5,0,0,1-.49,5,14,14,0,0,1-1.3,3.81,13.83,13.83,0,0,1-2.44,3.22,16,16,0,0,1-5.27,3.51,16.28,16.28,0,0,1-6.31,1.24,16.79,16.79,0,0,1-5.7-1,14.54,14.54,0,0,1-4.68-2.7,14.93,14.93,0,0,1-3.42-4.26A18.92,18.92,0,0,1,345.43,1052.88Z" transform="translate(-16.51 -16.51)"/><path class="cls-1" d="M258.76,1042.86q0-3.9.06-6.73a29.33,29.33,0,0,1,.49-5,14.11,14.11,0,0,1,1.3-3.84,13.3,13.3,0,0,1,2.44-3.25,16,16,0,0,1,5.27-3.51,16.67,16.67,0,0,1,12.62,0,15.8,15.8,0,0,1,5.27,3.51,13.3,13.3,0,0,1,2.44,3.25,14.11,14.11,0,0,1,1.3,3.84,28.34,28.34,0,0,1,.49,5q.07,2.83.07,6.73c0,2.61,0,4.86-.07,6.77a28.51,28.51,0,0,1-.49,5,12.67,12.67,0,0,1-3.74,7,15.8,15.8,0,0,1-5.27,3.51,16.67,16.67,0,0,1-12.62,0,16,16,0,0,1-5.27-3.51,12.67,12.67,0,0,1-3.74-7,29.5,29.5,0,0,1-.49-5C258.78,1047.72,258.76,1045.47,258.76,1042.86Zm3.51,0c0,2.48,0,4.59.1,6.35a30.65,30.65,0,0,0,.45,4.55,12.45,12.45,0,0,0,1.07,3.32,10.63,10.63,0,0,0,2,2.64,11.75,11.75,0,0,0,4,2.66,12.72,12.72,0,0,0,9.5,0,11.89,11.89,0,0,0,4-2.66,10.84,10.84,0,0,0,1.95-2.64,12.45,12.45,0,0,0,1.07-3.32,31.92,31.92,0,0,0,.46-4.55c.06-1.76.09-3.87.09-6.35s0-4.58-.09-6.34a31.92,31.92,0,0,0-.46-4.55,12.45,12.45,0,0,0-1.07-3.32,10.65,10.65,0,0,0-1.95-2.64,12.06,12.06,0,0,0-4-2.67,12.85,12.85,0,0,0-9.5,0,11.92,11.92,0,0,0-4,2.67,10.45,10.45,0,0,0-2,2.64,12.45,12.45,0,0,0-1.07,3.32,30.65,30.65,0,0,0-.45,4.55Q262.27,1039.16,262.27,1042.86Z" transform="translate(-16.51 -16.51)"/><path class="cls-1" d="M1123.24,1161.51v-46.32h3.51l15.75,35.72,16.13-35.72h3.52v46.32h-3.52v-38.19L1144.32,1155h-3.52l-14-31.69v38.19Z" transform="translate(-16.51 -16.51)"/><path class="cls-1" d="M1040.07,1161.51v-3.12h24.6v-18.67h-21v-3.13h21v-18.28h-24.6v-3.12h28.11v46.32Z" transform="translate(-16.51 -16.51)"/><path class="cls-1" d="M952.35,1137.7c0-1.56,0-3.18,0-4.85a30.12,30.12,0,0,1,.45-4.88,22.52,22.52,0,0,1,1.34-4.58,11.9,11.9,0,0,1,2.66-4c2.83-2.82,6.68-4.23,11.59-4.23H984v46.32H968.43a19,19,0,0,1-6.58-1.07,13.65,13.65,0,0,1-5-3.15,11.59,11.59,0,0,1-2.66-4.17,25.94,25.94,0,0,1-1.34-5,36.52,36.52,0,0,1-.45-5.34C952.37,1140.94,952.35,1139.26,952.35,1137.7Zm3.52,0c0,1.3,0,2.74,0,4.33a42.28,42.28,0,0,0,.33,4.75,22.1,22.1,0,0,0,1,4.49,9.28,9.28,0,0,0,2.08,3.54,10.33,10.33,0,0,0,4.58,2.83,19.14,19.14,0,0,0,5.37.75h11.19v-40.08H969.27a19.14,19.14,0,0,0-5.37.75,10.33,10.33,0,0,0-4.58,2.83,9.56,9.56,0,0,0-2.08,3.35,18.59,18.59,0,0,0-1,4,34,34,0,0,0-.33,4.3C955.88,1135,955.87,1136.4,955.87,1137.7Z" transform="translate(-16.51 -16.51)"/><path class="cls-1" d="M880.51,1161.51v-46.32H884v46.32Z" transform="translate(-16.51 -16.51)"/><path class="cls-1" d="M776.86,1161.51l17-46.32H797l17.05,46.32H810.3l-4-11.25h-21.6l-4,11.25Zm8.91-14.38h19.39l-9.69-27.26Z" transform="translate(-16.51 -16.51)"/><path class="cls-1" d="M692.65,1148.37h3.45a13.37,13.37,0,0,0,4.33,7.61,11.86,11.86,0,0,0,8,2.8,12.62,12.62,0,0,0,4.75-.91,11.92,11.92,0,0,0,4-2.67,10.41,10.41,0,0,0,2-2.63,12.45,12.45,0,0,0,1.07-3.32,32.08,32.08,0,0,0,.46-4.55q.09-2.64.09-6.35c0-2.47,0-4.59-.09-6.34a32.08,32.08,0,0,0-.46-4.56,12.57,12.57,0,0,0-1.07-3.32,10.41,10.41,0,0,0-2-2.63,11.92,11.92,0,0,0-4-2.67,12.62,12.62,0,0,0-4.75-.91,11.59,11.59,0,0,0-7.9,2.8,13.53,13.53,0,0,0-4.27,7.61h-3.58a19.32,19.32,0,0,1,2-5.63,15.34,15.34,0,0,1,3.38-4.26,14.55,14.55,0,0,1,4.65-2.7,17,17,0,0,1,5.76-.94,16.42,16.42,0,0,1,6.31,1.23,16.09,16.09,0,0,1,5.27,3.52,13.11,13.11,0,0,1,2.44,3.25,14.11,14.11,0,0,1,1.3,3.84,28.34,28.34,0,0,1,.49,5c0,1.88.07,4.13.07,6.73s0,4.86-.07,6.77a28.51,28.51,0,0,1-.49,5,12.76,12.76,0,0,1-3.74,7,16.06,16.06,0,0,1-5.27,3.51,16.43,16.43,0,0,1-6.31,1.24,16.69,16.69,0,0,1-5.69-1,14.86,14.86,0,0,1-4.69-2.7,15.07,15.07,0,0,1-3.41-4.26A19.32,19.32,0,0,1,692.65,1148.37Z" transform="translate(-16.51 -16.51)"/><path class="cls-1" d="M606,1146.48v-31.29h3.51V1146a14.93,14.93,0,0,0,.88,5.24,11.29,11.29,0,0,0,2.51,4,11.15,11.15,0,0,0,3.9,2.57,14.61,14.61,0,0,0,10.15,0,11.15,11.15,0,0,0,3.9-2.57,11.29,11.29,0,0,0,2.51-4,15.16,15.16,0,0,0,.88-5.24v-30.84h3.51v31.29a16.14,16.14,0,0,1-1.17,6.22,14.35,14.35,0,0,1-3.29,4.88,15.12,15.12,0,0,1-5,3.19,18.56,18.56,0,0,1-12.81,0,15.12,15.12,0,0,1-5-3.19,14.35,14.35,0,0,1-3.29-4.88A16.14,16.14,0,0,1,606,1146.48Z" transform="translate(-16.51 -16.51)"/><path class="cls-1" d="M516.44,1161.51l17-46.32h3.12l17,46.32h-3.78l-4-11.25h-21.6l-4,11.25Zm8.91-14.38h19.39l-9.69-27.26Z" transform="translate(-16.51 -16.51)"/><path class="cls-1" d="M431,1161.51l11.19-21.4a13.05,13.05,0,0,1-7.77-4.07,12.12,12.12,0,0,1-2.9-8.42,13.42,13.42,0,0,1,1-5.34,10.72,10.72,0,0,1,2.8-3.9,12,12,0,0,1,4.23-2.38,16.53,16.53,0,0,1,5.24-.81h17.63v46.32H459v-21.34H446.19l-11.06,21.34Zm4-33.83a10.7,10.7,0,0,0,.74,4.16,7.8,7.8,0,0,0,2.12,2.93,8.76,8.76,0,0,0,3.25,1.73,14.52,14.52,0,0,0,4.1.55H459v-18.74H445.28a14.89,14.89,0,0,0-4.1.55,8.76,8.76,0,0,0-3.25,1.73,7.8,7.8,0,0,0-2.12,2.93A10.74,10.74,0,0,0,435.07,1127.68Z" transform="translate(-16.51 -16.51)"/><path class="cls-1" d="M345.85,1118.31v-3.12H377v3.12H363.23v43.2h-3.52v-43.2Z" transform="translate(-16.51 -16.51)"/><path class="cls-1" d="M258.75,1138.35c0-2.6,0-4.85.07-6.73a29.33,29.33,0,0,1,.49-5,14.11,14.11,0,0,1,1.3-3.84,13.11,13.11,0,0,1,2.44-3.25,16.09,16.09,0,0,1,5.27-3.52,16.8,16.8,0,0,1,12.62,0,16.09,16.09,0,0,1,5.27,3.52,13.11,13.11,0,0,1,2.44,3.25,14.11,14.11,0,0,1,1.3,3.84,28.34,28.34,0,0,1,.49,5c.05,1.88.07,4.13.07,6.73s0,4.86-.07,6.77a28.51,28.51,0,0,1-.49,5,12.76,12.76,0,0,1-3.74,7,16.06,16.06,0,0,1-5.27,3.51,16.67,16.67,0,0,1-12.62,0,16.06,16.06,0,0,1-5.27-3.51,12.76,12.76,0,0,1-3.74-7,29.5,29.5,0,0,1-.49-5C258.78,1143.21,258.75,1141,258.75,1138.35Zm3.52,0q0,3.7.1,6.35a30.79,30.79,0,0,0,.45,4.55,12.45,12.45,0,0,0,1.07,3.32,10.41,10.41,0,0,0,2,2.63,11.92,11.92,0,0,0,4,2.67,12.85,12.85,0,0,0,9.5,0,11.92,11.92,0,0,0,4-2.67,10.41,10.41,0,0,0,2-2.63,12.45,12.45,0,0,0,1.07-3.32,32.08,32.08,0,0,0,.46-4.55q.09-2.64.09-6.35c0-2.47,0-4.59-.09-6.34a32.08,32.08,0,0,0-.46-4.56,12.57,12.57,0,0,0-1.07-3.32,10.41,10.41,0,0,0-2-2.63,11.92,11.92,0,0,0-4-2.67,12.85,12.85,0,0,0-9.5,0,11.92,11.92,0,0,0-4,2.67,10.41,10.41,0,0,0-2,2.63,12.57,12.57,0,0,0-1.07,3.32,30.8,30.8,0,0,0-.45,4.56C262.3,1133.76,262.27,1135.88,262.27,1138.35Z" transform="translate(-16.51 -16.51)"/></g><g id="Dots"><circle class="cls-1" cx="1302.16" cy="82.15" r="3.36"/><circle class="cls-1" cx="1302.16" cy="1302.16" r="3.36"/><circle class="cls-1" cx="82.15" cy="1302.16" r="3.36"/><circle class="cls-1" cx="82.15" cy="82.15" r="3.36"/><rect class="cls-2" x="17.01" y="17.01" width="1383.31" height="1383.31" transform="translate(1400.81 1400.81) rotate(-180)"/></g></svg>